%TF.GenerationSoftware,KiCad,Pcbnew,6.0.7-f9a2dced07~116~ubuntu22.04.1*%
%TF.CreationDate,2022-09-14T12:05:50-03:00*%
%TF.ProjectId,tp4056,74703430-3536-42e6-9b69-6361645f7063,rev?*%
%TF.SameCoordinates,Original*%
%TF.FileFunction,Copper,L1,Top*%
%TF.FilePolarity,Positive*%
%FSLAX46Y46*%
G04 Gerber Fmt 4.6, Leading zero omitted, Abs format (unit mm)*
G04 Created by KiCad (PCBNEW 6.0.7-f9a2dced07~116~ubuntu22.04.1) date 2022-09-14 12:05:50*
%MOMM*%
%LPD*%
G01*
G04 APERTURE LIST*
G04 Aperture macros list*
%AMRoundRect*
0 Rectangle with rounded corners*
0 $1 Rounding radius*
0 $2 $3 $4 $5 $6 $7 $8 $9 X,Y pos of 4 corners*
0 Add a 4 corners polygon primitive as box body*
4,1,4,$2,$3,$4,$5,$6,$7,$8,$9,$2,$3,0*
0 Add four circle primitives for the rounded corners*
1,1,$1+$1,$2,$3*
1,1,$1+$1,$4,$5*
1,1,$1+$1,$6,$7*
1,1,$1+$1,$8,$9*
0 Add four rect primitives between the rounded corners*
20,1,$1+$1,$2,$3,$4,$5,0*
20,1,$1+$1,$4,$5,$6,$7,0*
20,1,$1+$1,$6,$7,$8,$9,0*
20,1,$1+$1,$8,$9,$2,$3,0*%
%AMFreePoly0*
4,1,6,1.000000,0.000000,0.500000,-0.750000,-0.500000,-0.750000,-0.500000,0.750000,0.500000,0.750000,1.000000,0.000000,1.000000,0.000000,$1*%
%AMFreePoly1*
4,1,6,0.500000,-0.750000,-0.650000,-0.750000,-0.150000,0.000000,-0.650000,0.750000,0.500000,0.750000,0.500000,-0.750000,0.500000,-0.750000,$1*%
G04 Aperture macros list end*
%ADD10C,0.100000*%
%ADD11C,0.150000*%
%ADD12C,0.300000*%
%ADD13C,0.400000*%
%TA.AperFunction,NonConductor*%
%ADD14C,0.150000*%
%TD*%
%TA.AperFunction,NonConductor*%
%ADD15C,0.300000*%
%TD*%
%ADD16C,0.250000*%
%TA.AperFunction,NonConductor*%
%ADD17C,0.250000*%
%TD*%
%TA.AperFunction,Profile*%
%ADD18C,0.150000*%
%TD*%
%TA.AperFunction,SMDPad,CuDef*%
%ADD19RoundRect,0.250000X-0.475000X0.250000X-0.475000X-0.250000X0.475000X-0.250000X0.475000X0.250000X0*%
%TD*%
%TA.AperFunction,SMDPad,CuDef*%
%ADD20RoundRect,0.250000X0.262500X0.450000X-0.262500X0.450000X-0.262500X-0.450000X0.262500X-0.450000X0*%
%TD*%
%TA.AperFunction,SMDPad,CuDef*%
%ADD21R,0.900000X0.800000*%
%TD*%
%TA.AperFunction,SMDPad,CuDef*%
%ADD22RoundRect,0.250000X-0.450000X0.262500X-0.450000X-0.262500X0.450000X-0.262500X0.450000X0.262500X0*%
%TD*%
%TA.AperFunction,SMDPad,CuDef*%
%ADD23RoundRect,0.250000X-0.262500X-0.450000X0.262500X-0.450000X0.262500X0.450000X-0.262500X0.450000X0*%
%TD*%
%TA.AperFunction,SMDPad,CuDef*%
%ADD24RoundRect,0.150000X0.150000X-0.825000X0.150000X0.825000X-0.150000X0.825000X-0.150000X-0.825000X0*%
%TD*%
%TA.AperFunction,SMDPad,CuDef*%
%ADD25R,3.000000X2.290000*%
%TD*%
%TA.AperFunction,SMDPad,CuDef*%
%ADD26R,1.350000X0.400000*%
%TD*%
%TA.AperFunction,ComponentPad*%
%ADD27O,1.900000X1.200000*%
%TD*%
%TA.AperFunction,SMDPad,CuDef*%
%ADD28R,1.900000X1.200000*%
%TD*%
%TA.AperFunction,ComponentPad*%
%ADD29C,1.450000*%
%TD*%
%TA.AperFunction,SMDPad,CuDef*%
%ADD30R,1.900000X1.500000*%
%TD*%
%TA.AperFunction,ComponentPad*%
%ADD31RoundRect,0.250000X-0.600000X-0.725000X0.600000X-0.725000X0.600000X0.725000X-0.600000X0.725000X0*%
%TD*%
%TA.AperFunction,ComponentPad*%
%ADD32O,1.700000X1.950000*%
%TD*%
%TA.AperFunction,SMDPad,CuDef*%
%ADD33RoundRect,0.250000X0.475000X-0.250000X0.475000X0.250000X-0.475000X0.250000X-0.475000X-0.250000X0*%
%TD*%
%TA.AperFunction,SMDPad,CuDef*%
%ADD34R,0.800000X0.900000*%
%TD*%
%TA.AperFunction,SMDPad,CuDef*%
%ADD35RoundRect,0.250000X0.450000X-0.325000X0.450000X0.325000X-0.450000X0.325000X-0.450000X-0.325000X0*%
%TD*%
%TA.AperFunction,ComponentPad*%
%ADD36R,1.700000X1.700000*%
%TD*%
%TA.AperFunction,ComponentPad*%
%ADD37RoundRect,0.250000X0.600000X0.750000X-0.600000X0.750000X-0.600000X-0.750000X0.600000X-0.750000X0*%
%TD*%
%TA.AperFunction,ComponentPad*%
%ADD38O,1.700000X2.000000*%
%TD*%
%TA.AperFunction,SMDPad,CuDef*%
%ADD39RoundRect,0.250000X0.450000X-0.262500X0.450000X0.262500X-0.450000X0.262500X-0.450000X-0.262500X0*%
%TD*%
%TA.AperFunction,SMDPad,CuDef*%
%ADD40FreePoly0,270.000000*%
%TD*%
%TA.AperFunction,SMDPad,CuDef*%
%ADD41FreePoly1,270.000000*%
%TD*%
%TA.AperFunction,SMDPad,CuDef*%
%ADD42R,1.060000X0.650000*%
%TD*%
%TA.AperFunction,SMDPad,CuDef*%
%ADD43R,1.100000X1.100000*%
%TD*%
%TA.AperFunction,SMDPad,CuDef*%
%ADD44RoundRect,0.250000X0.250000X0.475000X-0.250000X0.475000X-0.250000X-0.475000X0.250000X-0.475000X0*%
%TD*%
%TA.AperFunction,WasherPad*%
%ADD45C,4.000000*%
%TD*%
%TA.AperFunction,SMDPad,CuDef*%
%ADD46FreePoly0,180.000000*%
%TD*%
%TA.AperFunction,SMDPad,CuDef*%
%ADD47FreePoly1,180.000000*%
%TD*%
%TA.AperFunction,ViaPad*%
%ADD48C,1.500000*%
%TD*%
%TA.AperFunction,Conductor*%
%ADD49C,0.500000*%
%TD*%
%TA.AperFunction,Conductor*%
%ADD50C,0.400000*%
%TD*%
G04 APERTURE END LIST*
D10*
D11*
X177002200Y-166007200D02*
X177002200Y-198007200D01*
X285002200Y-198007200D01*
X285002200Y-166007200D01*
X177002200Y-166007200D01*
D10*
D11*
X10000000Y-10000000D02*
X10000000Y-200007200D01*
X287002200Y-200007200D01*
X287002200Y-10000000D01*
X10000000Y-10000000D01*
D10*
D11*
X12000000Y-12000000D02*
X12000000Y-198007200D01*
X285002200Y-198007200D01*
X285002200Y-12000000D01*
X12000000Y-12000000D01*
D10*
D11*
X60000000Y-12000000D02*
X60000000Y-10000000D01*
D10*
D11*
X110000000Y-12000000D02*
X110000000Y-10000000D01*
D10*
D11*
X160000000Y-12000000D02*
X160000000Y-10000000D01*
D10*
D11*
X210000000Y-12000000D02*
X210000000Y-10000000D01*
D10*
D11*
X260000000Y-12000000D02*
X260000000Y-10000000D01*
D10*
D11*
X36065476Y-11588095D02*
X35322619Y-11588095D01*
X35694047Y-11588095D02*
X35694047Y-10288095D01*
X35570238Y-10473809D01*
X35446428Y-10597619D01*
X35322619Y-10659523D01*
D10*
D11*
X85322619Y-10411904D02*
X85384523Y-10350000D01*
X85508333Y-10288095D01*
X85817857Y-10288095D01*
X85941666Y-10350000D01*
X86003571Y-10411904D01*
X86065476Y-10535714D01*
X86065476Y-10659523D01*
X86003571Y-10845238D01*
X85260714Y-11588095D01*
X86065476Y-11588095D01*
D10*
D11*
X135260714Y-10288095D02*
X136065476Y-10288095D01*
X135632142Y-10783333D01*
X135817857Y-10783333D01*
X135941666Y-10845238D01*
X136003571Y-10907142D01*
X136065476Y-11030952D01*
X136065476Y-11340476D01*
X136003571Y-11464285D01*
X135941666Y-11526190D01*
X135817857Y-11588095D01*
X135446428Y-11588095D01*
X135322619Y-11526190D01*
X135260714Y-11464285D01*
D10*
D11*
X185941666Y-10721428D02*
X185941666Y-11588095D01*
X185632142Y-10226190D02*
X185322619Y-11154761D01*
X186127380Y-11154761D01*
D10*
D11*
X236003571Y-10288095D02*
X235384523Y-10288095D01*
X235322619Y-10907142D01*
X235384523Y-10845238D01*
X235508333Y-10783333D01*
X235817857Y-10783333D01*
X235941666Y-10845238D01*
X236003571Y-10907142D01*
X236065476Y-11030952D01*
X236065476Y-11340476D01*
X236003571Y-11464285D01*
X235941666Y-11526190D01*
X235817857Y-11588095D01*
X235508333Y-11588095D01*
X235384523Y-11526190D01*
X235322619Y-11464285D01*
D10*
D11*
X285941666Y-10288095D02*
X285694047Y-10288095D01*
X285570238Y-10350000D01*
X285508333Y-10411904D01*
X285384523Y-10597619D01*
X285322619Y-10845238D01*
X285322619Y-11340476D01*
X285384523Y-11464285D01*
X285446428Y-11526190D01*
X285570238Y-11588095D01*
X285817857Y-11588095D01*
X285941666Y-11526190D01*
X286003571Y-11464285D01*
X286065476Y-11340476D01*
X286065476Y-11030952D01*
X286003571Y-10907142D01*
X285941666Y-10845238D01*
X285817857Y-10783333D01*
X285570238Y-10783333D01*
X285446428Y-10845238D01*
X285384523Y-10907142D01*
X285322619Y-11030952D01*
D10*
D11*
X60000000Y-198007200D02*
X60000000Y-200007200D01*
D10*
D11*
X110000000Y-198007200D02*
X110000000Y-200007200D01*
D10*
D11*
X160000000Y-198007200D02*
X160000000Y-200007200D01*
D10*
D11*
X210000000Y-198007200D02*
X210000000Y-200007200D01*
D10*
D11*
X260000000Y-198007200D02*
X260000000Y-200007200D01*
D10*
D11*
X36065476Y-199595295D02*
X35322619Y-199595295D01*
X35694047Y-199595295D02*
X35694047Y-198295295D01*
X35570238Y-198481009D01*
X35446428Y-198604819D01*
X35322619Y-198666723D01*
D10*
D11*
X85322619Y-198419104D02*
X85384523Y-198357200D01*
X85508333Y-198295295D01*
X85817857Y-198295295D01*
X85941666Y-198357200D01*
X86003571Y-198419104D01*
X86065476Y-198542914D01*
X86065476Y-198666723D01*
X86003571Y-198852438D01*
X85260714Y-199595295D01*
X86065476Y-199595295D01*
D10*
D11*
X135260714Y-198295295D02*
X136065476Y-198295295D01*
X135632142Y-198790533D01*
X135817857Y-198790533D01*
X135941666Y-198852438D01*
X136003571Y-198914342D01*
X136065476Y-199038152D01*
X136065476Y-199347676D01*
X136003571Y-199471485D01*
X135941666Y-199533390D01*
X135817857Y-199595295D01*
X135446428Y-199595295D01*
X135322619Y-199533390D01*
X135260714Y-199471485D01*
D10*
D11*
X185941666Y-198728628D02*
X185941666Y-199595295D01*
X185632142Y-198233390D02*
X185322619Y-199161961D01*
X186127380Y-199161961D01*
D10*
D11*
X236003571Y-198295295D02*
X235384523Y-198295295D01*
X235322619Y-198914342D01*
X235384523Y-198852438D01*
X235508333Y-198790533D01*
X235817857Y-198790533D01*
X235941666Y-198852438D01*
X236003571Y-198914342D01*
X236065476Y-199038152D01*
X236065476Y-199347676D01*
X236003571Y-199471485D01*
X235941666Y-199533390D01*
X235817857Y-199595295D01*
X235508333Y-199595295D01*
X235384523Y-199533390D01*
X235322619Y-199471485D01*
D10*
D11*
X285941666Y-198295295D02*
X285694047Y-198295295D01*
X285570238Y-198357200D01*
X285508333Y-198419104D01*
X285384523Y-198604819D01*
X285322619Y-198852438D01*
X285322619Y-199347676D01*
X285384523Y-199471485D01*
X285446428Y-199533390D01*
X285570238Y-199595295D01*
X285817857Y-199595295D01*
X285941666Y-199533390D01*
X286003571Y-199471485D01*
X286065476Y-199347676D01*
X286065476Y-199038152D01*
X286003571Y-198914342D01*
X285941666Y-198852438D01*
X285817857Y-198790533D01*
X285570238Y-198790533D01*
X285446428Y-198852438D01*
X285384523Y-198914342D01*
X285322619Y-199038152D01*
D10*
D11*
X10000000Y-60000000D02*
X12000000Y-60000000D01*
D10*
D11*
X10000000Y-110000000D02*
X12000000Y-110000000D01*
D10*
D11*
X10000000Y-160000000D02*
X12000000Y-160000000D01*
D10*
D11*
X10690476Y-35216666D02*
X11309523Y-35216666D01*
X10566666Y-35588095D02*
X11000000Y-34288095D01*
X11433333Y-35588095D01*
D10*
D11*
X11092857Y-84907142D02*
X11278571Y-84969047D01*
X11340476Y-85030952D01*
X11402380Y-85154761D01*
X11402380Y-85340476D01*
X11340476Y-85464285D01*
X11278571Y-85526190D01*
X11154761Y-85588095D01*
X10659523Y-85588095D01*
X10659523Y-84288095D01*
X11092857Y-84288095D01*
X11216666Y-84350000D01*
X11278571Y-84411904D01*
X11340476Y-84535714D01*
X11340476Y-84659523D01*
X11278571Y-84783333D01*
X11216666Y-84845238D01*
X11092857Y-84907142D01*
X10659523Y-84907142D01*
D10*
D11*
X11402380Y-135464285D02*
X11340476Y-135526190D01*
X11154761Y-135588095D01*
X11030952Y-135588095D01*
X10845238Y-135526190D01*
X10721428Y-135402380D01*
X10659523Y-135278571D01*
X10597619Y-135030952D01*
X10597619Y-134845238D01*
X10659523Y-134597619D01*
X10721428Y-134473809D01*
X10845238Y-134350000D01*
X11030952Y-134288095D01*
X11154761Y-134288095D01*
X11340476Y-134350000D01*
X11402380Y-134411904D01*
D10*
D11*
X10659523Y-185588095D02*
X10659523Y-184288095D01*
X10969047Y-184288095D01*
X11154761Y-184350000D01*
X11278571Y-184473809D01*
X11340476Y-184597619D01*
X11402380Y-184845238D01*
X11402380Y-185030952D01*
X11340476Y-185278571D01*
X11278571Y-185402380D01*
X11154761Y-185526190D01*
X10969047Y-185588095D01*
X10659523Y-185588095D01*
D10*
D11*
X287002200Y-60000000D02*
X285002200Y-60000000D01*
D10*
D11*
X287002200Y-110000000D02*
X285002200Y-110000000D01*
D10*
D11*
X287002200Y-160000000D02*
X285002200Y-160000000D01*
D10*
D11*
X285692676Y-35216666D02*
X286311723Y-35216666D01*
X285568866Y-35588095D02*
X286002200Y-34288095D01*
X286435533Y-35588095D01*
D10*
D11*
X286095057Y-84907142D02*
X286280771Y-84969047D01*
X286342676Y-85030952D01*
X286404580Y-85154761D01*
X286404580Y-85340476D01*
X286342676Y-85464285D01*
X286280771Y-85526190D01*
X286156961Y-85588095D01*
X285661723Y-85588095D01*
X285661723Y-84288095D01*
X286095057Y-84288095D01*
X286218866Y-84350000D01*
X286280771Y-84411904D01*
X286342676Y-84535714D01*
X286342676Y-84659523D01*
X286280771Y-84783333D01*
X286218866Y-84845238D01*
X286095057Y-84907142D01*
X285661723Y-84907142D01*
D10*
D11*
X286404580Y-135464285D02*
X286342676Y-135526190D01*
X286156961Y-135588095D01*
X286033152Y-135588095D01*
X285847438Y-135526190D01*
X285723628Y-135402380D01*
X285661723Y-135278571D01*
X285599819Y-135030952D01*
X285599819Y-134845238D01*
X285661723Y-134597619D01*
X285723628Y-134473809D01*
X285847438Y-134350000D01*
X286033152Y-134288095D01*
X286156961Y-134288095D01*
X286342676Y-134350000D01*
X286404580Y-134411904D01*
D10*
D11*
X285661723Y-185588095D02*
X285661723Y-184288095D01*
X285971247Y-184288095D01*
X286156961Y-184350000D01*
X286280771Y-184473809D01*
X286342676Y-184597619D01*
X286404580Y-184845238D01*
X286404580Y-185030952D01*
X286342676Y-185278571D01*
X286280771Y-185402380D01*
X286156961Y-185526190D01*
X285971247Y-185588095D01*
X285661723Y-185588095D01*
D10*
D11*
X200434342Y-193785771D02*
X200434342Y-192285771D01*
X200791485Y-192285771D01*
X201005771Y-192357200D01*
X201148628Y-192500057D01*
X201220057Y-192642914D01*
X201291485Y-192928628D01*
X201291485Y-193142914D01*
X201220057Y-193428628D01*
X201148628Y-193571485D01*
X201005771Y-193714342D01*
X200791485Y-193785771D01*
X200434342Y-193785771D01*
X202577200Y-193785771D02*
X202577200Y-193000057D01*
X202505771Y-192857200D01*
X202362914Y-192785771D01*
X202077200Y-192785771D01*
X201934342Y-192857200D01*
X202577200Y-193714342D02*
X202434342Y-193785771D01*
X202077200Y-193785771D01*
X201934342Y-193714342D01*
X201862914Y-193571485D01*
X201862914Y-193428628D01*
X201934342Y-193285771D01*
X202077200Y-193214342D01*
X202434342Y-193214342D01*
X202577200Y-193142914D01*
X203077200Y-192785771D02*
X203648628Y-192785771D01*
X203291485Y-192285771D02*
X203291485Y-193571485D01*
X203362914Y-193714342D01*
X203505771Y-193785771D01*
X203648628Y-193785771D01*
X204720057Y-193714342D02*
X204577200Y-193785771D01*
X204291485Y-193785771D01*
X204148628Y-193714342D01*
X204077200Y-193571485D01*
X204077200Y-193000057D01*
X204148628Y-192857200D01*
X204291485Y-192785771D01*
X204577200Y-192785771D01*
X204720057Y-192857200D01*
X204791485Y-193000057D01*
X204791485Y-193142914D01*
X204077200Y-193285771D01*
X205434342Y-193642914D02*
X205505771Y-193714342D01*
X205434342Y-193785771D01*
X205362914Y-193714342D01*
X205434342Y-193642914D01*
X205434342Y-193785771D01*
X205434342Y-192857200D02*
X205505771Y-192928628D01*
X205434342Y-193000057D01*
X205362914Y-192928628D01*
X205434342Y-192857200D01*
X205434342Y-193000057D01*
D10*
D11*
X177002200Y-194507200D02*
X285002200Y-194507200D01*
D10*
D11*
X178434342Y-196585771D02*
X178434342Y-195085771D01*
X179291485Y-196585771D02*
X178648628Y-195728628D01*
X179291485Y-195085771D02*
X178434342Y-195942914D01*
X179934342Y-196585771D02*
X179934342Y-195585771D01*
X179934342Y-195085771D02*
X179862914Y-195157200D01*
X179934342Y-195228628D01*
X180005771Y-195157200D01*
X179934342Y-195085771D01*
X179934342Y-195228628D01*
X181505771Y-196442914D02*
X181434342Y-196514342D01*
X181220057Y-196585771D01*
X181077200Y-196585771D01*
X180862914Y-196514342D01*
X180720057Y-196371485D01*
X180648628Y-196228628D01*
X180577200Y-195942914D01*
X180577200Y-195728628D01*
X180648628Y-195442914D01*
X180720057Y-195300057D01*
X180862914Y-195157200D01*
X181077200Y-195085771D01*
X181220057Y-195085771D01*
X181434342Y-195157200D01*
X181505771Y-195228628D01*
X182791485Y-196585771D02*
X182791485Y-195800057D01*
X182720057Y-195657200D01*
X182577200Y-195585771D01*
X182291485Y-195585771D01*
X182148628Y-195657200D01*
X182791485Y-196514342D02*
X182648628Y-196585771D01*
X182291485Y-196585771D01*
X182148628Y-196514342D01*
X182077200Y-196371485D01*
X182077200Y-196228628D01*
X182148628Y-196085771D01*
X182291485Y-196014342D01*
X182648628Y-196014342D01*
X182791485Y-195942914D01*
X184148628Y-196585771D02*
X184148628Y-195085771D01*
X184148628Y-196514342D02*
X184005771Y-196585771D01*
X183720057Y-196585771D01*
X183577200Y-196514342D01*
X183505771Y-196442914D01*
X183434342Y-196300057D01*
X183434342Y-195871485D01*
X183505771Y-195728628D01*
X183577200Y-195657200D01*
X183720057Y-195585771D01*
X184005771Y-195585771D01*
X184148628Y-195657200D01*
X186005771Y-195800057D02*
X186505771Y-195800057D01*
X186720057Y-196585771D02*
X186005771Y-196585771D01*
X186005771Y-195085771D01*
X186720057Y-195085771D01*
X187362914Y-196442914D02*
X187434342Y-196514342D01*
X187362914Y-196585771D01*
X187291485Y-196514342D01*
X187362914Y-196442914D01*
X187362914Y-196585771D01*
X188077200Y-196585771D02*
X188077200Y-195085771D01*
X188434342Y-195085771D01*
X188648628Y-195157200D01*
X188791485Y-195300057D01*
X188862914Y-195442914D01*
X188934342Y-195728628D01*
X188934342Y-195942914D01*
X188862914Y-196228628D01*
X188791485Y-196371485D01*
X188648628Y-196514342D01*
X188434342Y-196585771D01*
X188077200Y-196585771D01*
X189577200Y-196442914D02*
X189648628Y-196514342D01*
X189577200Y-196585771D01*
X189505771Y-196514342D01*
X189577200Y-196442914D01*
X189577200Y-196585771D01*
X190220057Y-196157200D02*
X190934342Y-196157200D01*
X190077200Y-196585771D02*
X190577200Y-195085771D01*
X191077200Y-196585771D01*
X191577200Y-196442914D02*
X191648628Y-196514342D01*
X191577200Y-196585771D01*
X191505771Y-196514342D01*
X191577200Y-196442914D01*
X191577200Y-196585771D01*
X194577200Y-196585771D02*
X194577200Y-195085771D01*
X194720057Y-196014342D02*
X195148628Y-196585771D01*
X195148628Y-195585771D02*
X194577200Y-196157200D01*
X195791485Y-196585771D02*
X195791485Y-195585771D01*
X195791485Y-195085771D02*
X195720057Y-195157200D01*
X195791485Y-195228628D01*
X195862914Y-195157200D01*
X195791485Y-195085771D01*
X195791485Y-195228628D01*
X197148628Y-196514342D02*
X197005771Y-196585771D01*
X196720057Y-196585771D01*
X196577200Y-196514342D01*
X196505771Y-196442914D01*
X196434342Y-196300057D01*
X196434342Y-195871485D01*
X196505771Y-195728628D01*
X196577200Y-195657200D01*
X196720057Y-195585771D01*
X197005771Y-195585771D01*
X197148628Y-195657200D01*
X198434342Y-196585771D02*
X198434342Y-195800057D01*
X198362914Y-195657200D01*
X198220057Y-195585771D01*
X197934342Y-195585771D01*
X197791485Y-195657200D01*
X198434342Y-196514342D02*
X198291485Y-196585771D01*
X197934342Y-196585771D01*
X197791485Y-196514342D01*
X197720057Y-196371485D01*
X197720057Y-196228628D01*
X197791485Y-196085771D01*
X197934342Y-196014342D01*
X198291485Y-196014342D01*
X198434342Y-195942914D01*
X199791485Y-196585771D02*
X199791485Y-195085771D01*
X199791485Y-196514342D02*
X199648628Y-196585771D01*
X199362914Y-196585771D01*
X199220057Y-196514342D01*
X199148628Y-196442914D01*
X199077200Y-196300057D01*
X199077200Y-195871485D01*
X199148628Y-195728628D01*
X199220057Y-195657200D01*
X199362914Y-195585771D01*
X199648628Y-195585771D01*
X199791485Y-195657200D01*
X202291485Y-195085771D02*
X202005771Y-195085771D01*
X201862914Y-195157200D01*
X201791485Y-195228628D01*
X201648628Y-195442914D01*
X201577200Y-195728628D01*
X201577200Y-196300057D01*
X201648628Y-196442914D01*
X201720057Y-196514342D01*
X201862914Y-196585771D01*
X202148628Y-196585771D01*
X202291485Y-196514342D01*
X202362914Y-196442914D01*
X202434342Y-196300057D01*
X202434342Y-195942914D01*
X202362914Y-195800057D01*
X202291485Y-195728628D01*
X202148628Y-195657200D01*
X201862914Y-195657200D01*
X201720057Y-195728628D01*
X201648628Y-195800057D01*
X201577200Y-195942914D01*
X203077200Y-196442914D02*
X203148628Y-196514342D01*
X203077200Y-196585771D01*
X203005771Y-196514342D01*
X203077200Y-196442914D01*
X203077200Y-196585771D01*
X204077200Y-195085771D02*
X204220057Y-195085771D01*
X204362914Y-195157200D01*
X204434342Y-195228628D01*
X204505771Y-195371485D01*
X204577200Y-195657200D01*
X204577200Y-196014342D01*
X204505771Y-196300057D01*
X204434342Y-196442914D01*
X204362914Y-196514342D01*
X204220057Y-196585771D01*
X204077200Y-196585771D01*
X203934342Y-196514342D01*
X203862914Y-196442914D01*
X203791485Y-196300057D01*
X203720057Y-196014342D01*
X203720057Y-195657200D01*
X203791485Y-195371485D01*
X203862914Y-195228628D01*
X203934342Y-195157200D01*
X204077200Y-195085771D01*
X205220057Y-196442914D02*
X205291485Y-196514342D01*
X205220057Y-196585771D01*
X205148628Y-196514342D01*
X205220057Y-196442914D01*
X205220057Y-196585771D01*
X205791485Y-195085771D02*
X206791485Y-195085771D01*
X206148628Y-196585771D01*
X207362914Y-196014342D02*
X208505771Y-196014342D01*
X209005771Y-195585771D02*
X209577200Y-195585771D01*
X209220057Y-196585771D02*
X209220057Y-195300057D01*
X209291485Y-195157200D01*
X209434342Y-195085771D01*
X209577200Y-195085771D01*
X210148628Y-196585771D02*
X210434342Y-196585771D01*
X210577200Y-196514342D01*
X210648628Y-196442914D01*
X210791485Y-196228628D01*
X210862914Y-195942914D01*
X210862914Y-195371485D01*
X210791485Y-195228628D01*
X210720057Y-195157200D01*
X210577200Y-195085771D01*
X210291485Y-195085771D01*
X210148628Y-195157200D01*
X210077200Y-195228628D01*
X210005771Y-195371485D01*
X210005771Y-195728628D01*
X210077200Y-195871485D01*
X210148628Y-195942914D01*
X210291485Y-196014342D01*
X210577200Y-196014342D01*
X210720057Y-195942914D01*
X210791485Y-195871485D01*
X210862914Y-195728628D01*
X212148628Y-196585771D02*
X212148628Y-195800057D01*
X212077200Y-195657200D01*
X211934342Y-195585771D01*
X211648628Y-195585771D01*
X211505771Y-195657200D01*
X212148628Y-196514342D02*
X212005771Y-196585771D01*
X211648628Y-196585771D01*
X211505771Y-196514342D01*
X211434342Y-196371485D01*
X211434342Y-196228628D01*
X211505771Y-196085771D01*
X211648628Y-196014342D01*
X212005771Y-196014342D01*
X212148628Y-195942914D01*
X212791485Y-195228628D02*
X212862914Y-195157200D01*
X213005771Y-195085771D01*
X213362914Y-195085771D01*
X213505771Y-195157200D01*
X213577200Y-195228628D01*
X213648628Y-195371485D01*
X213648628Y-195514342D01*
X213577200Y-195728628D01*
X212720057Y-196585771D01*
X213648628Y-196585771D01*
X214934342Y-196585771D02*
X214934342Y-195085771D01*
X214934342Y-196514342D02*
X214791485Y-196585771D01*
X214505771Y-196585771D01*
X214362914Y-196514342D01*
X214291485Y-196442914D01*
X214220057Y-196300057D01*
X214220057Y-195871485D01*
X214291485Y-195728628D01*
X214362914Y-195657200D01*
X214505771Y-195585771D01*
X214791485Y-195585771D01*
X214934342Y-195657200D01*
X216291485Y-196514342D02*
X216148628Y-196585771D01*
X215862914Y-196585771D01*
X215720057Y-196514342D01*
X215648628Y-196442914D01*
X215577200Y-196300057D01*
X215577200Y-195871485D01*
X215648628Y-195728628D01*
X215720057Y-195657200D01*
X215862914Y-195585771D01*
X216148628Y-195585771D01*
X216291485Y-195657200D01*
X217505771Y-196514342D02*
X217362914Y-196585771D01*
X217077200Y-196585771D01*
X216934342Y-196514342D01*
X216862914Y-196371485D01*
X216862914Y-195800057D01*
X216934342Y-195657200D01*
X217077200Y-195585771D01*
X217362914Y-195585771D01*
X217505771Y-195657200D01*
X217577200Y-195800057D01*
X217577200Y-195942914D01*
X216862914Y-196085771D01*
X218862914Y-196585771D02*
X218862914Y-195085771D01*
X218862914Y-196514342D02*
X218720057Y-196585771D01*
X218434342Y-196585771D01*
X218291485Y-196514342D01*
X218220057Y-196442914D01*
X218148628Y-196300057D01*
X218148628Y-195871485D01*
X218220057Y-195728628D01*
X218291485Y-195657200D01*
X218434342Y-195585771D01*
X218720057Y-195585771D01*
X218862914Y-195657200D01*
X219862914Y-195085771D02*
X220005771Y-195085771D01*
X220148628Y-195157200D01*
X220220057Y-195228628D01*
X220291485Y-195371485D01*
X220362914Y-195657200D01*
X220362914Y-196014342D01*
X220291485Y-196300057D01*
X220220057Y-196442914D01*
X220148628Y-196514342D01*
X220005771Y-196585771D01*
X219862914Y-196585771D01*
X219720057Y-196514342D01*
X219648628Y-196442914D01*
X219577200Y-196300057D01*
X219505771Y-196014342D01*
X219505771Y-195657200D01*
X219577200Y-195371485D01*
X219648628Y-195228628D01*
X219720057Y-195157200D01*
X219862914Y-195085771D01*
X220862914Y-195085771D02*
X221862914Y-195085771D01*
X221220057Y-196585771D01*
X222220057Y-196014342D02*
X222291485Y-195942914D01*
X222434342Y-195871485D01*
X222720057Y-196014342D01*
X222862914Y-195942914D01*
X222934342Y-195871485D01*
X224291485Y-196585771D02*
X223434342Y-196585771D01*
X223862914Y-196585771D02*
X223862914Y-195085771D01*
X223720057Y-195300057D01*
X223577200Y-195442914D01*
X223434342Y-195514342D01*
X225720057Y-196585771D02*
X224862914Y-196585771D01*
X225291485Y-196585771D02*
X225291485Y-195085771D01*
X225148628Y-195300057D01*
X225005771Y-195442914D01*
X224862914Y-195514342D01*
X227005771Y-195085771D02*
X226720057Y-195085771D01*
X226577200Y-195157200D01*
X226505771Y-195228628D01*
X226362914Y-195442914D01*
X226291485Y-195728628D01*
X226291485Y-196300057D01*
X226362914Y-196442914D01*
X226434342Y-196514342D01*
X226577200Y-196585771D01*
X226862914Y-196585771D01*
X227005771Y-196514342D01*
X227077200Y-196442914D01*
X227148628Y-196300057D01*
X227148628Y-195942914D01*
X227077200Y-195800057D01*
X227005771Y-195728628D01*
X226862914Y-195657200D01*
X226577200Y-195657200D01*
X226434342Y-195728628D01*
X226362914Y-195800057D01*
X226291485Y-195942914D01*
X227577199Y-196014342D02*
X227648628Y-195942914D01*
X227791485Y-195871485D01*
X228077199Y-196014342D01*
X228220057Y-195942914D01*
X228291485Y-195871485D01*
X229505771Y-195585771D02*
X229505771Y-196585771D01*
X228862914Y-195585771D02*
X228862914Y-196371485D01*
X228934342Y-196514342D01*
X229077200Y-196585771D01*
X229291485Y-196585771D01*
X229434342Y-196514342D01*
X229505771Y-196442914D01*
X230220057Y-196585771D02*
X230220057Y-195085771D01*
X230220057Y-195657200D02*
X230362914Y-195585771D01*
X230648628Y-195585771D01*
X230791485Y-195657200D01*
X230862914Y-195728628D01*
X230934342Y-195871485D01*
X230934342Y-196300057D01*
X230862914Y-196442914D01*
X230791485Y-196514342D01*
X230648628Y-196585771D01*
X230362914Y-196585771D01*
X230220057Y-196514342D01*
X232220057Y-195585771D02*
X232220057Y-196585771D01*
X231577200Y-195585771D02*
X231577200Y-196371485D01*
X231648628Y-196514342D01*
X231791485Y-196585771D01*
X232005771Y-196585771D01*
X232148628Y-196514342D01*
X232220057Y-196442914D01*
X232934342Y-195585771D02*
X232934342Y-196585771D01*
X232934342Y-195728628D02*
X233005771Y-195657200D01*
X233148628Y-195585771D01*
X233362914Y-195585771D01*
X233505771Y-195657200D01*
X233577200Y-195800057D01*
X233577200Y-196585771D01*
X234077200Y-195585771D02*
X234648628Y-195585771D01*
X234291485Y-195085771D02*
X234291485Y-196371485D01*
X234362914Y-196514342D01*
X234505771Y-196585771D01*
X234648628Y-196585771D01*
X235791485Y-195585771D02*
X235791485Y-196585771D01*
X235148628Y-195585771D02*
X235148628Y-196371485D01*
X235220057Y-196514342D01*
X235362914Y-196585771D01*
X235577200Y-196585771D01*
X235720057Y-196514342D01*
X235791485Y-196442914D01*
X236434342Y-195228628D02*
X236505771Y-195157200D01*
X236648628Y-195085771D01*
X237005771Y-195085771D01*
X237148628Y-195157200D01*
X237220057Y-195228628D01*
X237291485Y-195371485D01*
X237291485Y-195514342D01*
X237220057Y-195728628D01*
X236362914Y-196585771D01*
X237291485Y-196585771D01*
X237862914Y-195228628D02*
X237934342Y-195157200D01*
X238077200Y-195085771D01*
X238434342Y-195085771D01*
X238577200Y-195157200D01*
X238648628Y-195228628D01*
X238720057Y-195371485D01*
X238720057Y-195514342D01*
X238648628Y-195728628D01*
X237791485Y-196585771D01*
X238720057Y-196585771D01*
X239362914Y-196442914D02*
X239434342Y-196514342D01*
X239362914Y-196585771D01*
X239291485Y-196514342D01*
X239362914Y-196442914D01*
X239362914Y-196585771D01*
X240362914Y-195085771D02*
X240505771Y-195085771D01*
X240648628Y-195157200D01*
X240720057Y-195228628D01*
X240791485Y-195371485D01*
X240862914Y-195657200D01*
X240862914Y-196014342D01*
X240791485Y-196300057D01*
X240720057Y-196442914D01*
X240648628Y-196514342D01*
X240505771Y-196585771D01*
X240362914Y-196585771D01*
X240220057Y-196514342D01*
X240148628Y-196442914D01*
X240077200Y-196300057D01*
X240005771Y-196014342D01*
X240005771Y-195657200D01*
X240077200Y-195371485D01*
X240148628Y-195228628D01*
X240220057Y-195157200D01*
X240362914Y-195085771D01*
X242148628Y-195585771D02*
X242148628Y-196585771D01*
X241791485Y-195014342D02*
X241434342Y-196085771D01*
X242362914Y-196085771D01*
X242934342Y-196442914D02*
X243005771Y-196514342D01*
X242934342Y-196585771D01*
X242862914Y-196514342D01*
X242934342Y-196442914D01*
X242934342Y-196585771D01*
X244434342Y-196585771D02*
X243577199Y-196585771D01*
X244005771Y-196585771D02*
X244005771Y-195085771D01*
X243862914Y-195300057D01*
X243720057Y-195442914D01*
X243577199Y-195514342D01*
D10*
D11*
X177002200Y-191507200D02*
X285002200Y-191507200D01*
D10*
D12*
X264411485Y-193785771D02*
X263911485Y-193071485D01*
X263554342Y-193785771D02*
X263554342Y-192285771D01*
X264125771Y-192285771D01*
X264268628Y-192357200D01*
X264340057Y-192428628D01*
X264411485Y-192571485D01*
X264411485Y-192785771D01*
X264340057Y-192928628D01*
X264268628Y-193000057D01*
X264125771Y-193071485D01*
X263554342Y-193071485D01*
X265625771Y-193714342D02*
X265482914Y-193785771D01*
X265197200Y-193785771D01*
X265054342Y-193714342D01*
X264982914Y-193571485D01*
X264982914Y-193000057D01*
X265054342Y-192857200D01*
X265197200Y-192785771D01*
X265482914Y-192785771D01*
X265625771Y-192857200D01*
X265697200Y-193000057D01*
X265697200Y-193142914D01*
X264982914Y-193285771D01*
X266197200Y-192785771D02*
X266554342Y-193785771D01*
X266911485Y-192785771D01*
X267482914Y-193642914D02*
X267554342Y-193714342D01*
X267482914Y-193785771D01*
X267411485Y-193714342D01*
X267482914Y-193642914D01*
X267482914Y-193785771D01*
X267482914Y-192857200D02*
X267554342Y-192928628D01*
X267482914Y-193000057D01*
X267411485Y-192928628D01*
X267482914Y-192857200D01*
X267482914Y-193000057D01*
D10*
D11*
X178362914Y-193714342D02*
X178577200Y-193785771D01*
X178934342Y-193785771D01*
X179077200Y-193714342D01*
X179148628Y-193642914D01*
X179220057Y-193500057D01*
X179220057Y-193357200D01*
X179148628Y-193214342D01*
X179077200Y-193142914D01*
X178934342Y-193071485D01*
X178648628Y-193000057D01*
X178505771Y-192928628D01*
X178434342Y-192857200D01*
X178362914Y-192714342D01*
X178362914Y-192571485D01*
X178434342Y-192428628D01*
X178505771Y-192357200D01*
X178648628Y-192285771D01*
X179005771Y-192285771D01*
X179220057Y-192357200D01*
X179862914Y-193785771D02*
X179862914Y-192785771D01*
X179862914Y-192285771D02*
X179791485Y-192357200D01*
X179862914Y-192428628D01*
X179934342Y-192357200D01*
X179862914Y-192285771D01*
X179862914Y-192428628D01*
X180434342Y-192785771D02*
X181220057Y-192785771D01*
X180434342Y-193785771D01*
X181220057Y-193785771D01*
X182362914Y-193714342D02*
X182220057Y-193785771D01*
X181934342Y-193785771D01*
X181791485Y-193714342D01*
X181720057Y-193571485D01*
X181720057Y-193000057D01*
X181791485Y-192857200D01*
X181934342Y-192785771D01*
X182220057Y-192785771D01*
X182362914Y-192857200D01*
X182434342Y-193000057D01*
X182434342Y-193142914D01*
X181720057Y-193285771D01*
X183077200Y-193642914D02*
X183148628Y-193714342D01*
X183077200Y-193785771D01*
X183005771Y-193714342D01*
X183077200Y-193642914D01*
X183077200Y-193785771D01*
X183077200Y-192857200D02*
X183148628Y-192928628D01*
X183077200Y-193000057D01*
X183005771Y-192928628D01*
X183077200Y-192857200D01*
X183077200Y-193000057D01*
X184862914Y-193357200D02*
X185577200Y-193357200D01*
X184720057Y-193785771D02*
X185220057Y-192285771D01*
X185720057Y-193785771D01*
X186862914Y-192785771D02*
X186862914Y-193785771D01*
X186505771Y-192214342D02*
X186148628Y-193285771D01*
X187077200Y-193285771D01*
D10*
D11*
X263434342Y-196585771D02*
X263434342Y-195085771D01*
X264791485Y-196585771D02*
X264791485Y-195085771D01*
X264791485Y-196514342D02*
X264648628Y-196585771D01*
X264362914Y-196585771D01*
X264220057Y-196514342D01*
X264148628Y-196442914D01*
X264077200Y-196300057D01*
X264077200Y-195871485D01*
X264148628Y-195728628D01*
X264220057Y-195657200D01*
X264362914Y-195585771D01*
X264648628Y-195585771D01*
X264791485Y-195657200D01*
X265505771Y-196442914D02*
X265577200Y-196514342D01*
X265505771Y-196585771D01*
X265434342Y-196514342D01*
X265505771Y-196442914D01*
X265505771Y-196585771D01*
X265505771Y-195657200D02*
X265577200Y-195728628D01*
X265505771Y-195800057D01*
X265434342Y-195728628D01*
X265505771Y-195657200D01*
X265505771Y-195800057D01*
X268148628Y-196585771D02*
X267291485Y-196585771D01*
X267720057Y-196585771D02*
X267720057Y-195085771D01*
X267577200Y-195300057D01*
X267434342Y-195442914D01*
X267291485Y-195514342D01*
X269862914Y-195014342D02*
X268577200Y-196942914D01*
X271148628Y-196585771D02*
X270291485Y-196585771D01*
X270720057Y-196585771D02*
X270720057Y-195085771D01*
X270577200Y-195300057D01*
X270434342Y-195442914D01*
X270291485Y-195514342D01*
D10*
D11*
X177002200Y-187507200D02*
X285002200Y-187507200D01*
D10*
D13*
X178714580Y-188211961D02*
X179857438Y-188211961D01*
X179036009Y-190211961D02*
X179286009Y-188211961D01*
X180274104Y-190211961D02*
X180440771Y-188878628D01*
X180524104Y-188211961D02*
X180416961Y-188307200D01*
X180500295Y-188402438D01*
X180607438Y-188307200D01*
X180524104Y-188211961D01*
X180500295Y-188402438D01*
X181107438Y-188878628D02*
X181869342Y-188878628D01*
X181476485Y-188211961D02*
X181262200Y-189926247D01*
X181333628Y-190116723D01*
X181512200Y-190211961D01*
X181702676Y-190211961D01*
X182655057Y-190211961D02*
X182476485Y-190116723D01*
X182405057Y-189926247D01*
X182619342Y-188211961D01*
X184190771Y-190116723D02*
X183988390Y-190211961D01*
X183607438Y-190211961D01*
X183428866Y-190116723D01*
X183357438Y-189926247D01*
X183452676Y-189164342D01*
X183571723Y-188973866D01*
X183774104Y-188878628D01*
X184155057Y-188878628D01*
X184333628Y-188973866D01*
X184405057Y-189164342D01*
X184381247Y-189354819D01*
X183405057Y-189545295D01*
X185155057Y-190021485D02*
X185238390Y-190116723D01*
X185131247Y-190211961D01*
X185047914Y-190116723D01*
X185155057Y-190021485D01*
X185131247Y-190211961D01*
X185286009Y-188973866D02*
X185369342Y-189069104D01*
X185262200Y-189164342D01*
X185178866Y-189069104D01*
X185286009Y-188973866D01*
X185262200Y-189164342D01*
D10*
D11*
X178934342Y-185600057D02*
X178434342Y-185600057D01*
X178434342Y-186385771D02*
X178434342Y-184885771D01*
X179148628Y-184885771D01*
X179720057Y-186385771D02*
X179720057Y-185385771D01*
X179720057Y-184885771D02*
X179648628Y-184957200D01*
X179720057Y-185028628D01*
X179791485Y-184957200D01*
X179720057Y-184885771D01*
X179720057Y-185028628D01*
X180648628Y-186385771D02*
X180505771Y-186314342D01*
X180434342Y-186171485D01*
X180434342Y-184885771D01*
X181791485Y-186314342D02*
X181648628Y-186385771D01*
X181362914Y-186385771D01*
X181220057Y-186314342D01*
X181148628Y-186171485D01*
X181148628Y-185600057D01*
X181220057Y-185457200D01*
X181362914Y-185385771D01*
X181648628Y-185385771D01*
X181791485Y-185457200D01*
X181862914Y-185600057D01*
X181862914Y-185742914D01*
X181148628Y-185885771D01*
X182505771Y-186242914D02*
X182577200Y-186314342D01*
X182505771Y-186385771D01*
X182434342Y-186314342D01*
X182505771Y-186242914D01*
X182505771Y-186385771D01*
X182505771Y-185457200D02*
X182577200Y-185528628D01*
X182505771Y-185600057D01*
X182434342Y-185528628D01*
X182505771Y-185457200D01*
X182505771Y-185600057D01*
X184148628Y-185385771D02*
X184720057Y-185385771D01*
X184362914Y-184885771D02*
X184362914Y-186171485D01*
X184434342Y-186314342D01*
X184577200Y-186385771D01*
X184720057Y-186385771D01*
X185220057Y-185385771D02*
X185220057Y-186885771D01*
X185220057Y-185457200D02*
X185362914Y-185385771D01*
X185648628Y-185385771D01*
X185791485Y-185457200D01*
X185862914Y-185528628D01*
X185934342Y-185671485D01*
X185934342Y-186100057D01*
X185862914Y-186242914D01*
X185791485Y-186314342D01*
X185648628Y-186385771D01*
X185362914Y-186385771D01*
X185220057Y-186314342D01*
X187220057Y-185385771D02*
X187220057Y-186385771D01*
X186862914Y-184814342D02*
X186505771Y-185885771D01*
X187434342Y-185885771D01*
X188291485Y-184885771D02*
X188434342Y-184885771D01*
X188577200Y-184957200D01*
X188648628Y-185028628D01*
X188720057Y-185171485D01*
X188791485Y-185457200D01*
X188791485Y-185814342D01*
X188720057Y-186100057D01*
X188648628Y-186242914D01*
X188577200Y-186314342D01*
X188434342Y-186385771D01*
X188291485Y-186385771D01*
X188148628Y-186314342D01*
X188077200Y-186242914D01*
X188005771Y-186100057D01*
X187934342Y-185814342D01*
X187934342Y-185457200D01*
X188005771Y-185171485D01*
X188077200Y-185028628D01*
X188148628Y-184957200D01*
X188291485Y-184885771D01*
X190148628Y-184885771D02*
X189434342Y-184885771D01*
X189362914Y-185600057D01*
X189434342Y-185528628D01*
X189577200Y-185457200D01*
X189934342Y-185457200D01*
X190077200Y-185528628D01*
X190148628Y-185600057D01*
X190220057Y-185742914D01*
X190220057Y-186100057D01*
X190148628Y-186242914D01*
X190077200Y-186314342D01*
X189934342Y-186385771D01*
X189577200Y-186385771D01*
X189434342Y-186314342D01*
X189362914Y-186242914D01*
X191505771Y-184885771D02*
X191220057Y-184885771D01*
X191077200Y-184957200D01*
X191005771Y-185028628D01*
X190862914Y-185242914D01*
X190791485Y-185528628D01*
X190791485Y-186100057D01*
X190862914Y-186242914D01*
X190934342Y-186314342D01*
X191077200Y-186385771D01*
X191362914Y-186385771D01*
X191505771Y-186314342D01*
X191577200Y-186242914D01*
X191648628Y-186100057D01*
X191648628Y-185742914D01*
X191577200Y-185600057D01*
X191505771Y-185528628D01*
X191362914Y-185457200D01*
X191077200Y-185457200D01*
X190934342Y-185528628D01*
X190862914Y-185600057D01*
X190791485Y-185742914D01*
X192291485Y-186242914D02*
X192362914Y-186314342D01*
X192291485Y-186385771D01*
X192220057Y-186314342D01*
X192291485Y-186242914D01*
X192291485Y-186385771D01*
X193005771Y-186385771D02*
X193005771Y-184885771D01*
X193148628Y-185814342D02*
X193577200Y-186385771D01*
X193577200Y-185385771D02*
X193005771Y-185957200D01*
X194220057Y-186385771D02*
X194220057Y-185385771D01*
X194220057Y-184885771D02*
X194148628Y-184957200D01*
X194220057Y-185028628D01*
X194291485Y-184957200D01*
X194220057Y-184885771D01*
X194220057Y-185028628D01*
X195577200Y-186314342D02*
X195434342Y-186385771D01*
X195148628Y-186385771D01*
X195005771Y-186314342D01*
X194934342Y-186242914D01*
X194862914Y-186100057D01*
X194862914Y-185671485D01*
X194934342Y-185528628D01*
X195005771Y-185457200D01*
X195148628Y-185385771D01*
X195434342Y-185385771D01*
X195577200Y-185457200D01*
X196862914Y-186385771D02*
X196862914Y-185600057D01*
X196791485Y-185457200D01*
X196648628Y-185385771D01*
X196362914Y-185385771D01*
X196220057Y-185457200D01*
X196862914Y-186314342D02*
X196720057Y-186385771D01*
X196362914Y-186385771D01*
X196220057Y-186314342D01*
X196148628Y-186171485D01*
X196148628Y-186028628D01*
X196220057Y-185885771D01*
X196362914Y-185814342D01*
X196720057Y-185814342D01*
X196862914Y-185742914D01*
X198220057Y-186385771D02*
X198220057Y-184885771D01*
X198220057Y-186314342D02*
X198077200Y-186385771D01*
X197791485Y-186385771D01*
X197648628Y-186314342D01*
X197577200Y-186242914D01*
X197505771Y-186100057D01*
X197505771Y-185671485D01*
X197577200Y-185528628D01*
X197648628Y-185457200D01*
X197791485Y-185385771D01*
X198077200Y-185385771D01*
X198220057Y-185457200D01*
X198577200Y-186528628D02*
X199720057Y-186528628D01*
X200077200Y-185385771D02*
X200077200Y-186885771D01*
X200077200Y-185457200D02*
X200220057Y-185385771D01*
X200505771Y-185385771D01*
X200648628Y-185457200D01*
X200720057Y-185528628D01*
X200791485Y-185671485D01*
X200791485Y-186100057D01*
X200720057Y-186242914D01*
X200648628Y-186314342D01*
X200505771Y-186385771D01*
X200220057Y-186385771D01*
X200077200Y-186314342D01*
X202077200Y-186314342D02*
X201934342Y-186385771D01*
X201648628Y-186385771D01*
X201505771Y-186314342D01*
X201434342Y-186242914D01*
X201362914Y-186100057D01*
X201362914Y-185671485D01*
X201434342Y-185528628D01*
X201505771Y-185457200D01*
X201648628Y-185385771D01*
X201934342Y-185385771D01*
X202077200Y-185457200D01*
X202720057Y-186385771D02*
X202720057Y-184885771D01*
X202720057Y-185457200D02*
X202862914Y-185385771D01*
X203148628Y-185385771D01*
X203291485Y-185457200D01*
X203362914Y-185528628D01*
X203434342Y-185671485D01*
X203434342Y-186100057D01*
X203362914Y-186242914D01*
X203291485Y-186314342D01*
X203148628Y-186385771D01*
X202862914Y-186385771D01*
X202720057Y-186314342D01*
D10*
D11*
X177002200Y-181507200D02*
X285002200Y-181507200D01*
D10*
D11*
X178362914Y-183614342D02*
X178577200Y-183685771D01*
X178934342Y-183685771D01*
X179077200Y-183614342D01*
X179148628Y-183542914D01*
X179220057Y-183400057D01*
X179220057Y-183257200D01*
X179148628Y-183114342D01*
X179077200Y-183042914D01*
X178934342Y-182971485D01*
X178648628Y-182900057D01*
X178505771Y-182828628D01*
X178434342Y-182757200D01*
X178362914Y-182614342D01*
X178362914Y-182471485D01*
X178434342Y-182328628D01*
X178505771Y-182257200D01*
X178648628Y-182185771D01*
X179005771Y-182185771D01*
X179220057Y-182257200D01*
X179862914Y-183685771D02*
X179862914Y-182185771D01*
X180505771Y-183685771D02*
X180505771Y-182900057D01*
X180434342Y-182757200D01*
X180291485Y-182685771D01*
X180077200Y-182685771D01*
X179934342Y-182757200D01*
X179862914Y-182828628D01*
X181791485Y-183614342D02*
X181648628Y-183685771D01*
X181362914Y-183685771D01*
X181220057Y-183614342D01*
X181148628Y-183471485D01*
X181148628Y-182900057D01*
X181220057Y-182757200D01*
X181362914Y-182685771D01*
X181648628Y-182685771D01*
X181791485Y-182757200D01*
X181862914Y-182900057D01*
X181862914Y-183042914D01*
X181148628Y-183185771D01*
X183077200Y-183614342D02*
X182934342Y-183685771D01*
X182648628Y-183685771D01*
X182505771Y-183614342D01*
X182434342Y-183471485D01*
X182434342Y-182900057D01*
X182505771Y-182757200D01*
X182648628Y-182685771D01*
X182934342Y-182685771D01*
X183077200Y-182757200D01*
X183148628Y-182900057D01*
X183148628Y-183042914D01*
X182434342Y-183185771D01*
X183577200Y-182685771D02*
X184148628Y-182685771D01*
X183791485Y-182185771D02*
X183791485Y-183471485D01*
X183862914Y-183614342D01*
X184005771Y-183685771D01*
X184148628Y-183685771D01*
X184648628Y-183542914D02*
X184720057Y-183614342D01*
X184648628Y-183685771D01*
X184577200Y-183614342D01*
X184648628Y-183542914D01*
X184648628Y-183685771D01*
X184648628Y-182757200D02*
X184720057Y-182828628D01*
X184648628Y-182900057D01*
X184577200Y-182828628D01*
X184648628Y-182757200D01*
X184648628Y-182900057D01*
D10*
D12*
D10*
D11*
D10*
D11*
D10*
D11*
D10*
D11*
D10*
D11*
X197002200Y-191507200D02*
X197002200Y-194507200D01*
D10*
D11*
X261002200Y-191507200D02*
X261002200Y-198007200D01*
D14*
X281000000Y-149000000D02*
X283000000Y-149000000D01*
X283000000Y-149000000D02*
X283000000Y-147000000D01*
X283000000Y-147000000D02*
X281000000Y-147000000D01*
X281000000Y-147000000D02*
X281000000Y-149000000D01*
G36*
X281000000Y-149000000D02*
G01*
X283000000Y-149000000D01*
X283000000Y-147000000D01*
X281000000Y-147000000D01*
X281000000Y-149000000D01*
G37*
D12*
D15*
X275805000Y-147892857D02*
X275305000Y-147892857D01*
X275305000Y-148678571D02*
X275305000Y-147178571D01*
X276019285Y-147178571D01*
X276590714Y-148535714D02*
X276662142Y-148607142D01*
X276590714Y-148678571D01*
X276519285Y-148607142D01*
X276590714Y-148535714D01*
X276590714Y-148678571D01*
X278162142Y-148535714D02*
X278090714Y-148607142D01*
X277876428Y-148678571D01*
X277733571Y-148678571D01*
X277519285Y-148607142D01*
X277376428Y-148464285D01*
X277305000Y-148321428D01*
X277233571Y-148035714D01*
X277233571Y-147821428D01*
X277305000Y-147535714D01*
X277376428Y-147392857D01*
X277519285Y-147250000D01*
X277733571Y-147178571D01*
X277876428Y-147178571D01*
X278090714Y-147250000D01*
X278162142Y-147321428D01*
X279447857Y-147678571D02*
X279447857Y-148678571D01*
X278805000Y-147678571D02*
X278805000Y-148464285D01*
X278876428Y-148607142D01*
X279019285Y-148678571D01*
X279233571Y-148678571D01*
X279376428Y-148607142D01*
X279447857Y-148535714D01*
D16*
D17*
X192285714Y-111047619D02*
X192333333Y-111000000D01*
X192428571Y-110952380D01*
X192666666Y-110952380D01*
X192761904Y-111000000D01*
X192809523Y-111047619D01*
X192857142Y-111142857D01*
X192857142Y-111238095D01*
X192809523Y-111380952D01*
X192238095Y-111952380D01*
X192857142Y-111952380D01*
X193238095Y-111047619D02*
X193285714Y-111000000D01*
X193380952Y-110952380D01*
X193619047Y-110952380D01*
X193714285Y-111000000D01*
X193761904Y-111047619D01*
X193809523Y-111142857D01*
X193809523Y-111238095D01*
X193761904Y-111380952D01*
X193190476Y-111952380D01*
X193809523Y-111952380D01*
X194142857Y-110952380D02*
X194761904Y-110952380D01*
X194428571Y-111333333D01*
X194571428Y-111333333D01*
X194666666Y-111380952D01*
X194714285Y-111428571D01*
X194761904Y-111523809D01*
X194761904Y-111761904D01*
X194714285Y-111857142D01*
X194666666Y-111904761D01*
X194571428Y-111952380D01*
X194285714Y-111952380D01*
X194190476Y-111904761D01*
X194142857Y-111857142D01*
X195619047Y-110952380D02*
X195428571Y-110952380D01*
X195333333Y-111000000D01*
X195285714Y-111047619D01*
X195190476Y-111190476D01*
X195142857Y-111380952D01*
X195142857Y-111761904D01*
X195190476Y-111857142D01*
X195238095Y-111904761D01*
X195333333Y-111952380D01*
X195523809Y-111952380D01*
X195619047Y-111904761D01*
X195666666Y-111857142D01*
X195714285Y-111761904D01*
X195714285Y-111523809D01*
X195666666Y-111428571D01*
X195619047Y-111380952D01*
X195523809Y-111333333D01*
X195333333Y-111333333D01*
X195238095Y-111380952D01*
X195190476Y-111428571D01*
X195142857Y-111523809D01*
D18*
X210000000Y-88000000D02*
X178000000Y-88000000D01*
X214000000Y-109000000D02*
X214000000Y-92000000D01*
X178000000Y-113000000D02*
X210000000Y-113000000D01*
X174000000Y-92000000D02*
X174000000Y-109000000D01*
X214000000Y-92000000D02*
G75*
G03*
X210000000Y-88000000I-4000000J0D01*
G01*
X178000000Y-88000000D02*
G75*
G03*
X174000000Y-92000000I0J-4000000D01*
G01*
X174000000Y-109000000D02*
G75*
G03*
X178000000Y-113000000I4000000J0D01*
G01*
X210000000Y-113000000D02*
G75*
G03*
X214000000Y-109000000I0J4000000D01*
G01*
D19*
X191000000Y-109550000D03*
X191000000Y-111450000D03*
D20*
X210412500Y-98000000D03*
X208587500Y-98000000D03*
D21*
X209000000Y-100050000D03*
X209000000Y-101950000D03*
X211000000Y-101000000D03*
X193000000Y-97050000D03*
X193000000Y-98950000D03*
X195000000Y-98000000D03*
D22*
X188500000Y-99412500D03*
X188500000Y-97587500D03*
D23*
X208587500Y-96000000D03*
X210412500Y-96000000D03*
X193087500Y-95000000D03*
X194912500Y-95000000D03*
D19*
X197000000Y-97050000D03*
X197000000Y-98950000D03*
D24*
X187095000Y-107475000D03*
X188365000Y-107475000D03*
X189635000Y-107475000D03*
X190905000Y-107475000D03*
X190905000Y-102525000D03*
X189635000Y-102525000D03*
X188365000Y-102525000D03*
X187095000Y-102525000D03*
D25*
X189000000Y-105000000D03*
D26*
X178462500Y-99200000D03*
X178462500Y-99850000D03*
X178462500Y-100500000D03*
X178462500Y-101150000D03*
X178462500Y-101800000D03*
D27*
X175762500Y-97000000D03*
D28*
X175762500Y-97600000D03*
D29*
X178462500Y-98000000D03*
D30*
X175762500Y-101500000D03*
D29*
X178462500Y-103000000D03*
D27*
X175762500Y-104000000D03*
D28*
X175762500Y-103400000D03*
D30*
X175762500Y-99500000D03*
D23*
X182000000Y-98000000D03*
X183825000Y-98000000D03*
D31*
X194000000Y-90700000D03*
D32*
X196500000Y-90700000D03*
X199000000Y-90700000D03*
X201500000Y-90700000D03*
X204000000Y-90700000D03*
D33*
X206500000Y-97950000D03*
X206500000Y-96050000D03*
D34*
X183950000Y-93000000D03*
X182050000Y-93000000D03*
X183000000Y-95000000D03*
D35*
X186500000Y-95525000D03*
X186500000Y-93475000D03*
D36*
X183750000Y-90750000D03*
D34*
X183950000Y-100200000D03*
X182050000Y-100200000D03*
X183000000Y-102200000D03*
D37*
X203500000Y-110000000D03*
D38*
X201000000Y-110000000D03*
D19*
X185000000Y-104050000D03*
X185000000Y-105950000D03*
D39*
X206500000Y-101912500D03*
X206500000Y-100087500D03*
D19*
X194000000Y-105050000D03*
X194000000Y-106950000D03*
D40*
X206000000Y-104775000D03*
D41*
X206000000Y-106225000D03*
D20*
X202412500Y-102750000D03*
X200587500Y-102750000D03*
D34*
X202550000Y-97000000D03*
X204450000Y-97000000D03*
X203500000Y-95000000D03*
D23*
X194087500Y-103000000D03*
X195912500Y-103000000D03*
D42*
X204100000Y-106450000D03*
X204100000Y-105500000D03*
X204100000Y-104550000D03*
X201900000Y-104550000D03*
X201900000Y-105500000D03*
X201900000Y-106450000D03*
D36*
X182500000Y-111000000D03*
D19*
X196000000Y-105050000D03*
X196000000Y-106950000D03*
D22*
X188000000Y-109587500D03*
X188000000Y-111412500D03*
X186500000Y-99412500D03*
X186500000Y-97587500D03*
D43*
X191000000Y-96600000D03*
X191000000Y-99400000D03*
D35*
X188500000Y-95525000D03*
X188500000Y-93475000D03*
D44*
X200950000Y-99000000D03*
X199050000Y-99000000D03*
D42*
X200100000Y-106450000D03*
X200100000Y-105500000D03*
X200100000Y-104550000D03*
X197900000Y-104550000D03*
X197900000Y-105500000D03*
X197900000Y-106450000D03*
D43*
X186350000Y-90750000D03*
X189150000Y-90750000D03*
D39*
X183000000Y-104087500D03*
X183000000Y-105912500D03*
D34*
X199050000Y-97000000D03*
X200950000Y-97000000D03*
X200000000Y-95000000D03*
D45*
X210000000Y-109000000D03*
X178000000Y-109000000D03*
X178000000Y-92000000D03*
X210000000Y-92000000D03*
D46*
X210725000Y-104450000D03*
D47*
X209275000Y-104450000D03*
D48*
X185000000Y-107500000D03*
X194000000Y-108750000D03*
X205986083Y-103372796D03*
X202500000Y-99750000D03*
X212175500Y-96324500D03*
D49*
X181546755Y-107546755D02*
X181546755Y-102953245D01*
X181546755Y-102953245D02*
X181546755Y-100703245D01*
X178462500Y-103000000D02*
X181500000Y-103000000D01*
X181500000Y-103000000D02*
X181546755Y-102953245D01*
X182500000Y-111000000D02*
X182500000Y-108500000D01*
X182500000Y-108500000D02*
X181546755Y-107546755D01*
X181546755Y-100703245D02*
X182050000Y-100200000D01*
X182050000Y-93000000D02*
X182050000Y-89950000D01*
X182050000Y-89950000D02*
X182675000Y-89325000D01*
X182675000Y-89325000D02*
X188825000Y-89325000D01*
X188825000Y-89325000D02*
X189150000Y-89650000D01*
X189150000Y-89650000D02*
X189150000Y-90750000D01*
X186350000Y-90750000D02*
X183750000Y-90750000D01*
X189150000Y-91850000D02*
X189150000Y-90750000D01*
X188500000Y-93475000D02*
X188500000Y-92500000D01*
X188500000Y-92500000D02*
X189150000Y-91850000D01*
X204100000Y-104550000D02*
X204100000Y-104437500D01*
D50*
X199250000Y-102750000D02*
X200587500Y-102750000D01*
D49*
X204100000Y-104437500D02*
X202412500Y-102750000D01*
D50*
X200100000Y-105500000D02*
X199500000Y-105500000D01*
X199500000Y-105500000D02*
X199000000Y-105000000D01*
X199000000Y-105000000D02*
X199000000Y-103000000D01*
X199000000Y-103000000D02*
X199250000Y-102750000D01*
D49*
X183950000Y-92450000D02*
X183750000Y-92250000D01*
X183950000Y-93000000D02*
X183950000Y-92450000D01*
X183750000Y-92250000D02*
X183750000Y-90750000D01*
X183825000Y-98000000D02*
X183825000Y-96675000D01*
X183825000Y-96675000D02*
X183950000Y-96550000D01*
X183950000Y-96550000D02*
X183950000Y-93000000D01*
D50*
X188000000Y-109587500D02*
X185087500Y-109587500D01*
X185087500Y-109587500D02*
X183000000Y-107500000D01*
X183000000Y-107500000D02*
X183000000Y-105912500D01*
D49*
X185000000Y-107500000D02*
X185000000Y-105950000D01*
X185000000Y-107500000D02*
X185025000Y-107475000D01*
X185025000Y-107475000D02*
X187095000Y-107475000D01*
X185000000Y-104050000D02*
X185000000Y-103050000D01*
X185000000Y-103050000D02*
X185525000Y-102525000D01*
X183000000Y-102200000D02*
X183000000Y-104087500D01*
X183825000Y-98000000D02*
X183825000Y-100075000D01*
X182000000Y-98000000D02*
X182000000Y-100150000D01*
X180250000Y-98500000D02*
X180250000Y-95750000D01*
X178462500Y-99200000D02*
X179550000Y-99200000D01*
X179550000Y-99200000D02*
X180250000Y-98500000D01*
X180250000Y-95750000D02*
X181000000Y-95000000D01*
X181000000Y-95000000D02*
X183000000Y-95000000D01*
X191000000Y-96600000D02*
X191900000Y-96600000D01*
X191900000Y-96600000D02*
X192350000Y-97050000D01*
X192350000Y-97050000D02*
X193000000Y-97050000D01*
X185500000Y-102500000D02*
X185000000Y-102000000D01*
X185000000Y-102000000D02*
X185000000Y-94525000D01*
X185000000Y-94525000D02*
X186050000Y-93475000D01*
X185500000Y-102500000D02*
X185525000Y-102525000D01*
X185525000Y-102525000D02*
X187095000Y-102525000D01*
X175762500Y-99500000D02*
X175762500Y-101500000D01*
X175762500Y-99500000D02*
X175762500Y-97000000D01*
X175762500Y-101500000D02*
X175762500Y-104000000D01*
X190905000Y-102525000D02*
X192525000Y-102525000D01*
X192525000Y-102525000D02*
X193000000Y-103000000D01*
X193000000Y-103000000D02*
X194087500Y-103000000D01*
X182500000Y-111000000D02*
X186000000Y-111000000D01*
X186000000Y-111000000D02*
X186412500Y-111412500D01*
X186412500Y-111412500D02*
X188000000Y-111412500D01*
X189550000Y-111450000D02*
X188037500Y-111450000D01*
X178462500Y-101800000D02*
X178462500Y-103000000D01*
X175762500Y-104000000D02*
X177462500Y-104000000D01*
X177462500Y-104000000D02*
X178462500Y-103000000D01*
X175762500Y-97000000D02*
X177462500Y-97000000D01*
X177462500Y-97000000D02*
X178462500Y-98000000D01*
X194000000Y-102912500D02*
X194000000Y-101250000D01*
X201000000Y-110000000D02*
X193500000Y-110000000D01*
X192950000Y-105050000D02*
X194000000Y-105050000D01*
X196000000Y-101250000D02*
X204750000Y-101250000D01*
X195000000Y-100250000D02*
X196000000Y-101250000D01*
X193500000Y-110000000D02*
X192500000Y-109000000D01*
X192500000Y-105500000D02*
X192950000Y-105050000D01*
X204750000Y-101250000D02*
X205412500Y-101912500D01*
X209275000Y-103275000D02*
X209000000Y-103000000D01*
X194000000Y-103087500D02*
X194000000Y-105050000D01*
X205412500Y-101912500D02*
X206500000Y-101912500D01*
X206500000Y-101912500D02*
X208962500Y-101912500D01*
X192500000Y-109000000D02*
X192500000Y-105500000D01*
X194000000Y-101250000D02*
X195000000Y-100250000D01*
X209000000Y-103000000D02*
X209000000Y-101950000D01*
X195000000Y-100250000D02*
X195000000Y-98000000D01*
X209275000Y-104450000D02*
X209275000Y-103275000D01*
D50*
X186500000Y-95525000D02*
X186500000Y-97587500D01*
X197000000Y-98950000D02*
X199000000Y-98950000D01*
X210412500Y-96000000D02*
X211851000Y-96000000D01*
D49*
X199050000Y-97000000D02*
X199050000Y-99000000D01*
X189635000Y-111365000D02*
X189550000Y-111450000D01*
X194000000Y-92750000D02*
X194912500Y-93662500D01*
X199500000Y-100500000D02*
X199050000Y-100050000D01*
X194000000Y-90700000D02*
X194000000Y-92750000D01*
X205986083Y-103372796D02*
X205986083Y-104761083D01*
X189635000Y-107475000D02*
X189635000Y-111365000D01*
X189550000Y-111450000D02*
X191000000Y-111450000D01*
X199050000Y-100050000D02*
X199050000Y-99000000D01*
D50*
X211851000Y-96000000D02*
X212175500Y-96324500D01*
D49*
X197900000Y-106450000D02*
X196500000Y-106450000D01*
X202500000Y-99750000D02*
X201750000Y-100500000D01*
X196500000Y-106450000D02*
X196000000Y-106950000D01*
X204100000Y-104550000D02*
X205775000Y-104550000D01*
X194000000Y-108750000D02*
X194000000Y-106950000D01*
X194912500Y-93662500D02*
X194912500Y-95000000D01*
X201750000Y-100500000D02*
X199500000Y-100500000D01*
X194000000Y-106950000D02*
X196000000Y-106950000D01*
X202500000Y-99750000D02*
X202500000Y-97050000D01*
D50*
X188500000Y-95525000D02*
X188500000Y-97587500D01*
D49*
X195912500Y-104962500D02*
X195912500Y-103000000D01*
X196450000Y-105500000D02*
X196000000Y-105050000D01*
X197900000Y-105500000D02*
X196450000Y-105500000D01*
X198000000Y-95000000D02*
X197000000Y-96000000D01*
X197000000Y-96000000D02*
X197000000Y-97050000D01*
X196700000Y-96750000D02*
X197000000Y-97050000D01*
X192550000Y-99400000D02*
X193000000Y-98950000D01*
X194100000Y-97850000D02*
X194100000Y-97150000D01*
X191000000Y-99400000D02*
X192550000Y-99400000D01*
X193000000Y-98950000D02*
X194100000Y-97850000D01*
X194500000Y-96750000D02*
X196700000Y-96750000D01*
X194100000Y-97150000D02*
X194500000Y-96750000D01*
X200000000Y-95000000D02*
X198000000Y-95000000D01*
D50*
X209000000Y-100050000D02*
X208050000Y-100050000D01*
X206500000Y-97950000D02*
X206500000Y-100087500D01*
X208050000Y-100050000D02*
X208012500Y-100087500D01*
X208012500Y-100087500D02*
X206500000Y-100087500D01*
D49*
X201900000Y-104550000D02*
X200100000Y-104550000D01*
X201900000Y-106450000D02*
X200100000Y-106450000D01*
D50*
X208587500Y-96000000D02*
X204000000Y-91412500D01*
X208587500Y-98000000D02*
X208587500Y-96000000D01*
X188365000Y-101277500D02*
X188365000Y-102525000D01*
X186500000Y-99412500D02*
X188365000Y-101277500D01*
X188500000Y-100000000D02*
X189635000Y-101135000D01*
X189635000Y-101135000D02*
X189635000Y-102525000D01*
X188500000Y-99412500D02*
X188500000Y-100000000D01*
X190500000Y-105000000D02*
X189000000Y-105000000D01*
X187095000Y-102525000D02*
X187095000Y-104595000D01*
X187095000Y-104595000D02*
X187500000Y-105000000D01*
X190905000Y-105405000D02*
X190500000Y-105000000D01*
D49*
X193087500Y-95000000D02*
X191000000Y-95000000D01*
X189475000Y-93475000D02*
X191000000Y-95000000D01*
D50*
X190905000Y-107475000D02*
X190905000Y-105405000D01*
X190905000Y-107475000D02*
X190905000Y-109455000D01*
D49*
X188500000Y-93475000D02*
X189475000Y-93475000D01*
X191000000Y-95000000D02*
X191000000Y-96600000D01*
X186500000Y-93475000D02*
X188500000Y-93475000D01*
D50*
X187500000Y-105000000D02*
X189000000Y-105000000D01*
D49*
X196500000Y-93000000D02*
X196500000Y-90700000D01*
X200950000Y-97000000D02*
X200950000Y-95800000D01*
X200950000Y-95800000D02*
X201750000Y-95000000D01*
X197250000Y-93750000D02*
X196500000Y-93000000D01*
X200950000Y-99000000D02*
X200950000Y-97000000D01*
X200500000Y-93750000D02*
X197250000Y-93750000D01*
X201750000Y-95000000D02*
X200500000Y-93750000D01*
X201750000Y-95000000D02*
X203500000Y-95000000D01*
D50*
X203750000Y-93750000D02*
X201669238Y-93750000D01*
X204450000Y-97000000D02*
X204450000Y-94450000D01*
X204450000Y-94450000D02*
X203750000Y-93750000D01*
X201669238Y-93750000D02*
X199000000Y-91080762D01*
X201500000Y-92000000D02*
X201500000Y-90700000D01*
X202250000Y-92750000D02*
X201500000Y-92000000D01*
X206500000Y-95000000D02*
X204250000Y-92750000D01*
X206500000Y-96050000D02*
X206500000Y-95000000D01*
X204250000Y-92750000D02*
X202250000Y-92750000D01*
D49*
X204100000Y-106450000D02*
X205775000Y-106450000D01*
X204100000Y-107150000D02*
X204100000Y-106450000D01*
X205775000Y-106450000D02*
X206000000Y-106225000D01*
X203500000Y-110000000D02*
X203500000Y-107750000D01*
X203500000Y-107750000D02*
X204100000Y-107150000D01*
X211000000Y-98087500D02*
X210912500Y-98000000D01*
X210725000Y-104450000D02*
X210725000Y-103025000D01*
X211000000Y-101000000D02*
X211000000Y-98087500D01*
X211000000Y-102750000D02*
X211000000Y-101000000D01*
X210725000Y-103025000D02*
X211000000Y-102750000D01*
D50*
X188365000Y-107475000D02*
X188365000Y-109222500D01*
X188365000Y-109222500D02*
X188000000Y-109587500D01*
M02*
