%TF.GenerationSoftware,KiCad,Pcbnew,6.0.7-f9a2dced07~116~ubuntu22.04.1*%
%TF.CreationDate,2022-09-07T10:58:27-03:00*%
%TF.ProjectId,tp4056,74703430-3536-42e6-9b69-6361645f7063,rev?*%
%TF.SameCoordinates,Original*%
%TF.FileFunction,Copper,L2,Bot*%
%TF.FilePolarity,Positive*%
%FSLAX46Y46*%
G04 Gerber Fmt 4.6, Leading zero omitted, Abs format (unit mm)*
G04 Created by KiCad (PCBNEW 6.0.7-f9a2dced07~116~ubuntu22.04.1) date 2022-09-07 10:58:27*
%MOMM*%
%LPD*%
G01*
G04 APERTURE LIST*
G04 Aperture macros list*
%AMRoundRect*
0 Rectangle with rounded corners*
0 $1 Rounding radius*
0 $2 $3 $4 $5 $6 $7 $8 $9 X,Y pos of 4 corners*
0 Add a 4 corners polygon primitive as box body*
4,1,4,$2,$3,$4,$5,$6,$7,$8,$9,$2,$3,0*
0 Add four circle primitives for the rounded corners*
1,1,$1+$1,$2,$3*
1,1,$1+$1,$4,$5*
1,1,$1+$1,$6,$7*
1,1,$1+$1,$8,$9*
0 Add four rect primitives between the rounded corners*
20,1,$1+$1,$2,$3,$4,$5,0*
20,1,$1+$1,$4,$5,$6,$7,0*
20,1,$1+$1,$6,$7,$8,$9,0*
20,1,$1+$1,$8,$9,$2,$3,0*%
G04 Aperture macros list end*
%ADD10C,0.100000*%
%ADD11C,0.150000*%
%ADD12C,0.300000*%
%ADD13C,0.400000*%
%TA.AperFunction,Profile*%
%ADD14C,0.150000*%
%TD*%
%TA.AperFunction,ComponentPad*%
%ADD15O,1.900000X1.200000*%
%TD*%
%TA.AperFunction,ComponentPad*%
%ADD16C,1.450000*%
%TD*%
%TA.AperFunction,ComponentPad*%
%ADD17RoundRect,0.250000X-0.600000X-0.725000X0.600000X-0.725000X0.600000X0.725000X-0.600000X0.725000X0*%
%TD*%
%TA.AperFunction,ComponentPad*%
%ADD18O,1.700000X1.950000*%
%TD*%
%TA.AperFunction,ComponentPad*%
%ADD19R,1.700000X1.700000*%
%TD*%
%TA.AperFunction,ComponentPad*%
%ADD20RoundRect,0.250000X0.600000X0.750000X-0.600000X0.750000X-0.600000X-0.750000X0.600000X-0.750000X0*%
%TD*%
%TA.AperFunction,ComponentPad*%
%ADD21O,1.700000X2.000000*%
%TD*%
%TA.AperFunction,WasherPad*%
%ADD22C,4.000000*%
%TD*%
%TA.AperFunction,ViaPad*%
%ADD23C,1.500000*%
%TD*%
G04 APERTURE END LIST*
D10*
D11*
X177002200Y-166007200D02*
X177002200Y-198007200D01*
X285002200Y-198007200D01*
X285002200Y-166007200D01*
X177002200Y-166007200D01*
D10*
D11*
X10000000Y-10000000D02*
X10000000Y-200007200D01*
X287002200Y-200007200D01*
X287002200Y-10000000D01*
X10000000Y-10000000D01*
D10*
D11*
X12000000Y-12000000D02*
X12000000Y-198007200D01*
X285002200Y-198007200D01*
X285002200Y-12000000D01*
X12000000Y-12000000D01*
D10*
D11*
X60000000Y-12000000D02*
X60000000Y-10000000D01*
D10*
D11*
X110000000Y-12000000D02*
X110000000Y-10000000D01*
D10*
D11*
X160000000Y-12000000D02*
X160000000Y-10000000D01*
D10*
D11*
X210000000Y-12000000D02*
X210000000Y-10000000D01*
D10*
D11*
X260000000Y-12000000D02*
X260000000Y-10000000D01*
D10*
D11*
X36065476Y-11588095D02*
X35322619Y-11588095D01*
X35694047Y-11588095D02*
X35694047Y-10288095D01*
X35570238Y-10473809D01*
X35446428Y-10597619D01*
X35322619Y-10659523D01*
D10*
D11*
X85322619Y-10411904D02*
X85384523Y-10350000D01*
X85508333Y-10288095D01*
X85817857Y-10288095D01*
X85941666Y-10350000D01*
X86003571Y-10411904D01*
X86065476Y-10535714D01*
X86065476Y-10659523D01*
X86003571Y-10845238D01*
X85260714Y-11588095D01*
X86065476Y-11588095D01*
D10*
D11*
X135260714Y-10288095D02*
X136065476Y-10288095D01*
X135632142Y-10783333D01*
X135817857Y-10783333D01*
X135941666Y-10845238D01*
X136003571Y-10907142D01*
X136065476Y-11030952D01*
X136065476Y-11340476D01*
X136003571Y-11464285D01*
X135941666Y-11526190D01*
X135817857Y-11588095D01*
X135446428Y-11588095D01*
X135322619Y-11526190D01*
X135260714Y-11464285D01*
D10*
D11*
X185941666Y-10721428D02*
X185941666Y-11588095D01*
X185632142Y-10226190D02*
X185322619Y-11154761D01*
X186127380Y-11154761D01*
D10*
D11*
X236003571Y-10288095D02*
X235384523Y-10288095D01*
X235322619Y-10907142D01*
X235384523Y-10845238D01*
X235508333Y-10783333D01*
X235817857Y-10783333D01*
X235941666Y-10845238D01*
X236003571Y-10907142D01*
X236065476Y-11030952D01*
X236065476Y-11340476D01*
X236003571Y-11464285D01*
X235941666Y-11526190D01*
X235817857Y-11588095D01*
X235508333Y-11588095D01*
X235384523Y-11526190D01*
X235322619Y-11464285D01*
D10*
D11*
X285941666Y-10288095D02*
X285694047Y-10288095D01*
X285570238Y-10350000D01*
X285508333Y-10411904D01*
X285384523Y-10597619D01*
X285322619Y-10845238D01*
X285322619Y-11340476D01*
X285384523Y-11464285D01*
X285446428Y-11526190D01*
X285570238Y-11588095D01*
X285817857Y-11588095D01*
X285941666Y-11526190D01*
X286003571Y-11464285D01*
X286065476Y-11340476D01*
X286065476Y-11030952D01*
X286003571Y-10907142D01*
X285941666Y-10845238D01*
X285817857Y-10783333D01*
X285570238Y-10783333D01*
X285446428Y-10845238D01*
X285384523Y-10907142D01*
X285322619Y-11030952D01*
D10*
D11*
X60000000Y-198007200D02*
X60000000Y-200007200D01*
D10*
D11*
X110000000Y-198007200D02*
X110000000Y-200007200D01*
D10*
D11*
X160000000Y-198007200D02*
X160000000Y-200007200D01*
D10*
D11*
X210000000Y-198007200D02*
X210000000Y-200007200D01*
D10*
D11*
X260000000Y-198007200D02*
X260000000Y-200007200D01*
D10*
D11*
X36065476Y-199595295D02*
X35322619Y-199595295D01*
X35694047Y-199595295D02*
X35694047Y-198295295D01*
X35570238Y-198481009D01*
X35446428Y-198604819D01*
X35322619Y-198666723D01*
D10*
D11*
X85322619Y-198419104D02*
X85384523Y-198357200D01*
X85508333Y-198295295D01*
X85817857Y-198295295D01*
X85941666Y-198357200D01*
X86003571Y-198419104D01*
X86065476Y-198542914D01*
X86065476Y-198666723D01*
X86003571Y-198852438D01*
X85260714Y-199595295D01*
X86065476Y-199595295D01*
D10*
D11*
X135260714Y-198295295D02*
X136065476Y-198295295D01*
X135632142Y-198790533D01*
X135817857Y-198790533D01*
X135941666Y-198852438D01*
X136003571Y-198914342D01*
X136065476Y-199038152D01*
X136065476Y-199347676D01*
X136003571Y-199471485D01*
X135941666Y-199533390D01*
X135817857Y-199595295D01*
X135446428Y-199595295D01*
X135322619Y-199533390D01*
X135260714Y-199471485D01*
D10*
D11*
X185941666Y-198728628D02*
X185941666Y-199595295D01*
X185632142Y-198233390D02*
X185322619Y-199161961D01*
X186127380Y-199161961D01*
D10*
D11*
X236003571Y-198295295D02*
X235384523Y-198295295D01*
X235322619Y-198914342D01*
X235384523Y-198852438D01*
X235508333Y-198790533D01*
X235817857Y-198790533D01*
X235941666Y-198852438D01*
X236003571Y-198914342D01*
X236065476Y-199038152D01*
X236065476Y-199347676D01*
X236003571Y-199471485D01*
X235941666Y-199533390D01*
X235817857Y-199595295D01*
X235508333Y-199595295D01*
X235384523Y-199533390D01*
X235322619Y-199471485D01*
D10*
D11*
X285941666Y-198295295D02*
X285694047Y-198295295D01*
X285570238Y-198357200D01*
X285508333Y-198419104D01*
X285384523Y-198604819D01*
X285322619Y-198852438D01*
X285322619Y-199347676D01*
X285384523Y-199471485D01*
X285446428Y-199533390D01*
X285570238Y-199595295D01*
X285817857Y-199595295D01*
X285941666Y-199533390D01*
X286003571Y-199471485D01*
X286065476Y-199347676D01*
X286065476Y-199038152D01*
X286003571Y-198914342D01*
X285941666Y-198852438D01*
X285817857Y-198790533D01*
X285570238Y-198790533D01*
X285446428Y-198852438D01*
X285384523Y-198914342D01*
X285322619Y-199038152D01*
D10*
D11*
X10000000Y-60000000D02*
X12000000Y-60000000D01*
D10*
D11*
X10000000Y-110000000D02*
X12000000Y-110000000D01*
D10*
D11*
X10000000Y-160000000D02*
X12000000Y-160000000D01*
D10*
D11*
X10690476Y-35216666D02*
X11309523Y-35216666D01*
X10566666Y-35588095D02*
X11000000Y-34288095D01*
X11433333Y-35588095D01*
D10*
D11*
X11092857Y-84907142D02*
X11278571Y-84969047D01*
X11340476Y-85030952D01*
X11402380Y-85154761D01*
X11402380Y-85340476D01*
X11340476Y-85464285D01*
X11278571Y-85526190D01*
X11154761Y-85588095D01*
X10659523Y-85588095D01*
X10659523Y-84288095D01*
X11092857Y-84288095D01*
X11216666Y-84350000D01*
X11278571Y-84411904D01*
X11340476Y-84535714D01*
X11340476Y-84659523D01*
X11278571Y-84783333D01*
X11216666Y-84845238D01*
X11092857Y-84907142D01*
X10659523Y-84907142D01*
D10*
D11*
X11402380Y-135464285D02*
X11340476Y-135526190D01*
X11154761Y-135588095D01*
X11030952Y-135588095D01*
X10845238Y-135526190D01*
X10721428Y-135402380D01*
X10659523Y-135278571D01*
X10597619Y-135030952D01*
X10597619Y-134845238D01*
X10659523Y-134597619D01*
X10721428Y-134473809D01*
X10845238Y-134350000D01*
X11030952Y-134288095D01*
X11154761Y-134288095D01*
X11340476Y-134350000D01*
X11402380Y-134411904D01*
D10*
D11*
X10659523Y-185588095D02*
X10659523Y-184288095D01*
X10969047Y-184288095D01*
X11154761Y-184350000D01*
X11278571Y-184473809D01*
X11340476Y-184597619D01*
X11402380Y-184845238D01*
X11402380Y-185030952D01*
X11340476Y-185278571D01*
X11278571Y-185402380D01*
X11154761Y-185526190D01*
X10969047Y-185588095D01*
X10659523Y-185588095D01*
D10*
D11*
X287002200Y-60000000D02*
X285002200Y-60000000D01*
D10*
D11*
X287002200Y-110000000D02*
X285002200Y-110000000D01*
D10*
D11*
X287002200Y-160000000D02*
X285002200Y-160000000D01*
D10*
D11*
X285692676Y-35216666D02*
X286311723Y-35216666D01*
X285568866Y-35588095D02*
X286002200Y-34288095D01*
X286435533Y-35588095D01*
D10*
D11*
X286095057Y-84907142D02*
X286280771Y-84969047D01*
X286342676Y-85030952D01*
X286404580Y-85154761D01*
X286404580Y-85340476D01*
X286342676Y-85464285D01*
X286280771Y-85526190D01*
X286156961Y-85588095D01*
X285661723Y-85588095D01*
X285661723Y-84288095D01*
X286095057Y-84288095D01*
X286218866Y-84350000D01*
X286280771Y-84411904D01*
X286342676Y-84535714D01*
X286342676Y-84659523D01*
X286280771Y-84783333D01*
X286218866Y-84845238D01*
X286095057Y-84907142D01*
X285661723Y-84907142D01*
D10*
D11*
X286404580Y-135464285D02*
X286342676Y-135526190D01*
X286156961Y-135588095D01*
X286033152Y-135588095D01*
X285847438Y-135526190D01*
X285723628Y-135402380D01*
X285661723Y-135278571D01*
X285599819Y-135030952D01*
X285599819Y-134845238D01*
X285661723Y-134597619D01*
X285723628Y-134473809D01*
X285847438Y-134350000D01*
X286033152Y-134288095D01*
X286156961Y-134288095D01*
X286342676Y-134350000D01*
X286404580Y-134411904D01*
D10*
D11*
X285661723Y-185588095D02*
X285661723Y-184288095D01*
X285971247Y-184288095D01*
X286156961Y-184350000D01*
X286280771Y-184473809D01*
X286342676Y-184597619D01*
X286404580Y-184845238D01*
X286404580Y-185030952D01*
X286342676Y-185278571D01*
X286280771Y-185402380D01*
X286156961Y-185526190D01*
X285971247Y-185588095D01*
X285661723Y-185588095D01*
D10*
D11*
X200434342Y-193785771D02*
X200434342Y-192285771D01*
X200791485Y-192285771D01*
X201005771Y-192357200D01*
X201148628Y-192500057D01*
X201220057Y-192642914D01*
X201291485Y-192928628D01*
X201291485Y-193142914D01*
X201220057Y-193428628D01*
X201148628Y-193571485D01*
X201005771Y-193714342D01*
X200791485Y-193785771D01*
X200434342Y-193785771D01*
X202577200Y-193785771D02*
X202577200Y-193000057D01*
X202505771Y-192857200D01*
X202362914Y-192785771D01*
X202077200Y-192785771D01*
X201934342Y-192857200D01*
X202577200Y-193714342D02*
X202434342Y-193785771D01*
X202077200Y-193785771D01*
X201934342Y-193714342D01*
X201862914Y-193571485D01*
X201862914Y-193428628D01*
X201934342Y-193285771D01*
X202077200Y-193214342D01*
X202434342Y-193214342D01*
X202577200Y-193142914D01*
X203077200Y-192785771D02*
X203648628Y-192785771D01*
X203291485Y-192285771D02*
X203291485Y-193571485D01*
X203362914Y-193714342D01*
X203505771Y-193785771D01*
X203648628Y-193785771D01*
X204720057Y-193714342D02*
X204577200Y-193785771D01*
X204291485Y-193785771D01*
X204148628Y-193714342D01*
X204077200Y-193571485D01*
X204077200Y-193000057D01*
X204148628Y-192857200D01*
X204291485Y-192785771D01*
X204577200Y-192785771D01*
X204720057Y-192857200D01*
X204791485Y-193000057D01*
X204791485Y-193142914D01*
X204077200Y-193285771D01*
X205434342Y-193642914D02*
X205505771Y-193714342D01*
X205434342Y-193785771D01*
X205362914Y-193714342D01*
X205434342Y-193642914D01*
X205434342Y-193785771D01*
X205434342Y-192857200D02*
X205505771Y-192928628D01*
X205434342Y-193000057D01*
X205362914Y-192928628D01*
X205434342Y-192857200D01*
X205434342Y-193000057D01*
D10*
D11*
X177002200Y-194507200D02*
X285002200Y-194507200D01*
D10*
D11*
X178434342Y-196585771D02*
X178434342Y-195085771D01*
X179291485Y-196585771D02*
X178648628Y-195728628D01*
X179291485Y-195085771D02*
X178434342Y-195942914D01*
X179934342Y-196585771D02*
X179934342Y-195585771D01*
X179934342Y-195085771D02*
X179862914Y-195157200D01*
X179934342Y-195228628D01*
X180005771Y-195157200D01*
X179934342Y-195085771D01*
X179934342Y-195228628D01*
X181505771Y-196442914D02*
X181434342Y-196514342D01*
X181220057Y-196585771D01*
X181077200Y-196585771D01*
X180862914Y-196514342D01*
X180720057Y-196371485D01*
X180648628Y-196228628D01*
X180577200Y-195942914D01*
X180577200Y-195728628D01*
X180648628Y-195442914D01*
X180720057Y-195300057D01*
X180862914Y-195157200D01*
X181077200Y-195085771D01*
X181220057Y-195085771D01*
X181434342Y-195157200D01*
X181505771Y-195228628D01*
X182791485Y-196585771D02*
X182791485Y-195800057D01*
X182720057Y-195657200D01*
X182577200Y-195585771D01*
X182291485Y-195585771D01*
X182148628Y-195657200D01*
X182791485Y-196514342D02*
X182648628Y-196585771D01*
X182291485Y-196585771D01*
X182148628Y-196514342D01*
X182077200Y-196371485D01*
X182077200Y-196228628D01*
X182148628Y-196085771D01*
X182291485Y-196014342D01*
X182648628Y-196014342D01*
X182791485Y-195942914D01*
X184148628Y-196585771D02*
X184148628Y-195085771D01*
X184148628Y-196514342D02*
X184005771Y-196585771D01*
X183720057Y-196585771D01*
X183577200Y-196514342D01*
X183505771Y-196442914D01*
X183434342Y-196300057D01*
X183434342Y-195871485D01*
X183505771Y-195728628D01*
X183577200Y-195657200D01*
X183720057Y-195585771D01*
X184005771Y-195585771D01*
X184148628Y-195657200D01*
X186005771Y-195800057D02*
X186505771Y-195800057D01*
X186720057Y-196585771D02*
X186005771Y-196585771D01*
X186005771Y-195085771D01*
X186720057Y-195085771D01*
X187362914Y-196442914D02*
X187434342Y-196514342D01*
X187362914Y-196585771D01*
X187291485Y-196514342D01*
X187362914Y-196442914D01*
X187362914Y-196585771D01*
X188077200Y-196585771D02*
X188077200Y-195085771D01*
X188434342Y-195085771D01*
X188648628Y-195157200D01*
X188791485Y-195300057D01*
X188862914Y-195442914D01*
X188934342Y-195728628D01*
X188934342Y-195942914D01*
X188862914Y-196228628D01*
X188791485Y-196371485D01*
X188648628Y-196514342D01*
X188434342Y-196585771D01*
X188077200Y-196585771D01*
X189577200Y-196442914D02*
X189648628Y-196514342D01*
X189577200Y-196585771D01*
X189505771Y-196514342D01*
X189577200Y-196442914D01*
X189577200Y-196585771D01*
X190220057Y-196157200D02*
X190934342Y-196157200D01*
X190077200Y-196585771D02*
X190577200Y-195085771D01*
X191077200Y-196585771D01*
X191577200Y-196442914D02*
X191648628Y-196514342D01*
X191577200Y-196585771D01*
X191505771Y-196514342D01*
X191577200Y-196442914D01*
X191577200Y-196585771D01*
X194577200Y-196585771D02*
X194577200Y-195085771D01*
X194720057Y-196014342D02*
X195148628Y-196585771D01*
X195148628Y-195585771D02*
X194577200Y-196157200D01*
X195791485Y-196585771D02*
X195791485Y-195585771D01*
X195791485Y-195085771D02*
X195720057Y-195157200D01*
X195791485Y-195228628D01*
X195862914Y-195157200D01*
X195791485Y-195085771D01*
X195791485Y-195228628D01*
X197148628Y-196514342D02*
X197005771Y-196585771D01*
X196720057Y-196585771D01*
X196577200Y-196514342D01*
X196505771Y-196442914D01*
X196434342Y-196300057D01*
X196434342Y-195871485D01*
X196505771Y-195728628D01*
X196577200Y-195657200D01*
X196720057Y-195585771D01*
X197005771Y-195585771D01*
X197148628Y-195657200D01*
X198434342Y-196585771D02*
X198434342Y-195800057D01*
X198362914Y-195657200D01*
X198220057Y-195585771D01*
X197934342Y-195585771D01*
X197791485Y-195657200D01*
X198434342Y-196514342D02*
X198291485Y-196585771D01*
X197934342Y-196585771D01*
X197791485Y-196514342D01*
X197720057Y-196371485D01*
X197720057Y-196228628D01*
X197791485Y-196085771D01*
X197934342Y-196014342D01*
X198291485Y-196014342D01*
X198434342Y-195942914D01*
X199791485Y-196585771D02*
X199791485Y-195085771D01*
X199791485Y-196514342D02*
X199648628Y-196585771D01*
X199362914Y-196585771D01*
X199220057Y-196514342D01*
X199148628Y-196442914D01*
X199077200Y-196300057D01*
X199077200Y-195871485D01*
X199148628Y-195728628D01*
X199220057Y-195657200D01*
X199362914Y-195585771D01*
X199648628Y-195585771D01*
X199791485Y-195657200D01*
X202291485Y-195085771D02*
X202005771Y-195085771D01*
X201862914Y-195157200D01*
X201791485Y-195228628D01*
X201648628Y-195442914D01*
X201577200Y-195728628D01*
X201577200Y-196300057D01*
X201648628Y-196442914D01*
X201720057Y-196514342D01*
X201862914Y-196585771D01*
X202148628Y-196585771D01*
X202291485Y-196514342D01*
X202362914Y-196442914D01*
X202434342Y-196300057D01*
X202434342Y-195942914D01*
X202362914Y-195800057D01*
X202291485Y-195728628D01*
X202148628Y-195657200D01*
X201862914Y-195657200D01*
X201720057Y-195728628D01*
X201648628Y-195800057D01*
X201577200Y-195942914D01*
X203077200Y-196442914D02*
X203148628Y-196514342D01*
X203077200Y-196585771D01*
X203005771Y-196514342D01*
X203077200Y-196442914D01*
X203077200Y-196585771D01*
X204077200Y-195085771D02*
X204220057Y-195085771D01*
X204362914Y-195157200D01*
X204434342Y-195228628D01*
X204505771Y-195371485D01*
X204577200Y-195657200D01*
X204577200Y-196014342D01*
X204505771Y-196300057D01*
X204434342Y-196442914D01*
X204362914Y-196514342D01*
X204220057Y-196585771D01*
X204077200Y-196585771D01*
X203934342Y-196514342D01*
X203862914Y-196442914D01*
X203791485Y-196300057D01*
X203720057Y-196014342D01*
X203720057Y-195657200D01*
X203791485Y-195371485D01*
X203862914Y-195228628D01*
X203934342Y-195157200D01*
X204077200Y-195085771D01*
X205220057Y-196442914D02*
X205291485Y-196514342D01*
X205220057Y-196585771D01*
X205148628Y-196514342D01*
X205220057Y-196442914D01*
X205220057Y-196585771D01*
X205791485Y-195085771D02*
X206791485Y-195085771D01*
X206148628Y-196585771D01*
X207362914Y-196014342D02*
X208505771Y-196014342D01*
X209005771Y-195585771D02*
X209577200Y-195585771D01*
X209220057Y-196585771D02*
X209220057Y-195300057D01*
X209291485Y-195157200D01*
X209434342Y-195085771D01*
X209577200Y-195085771D01*
X210148628Y-196585771D02*
X210434342Y-196585771D01*
X210577200Y-196514342D01*
X210648628Y-196442914D01*
X210791485Y-196228628D01*
X210862914Y-195942914D01*
X210862914Y-195371485D01*
X210791485Y-195228628D01*
X210720057Y-195157200D01*
X210577200Y-195085771D01*
X210291485Y-195085771D01*
X210148628Y-195157200D01*
X210077200Y-195228628D01*
X210005771Y-195371485D01*
X210005771Y-195728628D01*
X210077200Y-195871485D01*
X210148628Y-195942914D01*
X210291485Y-196014342D01*
X210577200Y-196014342D01*
X210720057Y-195942914D01*
X210791485Y-195871485D01*
X210862914Y-195728628D01*
X212148628Y-196585771D02*
X212148628Y-195800057D01*
X212077200Y-195657200D01*
X211934342Y-195585771D01*
X211648628Y-195585771D01*
X211505771Y-195657200D01*
X212148628Y-196514342D02*
X212005771Y-196585771D01*
X211648628Y-196585771D01*
X211505771Y-196514342D01*
X211434342Y-196371485D01*
X211434342Y-196228628D01*
X211505771Y-196085771D01*
X211648628Y-196014342D01*
X212005771Y-196014342D01*
X212148628Y-195942914D01*
X212791485Y-195228628D02*
X212862914Y-195157200D01*
X213005771Y-195085771D01*
X213362914Y-195085771D01*
X213505771Y-195157200D01*
X213577200Y-195228628D01*
X213648628Y-195371485D01*
X213648628Y-195514342D01*
X213577200Y-195728628D01*
X212720057Y-196585771D01*
X213648628Y-196585771D01*
X214934342Y-196585771D02*
X214934342Y-195085771D01*
X214934342Y-196514342D02*
X214791485Y-196585771D01*
X214505771Y-196585771D01*
X214362914Y-196514342D01*
X214291485Y-196442914D01*
X214220057Y-196300057D01*
X214220057Y-195871485D01*
X214291485Y-195728628D01*
X214362914Y-195657200D01*
X214505771Y-195585771D01*
X214791485Y-195585771D01*
X214934342Y-195657200D01*
X216291485Y-196514342D02*
X216148628Y-196585771D01*
X215862914Y-196585771D01*
X215720057Y-196514342D01*
X215648628Y-196442914D01*
X215577200Y-196300057D01*
X215577200Y-195871485D01*
X215648628Y-195728628D01*
X215720057Y-195657200D01*
X215862914Y-195585771D01*
X216148628Y-195585771D01*
X216291485Y-195657200D01*
X217505771Y-196514342D02*
X217362914Y-196585771D01*
X217077200Y-196585771D01*
X216934342Y-196514342D01*
X216862914Y-196371485D01*
X216862914Y-195800057D01*
X216934342Y-195657200D01*
X217077200Y-195585771D01*
X217362914Y-195585771D01*
X217505771Y-195657200D01*
X217577200Y-195800057D01*
X217577200Y-195942914D01*
X216862914Y-196085771D01*
X218862914Y-196585771D02*
X218862914Y-195085771D01*
X218862914Y-196514342D02*
X218720057Y-196585771D01*
X218434342Y-196585771D01*
X218291485Y-196514342D01*
X218220057Y-196442914D01*
X218148628Y-196300057D01*
X218148628Y-195871485D01*
X218220057Y-195728628D01*
X218291485Y-195657200D01*
X218434342Y-195585771D01*
X218720057Y-195585771D01*
X218862914Y-195657200D01*
X219862914Y-195085771D02*
X220005771Y-195085771D01*
X220148628Y-195157200D01*
X220220057Y-195228628D01*
X220291485Y-195371485D01*
X220362914Y-195657200D01*
X220362914Y-196014342D01*
X220291485Y-196300057D01*
X220220057Y-196442914D01*
X220148628Y-196514342D01*
X220005771Y-196585771D01*
X219862914Y-196585771D01*
X219720057Y-196514342D01*
X219648628Y-196442914D01*
X219577200Y-196300057D01*
X219505771Y-196014342D01*
X219505771Y-195657200D01*
X219577200Y-195371485D01*
X219648628Y-195228628D01*
X219720057Y-195157200D01*
X219862914Y-195085771D01*
X220862914Y-195085771D02*
X221862914Y-195085771D01*
X221220057Y-196585771D01*
X222220057Y-196014342D02*
X222291485Y-195942914D01*
X222434342Y-195871485D01*
X222720057Y-196014342D01*
X222862914Y-195942914D01*
X222934342Y-195871485D01*
X224291485Y-196585771D02*
X223434342Y-196585771D01*
X223862914Y-196585771D02*
X223862914Y-195085771D01*
X223720057Y-195300057D01*
X223577200Y-195442914D01*
X223434342Y-195514342D01*
X225720057Y-196585771D02*
X224862914Y-196585771D01*
X225291485Y-196585771D02*
X225291485Y-195085771D01*
X225148628Y-195300057D01*
X225005771Y-195442914D01*
X224862914Y-195514342D01*
X227005771Y-195085771D02*
X226720057Y-195085771D01*
X226577200Y-195157200D01*
X226505771Y-195228628D01*
X226362914Y-195442914D01*
X226291485Y-195728628D01*
X226291485Y-196300057D01*
X226362914Y-196442914D01*
X226434342Y-196514342D01*
X226577200Y-196585771D01*
X226862914Y-196585771D01*
X227005771Y-196514342D01*
X227077200Y-196442914D01*
X227148628Y-196300057D01*
X227148628Y-195942914D01*
X227077200Y-195800057D01*
X227005771Y-195728628D01*
X226862914Y-195657200D01*
X226577200Y-195657200D01*
X226434342Y-195728628D01*
X226362914Y-195800057D01*
X226291485Y-195942914D01*
X227577199Y-196014342D02*
X227648628Y-195942914D01*
X227791485Y-195871485D01*
X228077199Y-196014342D01*
X228220057Y-195942914D01*
X228291485Y-195871485D01*
X229505771Y-195585771D02*
X229505771Y-196585771D01*
X228862914Y-195585771D02*
X228862914Y-196371485D01*
X228934342Y-196514342D01*
X229077200Y-196585771D01*
X229291485Y-196585771D01*
X229434342Y-196514342D01*
X229505771Y-196442914D01*
X230220057Y-196585771D02*
X230220057Y-195085771D01*
X230220057Y-195657200D02*
X230362914Y-195585771D01*
X230648628Y-195585771D01*
X230791485Y-195657200D01*
X230862914Y-195728628D01*
X230934342Y-195871485D01*
X230934342Y-196300057D01*
X230862914Y-196442914D01*
X230791485Y-196514342D01*
X230648628Y-196585771D01*
X230362914Y-196585771D01*
X230220057Y-196514342D01*
X232220057Y-195585771D02*
X232220057Y-196585771D01*
X231577200Y-195585771D02*
X231577200Y-196371485D01*
X231648628Y-196514342D01*
X231791485Y-196585771D01*
X232005771Y-196585771D01*
X232148628Y-196514342D01*
X232220057Y-196442914D01*
X232934342Y-195585771D02*
X232934342Y-196585771D01*
X232934342Y-195728628D02*
X233005771Y-195657200D01*
X233148628Y-195585771D01*
X233362914Y-195585771D01*
X233505771Y-195657200D01*
X233577200Y-195800057D01*
X233577200Y-196585771D01*
X234077200Y-195585771D02*
X234648628Y-195585771D01*
X234291485Y-195085771D02*
X234291485Y-196371485D01*
X234362914Y-196514342D01*
X234505771Y-196585771D01*
X234648628Y-196585771D01*
X235791485Y-195585771D02*
X235791485Y-196585771D01*
X235148628Y-195585771D02*
X235148628Y-196371485D01*
X235220057Y-196514342D01*
X235362914Y-196585771D01*
X235577200Y-196585771D01*
X235720057Y-196514342D01*
X235791485Y-196442914D01*
X236434342Y-195228628D02*
X236505771Y-195157200D01*
X236648628Y-195085771D01*
X237005771Y-195085771D01*
X237148628Y-195157200D01*
X237220057Y-195228628D01*
X237291485Y-195371485D01*
X237291485Y-195514342D01*
X237220057Y-195728628D01*
X236362914Y-196585771D01*
X237291485Y-196585771D01*
X237862914Y-195228628D02*
X237934342Y-195157200D01*
X238077200Y-195085771D01*
X238434342Y-195085771D01*
X238577200Y-195157200D01*
X238648628Y-195228628D01*
X238720057Y-195371485D01*
X238720057Y-195514342D01*
X238648628Y-195728628D01*
X237791485Y-196585771D01*
X238720057Y-196585771D01*
X239362914Y-196442914D02*
X239434342Y-196514342D01*
X239362914Y-196585771D01*
X239291485Y-196514342D01*
X239362914Y-196442914D01*
X239362914Y-196585771D01*
X240362914Y-195085771D02*
X240505771Y-195085771D01*
X240648628Y-195157200D01*
X240720057Y-195228628D01*
X240791485Y-195371485D01*
X240862914Y-195657200D01*
X240862914Y-196014342D01*
X240791485Y-196300057D01*
X240720057Y-196442914D01*
X240648628Y-196514342D01*
X240505771Y-196585771D01*
X240362914Y-196585771D01*
X240220057Y-196514342D01*
X240148628Y-196442914D01*
X240077200Y-196300057D01*
X240005771Y-196014342D01*
X240005771Y-195657200D01*
X240077200Y-195371485D01*
X240148628Y-195228628D01*
X240220057Y-195157200D01*
X240362914Y-195085771D01*
X242148628Y-195585771D02*
X242148628Y-196585771D01*
X241791485Y-195014342D02*
X241434342Y-196085771D01*
X242362914Y-196085771D01*
X242934342Y-196442914D02*
X243005771Y-196514342D01*
X242934342Y-196585771D01*
X242862914Y-196514342D01*
X242934342Y-196442914D01*
X242934342Y-196585771D01*
X244434342Y-196585771D02*
X243577199Y-196585771D01*
X244005771Y-196585771D02*
X244005771Y-195085771D01*
X243862914Y-195300057D01*
X243720057Y-195442914D01*
X243577199Y-195514342D01*
D10*
D11*
X177002200Y-191507200D02*
X285002200Y-191507200D01*
D10*
D12*
X264411485Y-193785771D02*
X263911485Y-193071485D01*
X263554342Y-193785771D02*
X263554342Y-192285771D01*
X264125771Y-192285771D01*
X264268628Y-192357200D01*
X264340057Y-192428628D01*
X264411485Y-192571485D01*
X264411485Y-192785771D01*
X264340057Y-192928628D01*
X264268628Y-193000057D01*
X264125771Y-193071485D01*
X263554342Y-193071485D01*
X265625771Y-193714342D02*
X265482914Y-193785771D01*
X265197200Y-193785771D01*
X265054342Y-193714342D01*
X264982914Y-193571485D01*
X264982914Y-193000057D01*
X265054342Y-192857200D01*
X265197200Y-192785771D01*
X265482914Y-192785771D01*
X265625771Y-192857200D01*
X265697200Y-193000057D01*
X265697200Y-193142914D01*
X264982914Y-193285771D01*
X266197200Y-192785771D02*
X266554342Y-193785771D01*
X266911485Y-192785771D01*
X267482914Y-193642914D02*
X267554342Y-193714342D01*
X267482914Y-193785771D01*
X267411485Y-193714342D01*
X267482914Y-193642914D01*
X267482914Y-193785771D01*
X267482914Y-192857200D02*
X267554342Y-192928628D01*
X267482914Y-193000057D01*
X267411485Y-192928628D01*
X267482914Y-192857200D01*
X267482914Y-193000057D01*
D10*
D11*
X178362914Y-193714342D02*
X178577200Y-193785771D01*
X178934342Y-193785771D01*
X179077200Y-193714342D01*
X179148628Y-193642914D01*
X179220057Y-193500057D01*
X179220057Y-193357200D01*
X179148628Y-193214342D01*
X179077200Y-193142914D01*
X178934342Y-193071485D01*
X178648628Y-193000057D01*
X178505771Y-192928628D01*
X178434342Y-192857200D01*
X178362914Y-192714342D01*
X178362914Y-192571485D01*
X178434342Y-192428628D01*
X178505771Y-192357200D01*
X178648628Y-192285771D01*
X179005771Y-192285771D01*
X179220057Y-192357200D01*
X179862914Y-193785771D02*
X179862914Y-192785771D01*
X179862914Y-192285771D02*
X179791485Y-192357200D01*
X179862914Y-192428628D01*
X179934342Y-192357200D01*
X179862914Y-192285771D01*
X179862914Y-192428628D01*
X180434342Y-192785771D02*
X181220057Y-192785771D01*
X180434342Y-193785771D01*
X181220057Y-193785771D01*
X182362914Y-193714342D02*
X182220057Y-193785771D01*
X181934342Y-193785771D01*
X181791485Y-193714342D01*
X181720057Y-193571485D01*
X181720057Y-193000057D01*
X181791485Y-192857200D01*
X181934342Y-192785771D01*
X182220057Y-192785771D01*
X182362914Y-192857200D01*
X182434342Y-193000057D01*
X182434342Y-193142914D01*
X181720057Y-193285771D01*
X183077200Y-193642914D02*
X183148628Y-193714342D01*
X183077200Y-193785771D01*
X183005771Y-193714342D01*
X183077200Y-193642914D01*
X183077200Y-193785771D01*
X183077200Y-192857200D02*
X183148628Y-192928628D01*
X183077200Y-193000057D01*
X183005771Y-192928628D01*
X183077200Y-192857200D01*
X183077200Y-193000057D01*
X184862914Y-193357200D02*
X185577200Y-193357200D01*
X184720057Y-193785771D02*
X185220057Y-192285771D01*
X185720057Y-193785771D01*
X186862914Y-192785771D02*
X186862914Y-193785771D01*
X186505771Y-192214342D02*
X186148628Y-193285771D01*
X187077200Y-193285771D01*
D10*
D11*
X263434342Y-196585771D02*
X263434342Y-195085771D01*
X264791485Y-196585771D02*
X264791485Y-195085771D01*
X264791485Y-196514342D02*
X264648628Y-196585771D01*
X264362914Y-196585771D01*
X264220057Y-196514342D01*
X264148628Y-196442914D01*
X264077200Y-196300057D01*
X264077200Y-195871485D01*
X264148628Y-195728628D01*
X264220057Y-195657200D01*
X264362914Y-195585771D01*
X264648628Y-195585771D01*
X264791485Y-195657200D01*
X265505771Y-196442914D02*
X265577200Y-196514342D01*
X265505771Y-196585771D01*
X265434342Y-196514342D01*
X265505771Y-196442914D01*
X265505771Y-196585771D01*
X265505771Y-195657200D02*
X265577200Y-195728628D01*
X265505771Y-195800057D01*
X265434342Y-195728628D01*
X265505771Y-195657200D01*
X265505771Y-195800057D01*
X268148628Y-196585771D02*
X267291485Y-196585771D01*
X267720057Y-196585771D02*
X267720057Y-195085771D01*
X267577200Y-195300057D01*
X267434342Y-195442914D01*
X267291485Y-195514342D01*
X269862914Y-195014342D02*
X268577200Y-196942914D01*
X271148628Y-196585771D02*
X270291485Y-196585771D01*
X270720057Y-196585771D02*
X270720057Y-195085771D01*
X270577200Y-195300057D01*
X270434342Y-195442914D01*
X270291485Y-195514342D01*
D10*
D11*
X177002200Y-187507200D02*
X285002200Y-187507200D01*
D10*
D13*
X178714580Y-188211961D02*
X179857438Y-188211961D01*
X179036009Y-190211961D02*
X179286009Y-188211961D01*
X180274104Y-190211961D02*
X180440771Y-188878628D01*
X180524104Y-188211961D02*
X180416961Y-188307200D01*
X180500295Y-188402438D01*
X180607438Y-188307200D01*
X180524104Y-188211961D01*
X180500295Y-188402438D01*
X181107438Y-188878628D02*
X181869342Y-188878628D01*
X181476485Y-188211961D02*
X181262200Y-189926247D01*
X181333628Y-190116723D01*
X181512200Y-190211961D01*
X181702676Y-190211961D01*
X182655057Y-190211961D02*
X182476485Y-190116723D01*
X182405057Y-189926247D01*
X182619342Y-188211961D01*
X184190771Y-190116723D02*
X183988390Y-190211961D01*
X183607438Y-190211961D01*
X183428866Y-190116723D01*
X183357438Y-189926247D01*
X183452676Y-189164342D01*
X183571723Y-188973866D01*
X183774104Y-188878628D01*
X184155057Y-188878628D01*
X184333628Y-188973866D01*
X184405057Y-189164342D01*
X184381247Y-189354819D01*
X183405057Y-189545295D01*
X185155057Y-190021485D02*
X185238390Y-190116723D01*
X185131247Y-190211961D01*
X185047914Y-190116723D01*
X185155057Y-190021485D01*
X185131247Y-190211961D01*
X185286009Y-188973866D02*
X185369342Y-189069104D01*
X185262200Y-189164342D01*
X185178866Y-189069104D01*
X185286009Y-188973866D01*
X185262200Y-189164342D01*
D10*
D11*
X178934342Y-185600057D02*
X178434342Y-185600057D01*
X178434342Y-186385771D02*
X178434342Y-184885771D01*
X179148628Y-184885771D01*
X179720057Y-186385771D02*
X179720057Y-185385771D01*
X179720057Y-184885771D02*
X179648628Y-184957200D01*
X179720057Y-185028628D01*
X179791485Y-184957200D01*
X179720057Y-184885771D01*
X179720057Y-185028628D01*
X180648628Y-186385771D02*
X180505771Y-186314342D01*
X180434342Y-186171485D01*
X180434342Y-184885771D01*
X181791485Y-186314342D02*
X181648628Y-186385771D01*
X181362914Y-186385771D01*
X181220057Y-186314342D01*
X181148628Y-186171485D01*
X181148628Y-185600057D01*
X181220057Y-185457200D01*
X181362914Y-185385771D01*
X181648628Y-185385771D01*
X181791485Y-185457200D01*
X181862914Y-185600057D01*
X181862914Y-185742914D01*
X181148628Y-185885771D01*
X182505771Y-186242914D02*
X182577200Y-186314342D01*
X182505771Y-186385771D01*
X182434342Y-186314342D01*
X182505771Y-186242914D01*
X182505771Y-186385771D01*
X182505771Y-185457200D02*
X182577200Y-185528628D01*
X182505771Y-185600057D01*
X182434342Y-185528628D01*
X182505771Y-185457200D01*
X182505771Y-185600057D01*
X184148628Y-185385771D02*
X184720057Y-185385771D01*
X184362914Y-184885771D02*
X184362914Y-186171485D01*
X184434342Y-186314342D01*
X184577200Y-186385771D01*
X184720057Y-186385771D01*
X185220057Y-185385771D02*
X185220057Y-186885771D01*
X185220057Y-185457200D02*
X185362914Y-185385771D01*
X185648628Y-185385771D01*
X185791485Y-185457200D01*
X185862914Y-185528628D01*
X185934342Y-185671485D01*
X185934342Y-186100057D01*
X185862914Y-186242914D01*
X185791485Y-186314342D01*
X185648628Y-186385771D01*
X185362914Y-186385771D01*
X185220057Y-186314342D01*
X187220057Y-185385771D02*
X187220057Y-186385771D01*
X186862914Y-184814342D02*
X186505771Y-185885771D01*
X187434342Y-185885771D01*
X188291485Y-184885771D02*
X188434342Y-184885771D01*
X188577200Y-184957200D01*
X188648628Y-185028628D01*
X188720057Y-185171485D01*
X188791485Y-185457200D01*
X188791485Y-185814342D01*
X188720057Y-186100057D01*
X188648628Y-186242914D01*
X188577200Y-186314342D01*
X188434342Y-186385771D01*
X188291485Y-186385771D01*
X188148628Y-186314342D01*
X188077200Y-186242914D01*
X188005771Y-186100057D01*
X187934342Y-185814342D01*
X187934342Y-185457200D01*
X188005771Y-185171485D01*
X188077200Y-185028628D01*
X188148628Y-184957200D01*
X188291485Y-184885771D01*
X190148628Y-184885771D02*
X189434342Y-184885771D01*
X189362914Y-185600057D01*
X189434342Y-185528628D01*
X189577200Y-185457200D01*
X189934342Y-185457200D01*
X190077200Y-185528628D01*
X190148628Y-185600057D01*
X190220057Y-185742914D01*
X190220057Y-186100057D01*
X190148628Y-186242914D01*
X190077200Y-186314342D01*
X189934342Y-186385771D01*
X189577200Y-186385771D01*
X189434342Y-186314342D01*
X189362914Y-186242914D01*
X191505771Y-184885771D02*
X191220057Y-184885771D01*
X191077200Y-184957200D01*
X191005771Y-185028628D01*
X190862914Y-185242914D01*
X190791485Y-185528628D01*
X190791485Y-186100057D01*
X190862914Y-186242914D01*
X190934342Y-186314342D01*
X191077200Y-186385771D01*
X191362914Y-186385771D01*
X191505771Y-186314342D01*
X191577200Y-186242914D01*
X191648628Y-186100057D01*
X191648628Y-185742914D01*
X191577200Y-185600057D01*
X191505771Y-185528628D01*
X191362914Y-185457200D01*
X191077200Y-185457200D01*
X190934342Y-185528628D01*
X190862914Y-185600057D01*
X190791485Y-185742914D01*
X192291485Y-186242914D02*
X192362914Y-186314342D01*
X192291485Y-186385771D01*
X192220057Y-186314342D01*
X192291485Y-186242914D01*
X192291485Y-186385771D01*
X193005771Y-186385771D02*
X193005771Y-184885771D01*
X193148628Y-185814342D02*
X193577200Y-186385771D01*
X193577200Y-185385771D02*
X193005771Y-185957200D01*
X194220057Y-186385771D02*
X194220057Y-185385771D01*
X194220057Y-184885771D02*
X194148628Y-184957200D01*
X194220057Y-185028628D01*
X194291485Y-184957200D01*
X194220057Y-184885771D01*
X194220057Y-185028628D01*
X195577200Y-186314342D02*
X195434342Y-186385771D01*
X195148628Y-186385771D01*
X195005771Y-186314342D01*
X194934342Y-186242914D01*
X194862914Y-186100057D01*
X194862914Y-185671485D01*
X194934342Y-185528628D01*
X195005771Y-185457200D01*
X195148628Y-185385771D01*
X195434342Y-185385771D01*
X195577200Y-185457200D01*
X196862914Y-186385771D02*
X196862914Y-185600057D01*
X196791485Y-185457200D01*
X196648628Y-185385771D01*
X196362914Y-185385771D01*
X196220057Y-185457200D01*
X196862914Y-186314342D02*
X196720057Y-186385771D01*
X196362914Y-186385771D01*
X196220057Y-186314342D01*
X196148628Y-186171485D01*
X196148628Y-186028628D01*
X196220057Y-185885771D01*
X196362914Y-185814342D01*
X196720057Y-185814342D01*
X196862914Y-185742914D01*
X198220057Y-186385771D02*
X198220057Y-184885771D01*
X198220057Y-186314342D02*
X198077200Y-186385771D01*
X197791485Y-186385771D01*
X197648628Y-186314342D01*
X197577200Y-186242914D01*
X197505771Y-186100057D01*
X197505771Y-185671485D01*
X197577200Y-185528628D01*
X197648628Y-185457200D01*
X197791485Y-185385771D01*
X198077200Y-185385771D01*
X198220057Y-185457200D01*
X198577200Y-186528628D02*
X199720057Y-186528628D01*
X200077200Y-185385771D02*
X200077200Y-186885771D01*
X200077200Y-185457200D02*
X200220057Y-185385771D01*
X200505771Y-185385771D01*
X200648628Y-185457200D01*
X200720057Y-185528628D01*
X200791485Y-185671485D01*
X200791485Y-186100057D01*
X200720057Y-186242914D01*
X200648628Y-186314342D01*
X200505771Y-186385771D01*
X200220057Y-186385771D01*
X200077200Y-186314342D01*
X202077200Y-186314342D02*
X201934342Y-186385771D01*
X201648628Y-186385771D01*
X201505771Y-186314342D01*
X201434342Y-186242914D01*
X201362914Y-186100057D01*
X201362914Y-185671485D01*
X201434342Y-185528628D01*
X201505771Y-185457200D01*
X201648628Y-185385771D01*
X201934342Y-185385771D01*
X202077200Y-185457200D01*
X202720057Y-186385771D02*
X202720057Y-184885771D01*
X202720057Y-185457200D02*
X202862914Y-185385771D01*
X203148628Y-185385771D01*
X203291485Y-185457200D01*
X203362914Y-185528628D01*
X203434342Y-185671485D01*
X203434342Y-186100057D01*
X203362914Y-186242914D01*
X203291485Y-186314342D01*
X203148628Y-186385771D01*
X202862914Y-186385771D01*
X202720057Y-186314342D01*
D10*
D11*
X177002200Y-181507200D02*
X285002200Y-181507200D01*
D10*
D11*
X178362914Y-183614342D02*
X178577200Y-183685771D01*
X178934342Y-183685771D01*
X179077200Y-183614342D01*
X179148628Y-183542914D01*
X179220057Y-183400057D01*
X179220057Y-183257200D01*
X179148628Y-183114342D01*
X179077200Y-183042914D01*
X178934342Y-182971485D01*
X178648628Y-182900057D01*
X178505771Y-182828628D01*
X178434342Y-182757200D01*
X178362914Y-182614342D01*
X178362914Y-182471485D01*
X178434342Y-182328628D01*
X178505771Y-182257200D01*
X178648628Y-182185771D01*
X179005771Y-182185771D01*
X179220057Y-182257200D01*
X179862914Y-183685771D02*
X179862914Y-182185771D01*
X180505771Y-183685771D02*
X180505771Y-182900057D01*
X180434342Y-182757200D01*
X180291485Y-182685771D01*
X180077200Y-182685771D01*
X179934342Y-182757200D01*
X179862914Y-182828628D01*
X181791485Y-183614342D02*
X181648628Y-183685771D01*
X181362914Y-183685771D01*
X181220057Y-183614342D01*
X181148628Y-183471485D01*
X181148628Y-182900057D01*
X181220057Y-182757200D01*
X181362914Y-182685771D01*
X181648628Y-182685771D01*
X181791485Y-182757200D01*
X181862914Y-182900057D01*
X181862914Y-183042914D01*
X181148628Y-183185771D01*
X183077200Y-183614342D02*
X182934342Y-183685771D01*
X182648628Y-183685771D01*
X182505771Y-183614342D01*
X182434342Y-183471485D01*
X182434342Y-182900057D01*
X182505771Y-182757200D01*
X182648628Y-182685771D01*
X182934342Y-182685771D01*
X183077200Y-182757200D01*
X183148628Y-182900057D01*
X183148628Y-183042914D01*
X182434342Y-183185771D01*
X183577200Y-182685771D02*
X184148628Y-182685771D01*
X183791485Y-182185771D02*
X183791485Y-183471485D01*
X183862914Y-183614342D01*
X184005771Y-183685771D01*
X184148628Y-183685771D01*
X184648628Y-183542914D02*
X184720057Y-183614342D01*
X184648628Y-183685771D01*
X184577200Y-183614342D01*
X184648628Y-183542914D01*
X184648628Y-183685771D01*
X184648628Y-182757200D02*
X184720057Y-182828628D01*
X184648628Y-182900057D01*
X184577200Y-182828628D01*
X184648628Y-182757200D01*
X184648628Y-182900057D01*
D10*
D12*
D10*
D11*
D10*
D11*
D10*
D11*
D10*
D11*
D10*
D11*
X197002200Y-191507200D02*
X197002200Y-194507200D01*
D10*
D11*
X261002200Y-191507200D02*
X261002200Y-198007200D01*
D14*
X210000000Y-88000000D02*
X178000000Y-88000000D01*
X214000000Y-109000000D02*
X214000000Y-92000000D01*
X178000000Y-113000000D02*
X210000000Y-113000000D01*
X174000000Y-92000000D02*
X174000000Y-109000000D01*
X214000000Y-92000000D02*
G75*
G03*
X210000000Y-88000000I-4000000J0D01*
G01*
X178000000Y-88000000D02*
G75*
G03*
X174000000Y-92000000I0J-4000000D01*
G01*
X174000000Y-109000000D02*
G75*
G03*
X178000000Y-113000000I4000000J0D01*
G01*
X210000000Y-113000000D02*
G75*
G03*
X214000000Y-109000000I0J4000000D01*
G01*
D15*
X175762500Y-97000000D03*
D16*
X178462500Y-98000000D03*
X178462500Y-103000000D03*
D15*
X175762500Y-104000000D03*
D17*
X194000000Y-90700000D03*
D18*
X196500000Y-90700000D03*
X199000000Y-90700000D03*
X201500000Y-90700000D03*
X204000000Y-90700000D03*
D19*
X180000000Y-96000000D03*
D20*
X200000000Y-110000000D03*
D21*
X197500000Y-110000000D03*
D19*
X180000000Y-105000000D03*
D22*
X210000000Y-109000000D03*
X178000000Y-109000000D03*
X178000000Y-92000000D03*
X210000000Y-92000000D03*
D23*
X192000000Y-108750000D03*
X204000000Y-103250000D03*
X203000000Y-99750000D03*
X211500000Y-96000000D03*
%TA.AperFunction,Conductor*%
G36*
X192293039Y-90095185D02*
G01*
X192338794Y-90147989D01*
X192350000Y-90199500D01*
X192350000Y-90482170D01*
X192354404Y-90497169D01*
X192355774Y-90498356D01*
X192363332Y-90500000D01*
X193782170Y-90500000D01*
X193797169Y-90495596D01*
X193798356Y-90494226D01*
X193800000Y-90486668D01*
X193800000Y-90199500D01*
X193819685Y-90132461D01*
X193872489Y-90086706D01*
X193924000Y-90075500D01*
X194076000Y-90075500D01*
X194143039Y-90095185D01*
X194188794Y-90147989D01*
X194200000Y-90199500D01*
X194200000Y-92457170D01*
X194204404Y-92472169D01*
X194205774Y-92473356D01*
X194213332Y-92475000D01*
X194698742Y-92475000D01*
X194701872Y-92474921D01*
X194702032Y-92474913D01*
X194711125Y-92473772D01*
X194902530Y-92435178D01*
X194914079Y-92431647D01*
X195092977Y-92357179D01*
X195103620Y-92351472D01*
X195264653Y-92243671D01*
X195273982Y-92236007D01*
X195411007Y-92098982D01*
X195418674Y-92089648D01*
X195518308Y-91940816D01*
X195571959Y-91896057D01*
X195641291Y-91887410D01*
X195692473Y-91908221D01*
X195817735Y-91995930D01*
X195817738Y-91995932D01*
X195822170Y-91999035D01*
X196036337Y-92098903D01*
X196120137Y-92121357D01*
X196259366Y-92158663D01*
X196259369Y-92158664D01*
X196264592Y-92160063D01*
X196269979Y-92160534D01*
X196269983Y-92160535D01*
X196494605Y-92180187D01*
X196500000Y-92180659D01*
X196505395Y-92180187D01*
X196730017Y-92160535D01*
X196730021Y-92160534D01*
X196735408Y-92160063D01*
X196740631Y-92158664D01*
X196740634Y-92158663D01*
X196879863Y-92121357D01*
X196963663Y-92098903D01*
X196968567Y-92096616D01*
X196968573Y-92096614D01*
X197172918Y-92001325D01*
X197177829Y-91999035D01*
X197182268Y-91995927D01*
X197366966Y-91866601D01*
X197366970Y-91866597D01*
X197371401Y-91863495D01*
X197538495Y-91696401D01*
X197541597Y-91691970D01*
X197541601Y-91691966D01*
X197648425Y-91539404D01*
X197703002Y-91495779D01*
X197772500Y-91488585D01*
X197834855Y-91520108D01*
X197851575Y-91539404D01*
X197958399Y-91691966D01*
X197958403Y-91691970D01*
X197961505Y-91696401D01*
X198128599Y-91863495D01*
X198322170Y-91999035D01*
X198536337Y-92098903D01*
X198620137Y-92121357D01*
X198759366Y-92158663D01*
X198759369Y-92158664D01*
X198764592Y-92160063D01*
X198769979Y-92160534D01*
X198769983Y-92160535D01*
X198994605Y-92180187D01*
X199000000Y-92180659D01*
X199005395Y-92180187D01*
X199230017Y-92160535D01*
X199230021Y-92160534D01*
X199235408Y-92160063D01*
X199240631Y-92158664D01*
X199240634Y-92158663D01*
X199379863Y-92121357D01*
X199463663Y-92098903D01*
X199468567Y-92096616D01*
X199468573Y-92096614D01*
X199672918Y-92001325D01*
X199677829Y-91999035D01*
X199682268Y-91995927D01*
X199866966Y-91866601D01*
X199866970Y-91866597D01*
X199871401Y-91863495D01*
X200038495Y-91696401D01*
X200041597Y-91691970D01*
X200041601Y-91691966D01*
X200148425Y-91539404D01*
X200203002Y-91495779D01*
X200272500Y-91488585D01*
X200334855Y-91520108D01*
X200351575Y-91539404D01*
X200458399Y-91691966D01*
X200458403Y-91691970D01*
X200461505Y-91696401D01*
X200628599Y-91863495D01*
X200822170Y-91999035D01*
X201036337Y-92098903D01*
X201120137Y-92121357D01*
X201259366Y-92158663D01*
X201259369Y-92158664D01*
X201264592Y-92160063D01*
X201269979Y-92160534D01*
X201269983Y-92160535D01*
X201494605Y-92180187D01*
X201500000Y-92180659D01*
X201505395Y-92180187D01*
X201730017Y-92160535D01*
X201730021Y-92160534D01*
X201735408Y-92160063D01*
X201740631Y-92158664D01*
X201740634Y-92158663D01*
X201879863Y-92121357D01*
X201963663Y-92098903D01*
X201968567Y-92096616D01*
X201968573Y-92096614D01*
X202172918Y-92001325D01*
X202177829Y-91999035D01*
X202182268Y-91995927D01*
X202366966Y-91866601D01*
X202366970Y-91866597D01*
X202371401Y-91863495D01*
X202538495Y-91696401D01*
X202541597Y-91691970D01*
X202541601Y-91691966D01*
X202648425Y-91539404D01*
X202703002Y-91495779D01*
X202772500Y-91488585D01*
X202834855Y-91520108D01*
X202851575Y-91539404D01*
X202958399Y-91691966D01*
X202958403Y-91691970D01*
X202961505Y-91696401D01*
X203128599Y-91863495D01*
X203322170Y-91999035D01*
X203536337Y-92098903D01*
X203620137Y-92121357D01*
X203759366Y-92158663D01*
X203759369Y-92158664D01*
X203764592Y-92160063D01*
X203769979Y-92160534D01*
X203769983Y-92160535D01*
X203994605Y-92180187D01*
X204000000Y-92180659D01*
X204005395Y-92180187D01*
X204230017Y-92160535D01*
X204230021Y-92160534D01*
X204235408Y-92160063D01*
X204240631Y-92158664D01*
X204240634Y-92158663D01*
X204379863Y-92121357D01*
X204463663Y-92098903D01*
X204468567Y-92096616D01*
X204468573Y-92096614D01*
X204672918Y-92001325D01*
X204677829Y-91999035D01*
X204682268Y-91995927D01*
X204866966Y-91866601D01*
X204866970Y-91866597D01*
X204871401Y-91863495D01*
X205038495Y-91696401D01*
X205041597Y-91691970D01*
X205041601Y-91691966D01*
X205170927Y-91507268D01*
X205170928Y-91507266D01*
X205174035Y-91502829D01*
X205230962Y-91380750D01*
X205271614Y-91293573D01*
X205271616Y-91293567D01*
X205273903Y-91288663D01*
X205335063Y-91060408D01*
X205348850Y-90902831D01*
X205350264Y-90886665D01*
X205350264Y-90886662D01*
X205350500Y-90883966D01*
X205350500Y-90516034D01*
X205348953Y-90498356D01*
X205335535Y-90344983D01*
X205335534Y-90344979D01*
X205335063Y-90339592D01*
X205306125Y-90231593D01*
X205307788Y-90161743D01*
X205346951Y-90103881D01*
X205411179Y-90076377D01*
X205425900Y-90075500D01*
X206300500Y-90075500D01*
X206367539Y-90095185D01*
X206413294Y-90147989D01*
X206424500Y-90199500D01*
X206424500Y-91954154D01*
X206423439Y-91970339D01*
X206419534Y-92000000D01*
X206420577Y-92007925D01*
X206420594Y-92008273D01*
X206420594Y-92010423D01*
X206420826Y-92012984D01*
X206426095Y-92120244D01*
X206435803Y-92317842D01*
X206437426Y-92350883D01*
X206488973Y-92698387D01*
X206574334Y-93039165D01*
X206692685Y-93369935D01*
X206842888Y-93687512D01*
X207023495Y-93988837D01*
X207025295Y-93991264D01*
X207025301Y-93991273D01*
X207194416Y-94219297D01*
X207232768Y-94271009D01*
X207234809Y-94273261D01*
X207234814Y-94273267D01*
X207384349Y-94438252D01*
X207468691Y-94531309D01*
X207470944Y-94533351D01*
X207726733Y-94765186D01*
X207726739Y-94765191D01*
X207728991Y-94767232D01*
X207731432Y-94769042D01*
X207731434Y-94769044D01*
X208008727Y-94974699D01*
X208008736Y-94974705D01*
X208011163Y-94976505D01*
X208312488Y-95157112D01*
X208630065Y-95307315D01*
X208960835Y-95425666D01*
X209301613Y-95511027D01*
X209649117Y-95562574D01*
X209652152Y-95562723D01*
X209652161Y-95562724D01*
X209879756Y-95573905D01*
X209987016Y-95579174D01*
X209989577Y-95579406D01*
X209991727Y-95579406D01*
X209992075Y-95579423D01*
X210000000Y-95580466D01*
X210029661Y-95576561D01*
X210045846Y-95575500D01*
X211800500Y-95575500D01*
X211867539Y-95595185D01*
X211913294Y-95647989D01*
X211924500Y-95699500D01*
X211924500Y-105300500D01*
X211904815Y-105367539D01*
X211852011Y-105413294D01*
X211800500Y-105424500D01*
X210045846Y-105424500D01*
X210029661Y-105423439D01*
X210000000Y-105419534D01*
X209992075Y-105420577D01*
X209991727Y-105420594D01*
X209989577Y-105420594D01*
X209987016Y-105420826D01*
X209879756Y-105426095D01*
X209652161Y-105437276D01*
X209652152Y-105437277D01*
X209649117Y-105437426D01*
X209301613Y-105488973D01*
X208960835Y-105574334D01*
X208630065Y-105692685D01*
X208312488Y-105842888D01*
X208011163Y-106023495D01*
X208008736Y-106025295D01*
X208008727Y-106025301D01*
X207731434Y-106230956D01*
X207728991Y-106232768D01*
X207726739Y-106234809D01*
X207726733Y-106234814D01*
X207665588Y-106290233D01*
X207468691Y-106468691D01*
X207466649Y-106470944D01*
X207234814Y-106726733D01*
X207234809Y-106726739D01*
X207232768Y-106728991D01*
X207230958Y-106731432D01*
X207230956Y-106731434D01*
X207025301Y-107008727D01*
X207025295Y-107008736D01*
X207023495Y-107011163D01*
X206842888Y-107312488D01*
X206692685Y-107630065D01*
X206574334Y-107960835D01*
X206488973Y-108301613D01*
X206437426Y-108649117D01*
X206437277Y-108652152D01*
X206437276Y-108652161D01*
X206431163Y-108776591D01*
X206421638Y-108970489D01*
X206420826Y-108987011D01*
X206420594Y-108989577D01*
X206420594Y-108991727D01*
X206420577Y-108992075D01*
X206419534Y-109000000D01*
X206422479Y-109022367D01*
X206423439Y-109029661D01*
X206424500Y-109045846D01*
X206424500Y-110800500D01*
X206404815Y-110867539D01*
X206352011Y-110913294D01*
X206300500Y-110924500D01*
X201474468Y-110924500D01*
X201407429Y-110904815D01*
X201361674Y-110852011D01*
X201351700Y-110799866D01*
X201350500Y-110799866D01*
X201350500Y-109200134D01*
X201339641Y-109095481D01*
X201315249Y-109022367D01*
X201286536Y-108936305D01*
X201284256Y-108929471D01*
X201252855Y-108878727D01*
X201195957Y-108786780D01*
X201195954Y-108786776D01*
X201192166Y-108780655D01*
X201068311Y-108657016D01*
X201055497Y-108649117D01*
X200940750Y-108578387D01*
X200919334Y-108565186D01*
X200753228Y-108510090D01*
X200698684Y-108504502D01*
X200653013Y-108499822D01*
X200653005Y-108499822D01*
X200649866Y-108499500D01*
X199350134Y-108499500D01*
X199245481Y-108510359D01*
X199239044Y-108512507D01*
X199239042Y-108512507D01*
X199087936Y-108562920D01*
X199079471Y-108565744D01*
X199028727Y-108597145D01*
X198936780Y-108654043D01*
X198936776Y-108654046D01*
X198930655Y-108657834D01*
X198807016Y-108781689D01*
X198715186Y-108930666D01*
X198713989Y-108929928D01*
X198673049Y-108976425D01*
X198605855Y-108995577D01*
X198538974Y-108975361D01*
X198519158Y-108959262D01*
X198371401Y-108811505D01*
X198177830Y-108675965D01*
X197963663Y-108576097D01*
X197879863Y-108553643D01*
X197740634Y-108516337D01*
X197740631Y-108516336D01*
X197735408Y-108514937D01*
X197730021Y-108514466D01*
X197730017Y-108514465D01*
X197505395Y-108494813D01*
X197500000Y-108494341D01*
X197494605Y-108494813D01*
X197269983Y-108514465D01*
X197269979Y-108514466D01*
X197264592Y-108514937D01*
X197259369Y-108516336D01*
X197259366Y-108516337D01*
X197120137Y-108553643D01*
X197036337Y-108576097D01*
X197031433Y-108578384D01*
X197031427Y-108578386D01*
X196862807Y-108657016D01*
X196822171Y-108675965D01*
X196817734Y-108679072D01*
X196817732Y-108679073D01*
X196633034Y-108808399D01*
X196633033Y-108808400D01*
X196628599Y-108811505D01*
X196461505Y-108978599D01*
X196458403Y-108983030D01*
X196458399Y-108983034D01*
X196374938Y-109102230D01*
X196325965Y-109172171D01*
X196323675Y-109177082D01*
X196228386Y-109381427D01*
X196228384Y-109381433D01*
X196226097Y-109386337D01*
X196164937Y-109614592D01*
X196164466Y-109619979D01*
X196164465Y-109619983D01*
X196158459Y-109688630D01*
X196149500Y-109791034D01*
X196149500Y-110208966D01*
X196149736Y-110211662D01*
X196149736Y-110211665D01*
X196161376Y-110344702D01*
X196164937Y-110385408D01*
X196226097Y-110613663D01*
X196271998Y-110712098D01*
X196288784Y-110748095D01*
X196299276Y-110817173D01*
X196270756Y-110880957D01*
X196212280Y-110919196D01*
X196176402Y-110924500D01*
X181699500Y-110924500D01*
X181632461Y-110904815D01*
X181586706Y-110852011D01*
X181575500Y-110800500D01*
X181575500Y-109045846D01*
X181576561Y-109029661D01*
X181577521Y-109022367D01*
X181580466Y-109000000D01*
X181579423Y-108992075D01*
X181579406Y-108991727D01*
X181579406Y-108989577D01*
X181579174Y-108987011D01*
X181578363Y-108970489D01*
X181568837Y-108776591D01*
X181562724Y-108652161D01*
X181562723Y-108652152D01*
X181562574Y-108649117D01*
X181511027Y-108301613D01*
X181425666Y-107960835D01*
X181307315Y-107630065D01*
X181157112Y-107312488D01*
X180976505Y-107011163D01*
X180854563Y-106846743D01*
X180830439Y-106781170D01*
X180845595Y-106712964D01*
X180895220Y-106663780D01*
X180936599Y-106650126D01*
X180947655Y-106648544D01*
X181110654Y-106610913D01*
X181123654Y-106606334D01*
X181272760Y-106534254D01*
X181284411Y-106526917D01*
X181413851Y-106423587D01*
X181423587Y-106413851D01*
X181526917Y-106284411D01*
X181534254Y-106272760D01*
X181606334Y-106123654D01*
X181610913Y-106110654D01*
X181648546Y-105947647D01*
X181649947Y-105937864D01*
X181650000Y-105936021D01*
X181650000Y-105217830D01*
X181645596Y-105202831D01*
X181644226Y-105201644D01*
X181636668Y-105200000D01*
X178367830Y-105200000D01*
X178352831Y-105204404D01*
X178351644Y-105205774D01*
X178350000Y-105213333D01*
X178350000Y-105307141D01*
X178330315Y-105374180D01*
X178277511Y-105419935D01*
X178219916Y-105430992D01*
X178012982Y-105420825D01*
X178010422Y-105420594D01*
X178008273Y-105420594D01*
X178007925Y-105420577D01*
X178000000Y-105419534D01*
X177970339Y-105423439D01*
X177954154Y-105424500D01*
X176909738Y-105424500D01*
X176842699Y-105404815D01*
X176796944Y-105352011D01*
X176787000Y-105282853D01*
X176816025Y-105219297D01*
X176840488Y-105197639D01*
X176988563Y-105097949D01*
X176996713Y-105091397D01*
X177161028Y-104934648D01*
X177167964Y-104926808D01*
X177303520Y-104744615D01*
X177309031Y-104735727D01*
X177411948Y-104533304D01*
X177415890Y-104523595D01*
X177466803Y-104359627D01*
X177505482Y-104301440D01*
X177569479Y-104273402D01*
X177638475Y-104284414D01*
X177650015Y-104290671D01*
X177763868Y-104360441D01*
X177772526Y-104364852D01*
X177985286Y-104452980D01*
X177994530Y-104455984D01*
X178218470Y-104509747D01*
X178228050Y-104511265D01*
X178235728Y-104511869D01*
X178301017Y-104536753D01*
X178342488Y-104592984D01*
X178350000Y-104635487D01*
X178350000Y-104782170D01*
X178354404Y-104797169D01*
X178355774Y-104798356D01*
X178363332Y-104800000D01*
X181632169Y-104800000D01*
X181647168Y-104795596D01*
X181648355Y-104794226D01*
X181649999Y-104786668D01*
X181649999Y-104063983D01*
X181649946Y-104062144D01*
X181648544Y-104052343D01*
X181610913Y-103889346D01*
X181606334Y-103876346D01*
X181534254Y-103727240D01*
X181526917Y-103715589D01*
X181423587Y-103586149D01*
X181413851Y-103576413D01*
X181284411Y-103473083D01*
X181272760Y-103465746D01*
X181123654Y-103393666D01*
X181110654Y-103389087D01*
X180947647Y-103351454D01*
X180937864Y-103350053D01*
X180936021Y-103350000D01*
X180098813Y-103350001D01*
X180031774Y-103330317D01*
X179986019Y-103277513D01*
X179975195Y-103216272D01*
X179991834Y-103004854D01*
X179991834Y-102995146D01*
X179973765Y-102765549D01*
X179972247Y-102755970D01*
X179918484Y-102532030D01*
X179915480Y-102522786D01*
X179827352Y-102310026D01*
X179822941Y-102301368D01*
X179702609Y-102105005D01*
X179696907Y-102097157D01*
X179686042Y-102084435D01*
X179673335Y-102076140D01*
X179663291Y-102082051D01*
X178745343Y-103000000D01*
X178462500Y-103282843D01*
X177573341Y-104172001D01*
X177512018Y-104205486D01*
X177462378Y-104201936D01*
X177462358Y-104202123D01*
X177457123Y-104201560D01*
X177442327Y-104200502D01*
X177441228Y-104200000D01*
X176199500Y-104200000D01*
X176132461Y-104180315D01*
X176086706Y-104127511D01*
X176075500Y-104076000D01*
X176075500Y-103924000D01*
X176095185Y-103856961D01*
X176147989Y-103811206D01*
X176199500Y-103800000D01*
X177361828Y-103800000D01*
X177387070Y-103792588D01*
X178167050Y-103012607D01*
X178174542Y-102998887D01*
X178174413Y-102997081D01*
X178170231Y-102990574D01*
X177263143Y-102083485D01*
X177249824Y-102076212D01*
X177240274Y-102082894D01*
X177228093Y-102097157D01*
X177222391Y-102105005D01*
X177102059Y-102301368D01*
X177097648Y-102310026D01*
X177009520Y-102522786D01*
X177006516Y-102532033D01*
X176967750Y-102693502D01*
X176932959Y-102754094D01*
X176870933Y-102786258D01*
X176801364Y-102779782D01*
X176785833Y-102772319D01*
X176706414Y-102727110D01*
X176696927Y-102722727D01*
X176483459Y-102645242D01*
X176473358Y-102642517D01*
X176248748Y-102601901D01*
X176240646Y-102600981D01*
X176221286Y-102600068D01*
X176218389Y-102600000D01*
X176199500Y-102600000D01*
X176132461Y-102580315D01*
X176086706Y-102527511D01*
X176075500Y-102476000D01*
X176075500Y-101789165D01*
X177538640Y-101789165D01*
X177544551Y-101799209D01*
X178449893Y-102704550D01*
X178463613Y-102712042D01*
X178465419Y-102711913D01*
X178471926Y-102707731D01*
X179379015Y-101800643D01*
X179386288Y-101787324D01*
X179379606Y-101777774D01*
X179365343Y-101765593D01*
X179357495Y-101759891D01*
X179161132Y-101639559D01*
X179152474Y-101635148D01*
X178939714Y-101547020D01*
X178930470Y-101544016D01*
X178706530Y-101490253D01*
X178696951Y-101488735D01*
X178467354Y-101470666D01*
X178457646Y-101470666D01*
X178228049Y-101488735D01*
X178218470Y-101490253D01*
X177994530Y-101544016D01*
X177985286Y-101547020D01*
X177772526Y-101635148D01*
X177763868Y-101639559D01*
X177567505Y-101759891D01*
X177559657Y-101765593D01*
X177546935Y-101776458D01*
X177538640Y-101789165D01*
X176075500Y-101789165D01*
X176075500Y-99212676D01*
X177538712Y-99212676D01*
X177545394Y-99222226D01*
X177559657Y-99234407D01*
X177567505Y-99240109D01*
X177763868Y-99360441D01*
X177772526Y-99364852D01*
X177985286Y-99452980D01*
X177994530Y-99455984D01*
X178218470Y-99509747D01*
X178228049Y-99511265D01*
X178457646Y-99529334D01*
X178467354Y-99529334D01*
X178696951Y-99511265D01*
X178706530Y-99509747D01*
X178930470Y-99455984D01*
X178939714Y-99452980D01*
X179152474Y-99364852D01*
X179161132Y-99360441D01*
X179357495Y-99240109D01*
X179365343Y-99234407D01*
X179378065Y-99223542D01*
X179386360Y-99210835D01*
X179380449Y-99200791D01*
X178475107Y-98295450D01*
X178461387Y-98287958D01*
X178459581Y-98288087D01*
X178453074Y-98292269D01*
X177545985Y-99199357D01*
X177538712Y-99212676D01*
X176075500Y-99212676D01*
X176075500Y-98522125D01*
X176095185Y-98455086D01*
X176147989Y-98409331D01*
X176189016Y-98398569D01*
X176344005Y-98385418D01*
X176354322Y-98383654D01*
X176574121Y-98326606D01*
X176584000Y-98323127D01*
X176795831Y-98227704D01*
X176796688Y-98229607D01*
X176856097Y-98216179D01*
X176921757Y-98240066D01*
X176964080Y-98295658D01*
X176968827Y-98310984D01*
X177006516Y-98467967D01*
X177009520Y-98477214D01*
X177097648Y-98689974D01*
X177102059Y-98698632D01*
X177222391Y-98894995D01*
X177228093Y-98902843D01*
X177238958Y-98915565D01*
X177251665Y-98923860D01*
X177261709Y-98917949D01*
X178167050Y-98012607D01*
X178174542Y-97998887D01*
X178174413Y-97997081D01*
X178170231Y-97990574D01*
X177392265Y-97212607D01*
X177369177Y-97200000D01*
X176199500Y-97200000D01*
X176132461Y-97180315D01*
X176086706Y-97127511D01*
X176075500Y-97076000D01*
X176075500Y-96924000D01*
X176095185Y-96856961D01*
X176147989Y-96811206D01*
X176199500Y-96800000D01*
X177431428Y-96800000D01*
X177448891Y-96794872D01*
X177518760Y-96794870D01*
X177571509Y-96826167D01*
X178462500Y-97717157D01*
X179661857Y-98916515D01*
X179675177Y-98923788D01*
X179684724Y-98917109D01*
X179696907Y-98902843D01*
X179702609Y-98894995D01*
X179822941Y-98698632D01*
X179827352Y-98689974D01*
X179915480Y-98477214D01*
X179918484Y-98467970D01*
X179972247Y-98244030D01*
X179973765Y-98234451D01*
X179991834Y-98004854D01*
X179991834Y-97995146D01*
X179973765Y-97765549D01*
X179972247Y-97755970D01*
X179918484Y-97532030D01*
X179915481Y-97522790D01*
X179915135Y-97521955D01*
X179915098Y-97521612D01*
X179913977Y-97518162D01*
X179914702Y-97517926D01*
X179907665Y-97452485D01*
X179938939Y-97390006D01*
X179999027Y-97354352D01*
X180029695Y-97350500D01*
X180890893Y-97350499D01*
X180897376Y-97350499D01*
X180958580Y-97343851D01*
X181092824Y-97293526D01*
X181099889Y-97288231D01*
X181099891Y-97288230D01*
X181200481Y-97212841D01*
X181207546Y-97207546D01*
X181227955Y-97180315D01*
X181288230Y-97099891D01*
X181288231Y-97099889D01*
X181293526Y-97092824D01*
X181343851Y-96958580D01*
X181350500Y-96897377D01*
X181350499Y-95102624D01*
X181343851Y-95041420D01*
X181293526Y-94907176D01*
X181207546Y-94792454D01*
X181200481Y-94787159D01*
X181099891Y-94711770D01*
X181099889Y-94711769D01*
X181092824Y-94706474D01*
X180958580Y-94656149D01*
X180897377Y-94649500D01*
X180703927Y-94649500D01*
X180636888Y-94629815D01*
X180591133Y-94577011D01*
X180581189Y-94507853D01*
X180612049Y-94442227D01*
X180765186Y-94273267D01*
X180765191Y-94273261D01*
X180767232Y-94271009D01*
X180805584Y-94219297D01*
X180974699Y-93991273D01*
X180974705Y-93991264D01*
X180976505Y-93988837D01*
X181157112Y-93687512D01*
X181307315Y-93369935D01*
X181425666Y-93039165D01*
X181511027Y-92698387D01*
X181562574Y-92350883D01*
X181564198Y-92317842D01*
X181573905Y-92120244D01*
X181579174Y-92012984D01*
X181579406Y-92010423D01*
X181579406Y-92008273D01*
X181579423Y-92007925D01*
X181580466Y-92000000D01*
X181576561Y-91970339D01*
X181575500Y-91954154D01*
X181575500Y-91523742D01*
X192350000Y-91523742D01*
X192350079Y-91526872D01*
X192350087Y-91527032D01*
X192351228Y-91536125D01*
X192389822Y-91727530D01*
X192393353Y-91739079D01*
X192467821Y-91917977D01*
X192473528Y-91928620D01*
X192581329Y-92089653D01*
X192588993Y-92098982D01*
X192726018Y-92236007D01*
X192735347Y-92243671D01*
X192896380Y-92351472D01*
X192907023Y-92357179D01*
X193085921Y-92431647D01*
X193097470Y-92435178D01*
X193288875Y-92473772D01*
X193297968Y-92474913D01*
X193298128Y-92474921D01*
X193301258Y-92475000D01*
X193782170Y-92475000D01*
X193797169Y-92470596D01*
X193798356Y-92469226D01*
X193800000Y-92461668D01*
X193800000Y-90917830D01*
X193795596Y-90902831D01*
X193794226Y-90901644D01*
X193786668Y-90900000D01*
X192367830Y-90900000D01*
X192352831Y-90904404D01*
X192351644Y-90905774D01*
X192350000Y-90913332D01*
X192350000Y-91523742D01*
X181575500Y-91523742D01*
X181575500Y-90199500D01*
X181595185Y-90132461D01*
X181647989Y-90086706D01*
X181699500Y-90075500D01*
X192226000Y-90075500D01*
X192293039Y-90095185D01*
G37*
%TD.AperFunction*%
M02*
