%TF.GenerationSoftware,KiCad,Pcbnew,6.0.7-f9a2dced07~116~ubuntu22.04.1*%
%TF.CreationDate,2022-09-07T10:58:27-03:00*%
%TF.ProjectId,tp4056,74703430-3536-42e6-9b69-6361645f7063,rev?*%
%TF.SameCoordinates,Original*%
%TF.FileFunction,Legend,Top*%
%TF.FilePolarity,Positive*%
%FSLAX46Y46*%
G04 Gerber Fmt 4.6, Leading zero omitted, Abs format (unit mm)*
G04 Created by KiCad (PCBNEW 6.0.7-f9a2dced07~116~ubuntu22.04.1) date 2022-09-07 10:58:27*
%MOMM*%
%LPD*%
G01*
G04 APERTURE LIST*
%ADD10C,0.100000*%
%ADD11C,0.150000*%
%ADD12C,0.300000*%
%ADD13C,0.400000*%
%ADD14C,0.250000*%
%ADD15C,0.120000*%
%ADD16C,0.200000*%
%TA.AperFunction,Profile*%
%ADD17C,0.150000*%
%TD*%
G04 APERTURE END LIST*
D10*
D11*
X177002200Y-166007200D02*
X177002200Y-198007200D01*
X285002200Y-198007200D01*
X285002200Y-166007200D01*
X177002200Y-166007200D01*
D10*
D11*
X10000000Y-10000000D02*
X10000000Y-200007200D01*
X287002200Y-200007200D01*
X287002200Y-10000000D01*
X10000000Y-10000000D01*
D10*
D11*
X12000000Y-12000000D02*
X12000000Y-198007200D01*
X285002200Y-198007200D01*
X285002200Y-12000000D01*
X12000000Y-12000000D01*
D10*
D11*
X60000000Y-12000000D02*
X60000000Y-10000000D01*
D10*
D11*
X110000000Y-12000000D02*
X110000000Y-10000000D01*
D10*
D11*
X160000000Y-12000000D02*
X160000000Y-10000000D01*
D10*
D11*
X210000000Y-12000000D02*
X210000000Y-10000000D01*
D10*
D11*
X260000000Y-12000000D02*
X260000000Y-10000000D01*
D10*
D11*
X36065476Y-11588095D02*
X35322619Y-11588095D01*
X35694047Y-11588095D02*
X35694047Y-10288095D01*
X35570238Y-10473809D01*
X35446428Y-10597619D01*
X35322619Y-10659523D01*
D10*
D11*
X85322619Y-10411904D02*
X85384523Y-10350000D01*
X85508333Y-10288095D01*
X85817857Y-10288095D01*
X85941666Y-10350000D01*
X86003571Y-10411904D01*
X86065476Y-10535714D01*
X86065476Y-10659523D01*
X86003571Y-10845238D01*
X85260714Y-11588095D01*
X86065476Y-11588095D01*
D10*
D11*
X135260714Y-10288095D02*
X136065476Y-10288095D01*
X135632142Y-10783333D01*
X135817857Y-10783333D01*
X135941666Y-10845238D01*
X136003571Y-10907142D01*
X136065476Y-11030952D01*
X136065476Y-11340476D01*
X136003571Y-11464285D01*
X135941666Y-11526190D01*
X135817857Y-11588095D01*
X135446428Y-11588095D01*
X135322619Y-11526190D01*
X135260714Y-11464285D01*
D10*
D11*
X185941666Y-10721428D02*
X185941666Y-11588095D01*
X185632142Y-10226190D02*
X185322619Y-11154761D01*
X186127380Y-11154761D01*
D10*
D11*
X236003571Y-10288095D02*
X235384523Y-10288095D01*
X235322619Y-10907142D01*
X235384523Y-10845238D01*
X235508333Y-10783333D01*
X235817857Y-10783333D01*
X235941666Y-10845238D01*
X236003571Y-10907142D01*
X236065476Y-11030952D01*
X236065476Y-11340476D01*
X236003571Y-11464285D01*
X235941666Y-11526190D01*
X235817857Y-11588095D01*
X235508333Y-11588095D01*
X235384523Y-11526190D01*
X235322619Y-11464285D01*
D10*
D11*
X285941666Y-10288095D02*
X285694047Y-10288095D01*
X285570238Y-10350000D01*
X285508333Y-10411904D01*
X285384523Y-10597619D01*
X285322619Y-10845238D01*
X285322619Y-11340476D01*
X285384523Y-11464285D01*
X285446428Y-11526190D01*
X285570238Y-11588095D01*
X285817857Y-11588095D01*
X285941666Y-11526190D01*
X286003571Y-11464285D01*
X286065476Y-11340476D01*
X286065476Y-11030952D01*
X286003571Y-10907142D01*
X285941666Y-10845238D01*
X285817857Y-10783333D01*
X285570238Y-10783333D01*
X285446428Y-10845238D01*
X285384523Y-10907142D01*
X285322619Y-11030952D01*
D10*
D11*
X60000000Y-198007200D02*
X60000000Y-200007200D01*
D10*
D11*
X110000000Y-198007200D02*
X110000000Y-200007200D01*
D10*
D11*
X160000000Y-198007200D02*
X160000000Y-200007200D01*
D10*
D11*
X210000000Y-198007200D02*
X210000000Y-200007200D01*
D10*
D11*
X260000000Y-198007200D02*
X260000000Y-200007200D01*
D10*
D11*
X36065476Y-199595295D02*
X35322619Y-199595295D01*
X35694047Y-199595295D02*
X35694047Y-198295295D01*
X35570238Y-198481009D01*
X35446428Y-198604819D01*
X35322619Y-198666723D01*
D10*
D11*
X85322619Y-198419104D02*
X85384523Y-198357200D01*
X85508333Y-198295295D01*
X85817857Y-198295295D01*
X85941666Y-198357200D01*
X86003571Y-198419104D01*
X86065476Y-198542914D01*
X86065476Y-198666723D01*
X86003571Y-198852438D01*
X85260714Y-199595295D01*
X86065476Y-199595295D01*
D10*
D11*
X135260714Y-198295295D02*
X136065476Y-198295295D01*
X135632142Y-198790533D01*
X135817857Y-198790533D01*
X135941666Y-198852438D01*
X136003571Y-198914342D01*
X136065476Y-199038152D01*
X136065476Y-199347676D01*
X136003571Y-199471485D01*
X135941666Y-199533390D01*
X135817857Y-199595295D01*
X135446428Y-199595295D01*
X135322619Y-199533390D01*
X135260714Y-199471485D01*
D10*
D11*
X185941666Y-198728628D02*
X185941666Y-199595295D01*
X185632142Y-198233390D02*
X185322619Y-199161961D01*
X186127380Y-199161961D01*
D10*
D11*
X236003571Y-198295295D02*
X235384523Y-198295295D01*
X235322619Y-198914342D01*
X235384523Y-198852438D01*
X235508333Y-198790533D01*
X235817857Y-198790533D01*
X235941666Y-198852438D01*
X236003571Y-198914342D01*
X236065476Y-199038152D01*
X236065476Y-199347676D01*
X236003571Y-199471485D01*
X235941666Y-199533390D01*
X235817857Y-199595295D01*
X235508333Y-199595295D01*
X235384523Y-199533390D01*
X235322619Y-199471485D01*
D10*
D11*
X285941666Y-198295295D02*
X285694047Y-198295295D01*
X285570238Y-198357200D01*
X285508333Y-198419104D01*
X285384523Y-198604819D01*
X285322619Y-198852438D01*
X285322619Y-199347676D01*
X285384523Y-199471485D01*
X285446428Y-199533390D01*
X285570238Y-199595295D01*
X285817857Y-199595295D01*
X285941666Y-199533390D01*
X286003571Y-199471485D01*
X286065476Y-199347676D01*
X286065476Y-199038152D01*
X286003571Y-198914342D01*
X285941666Y-198852438D01*
X285817857Y-198790533D01*
X285570238Y-198790533D01*
X285446428Y-198852438D01*
X285384523Y-198914342D01*
X285322619Y-199038152D01*
D10*
D11*
X10000000Y-60000000D02*
X12000000Y-60000000D01*
D10*
D11*
X10000000Y-110000000D02*
X12000000Y-110000000D01*
D10*
D11*
X10000000Y-160000000D02*
X12000000Y-160000000D01*
D10*
D11*
X10690476Y-35216666D02*
X11309523Y-35216666D01*
X10566666Y-35588095D02*
X11000000Y-34288095D01*
X11433333Y-35588095D01*
D10*
D11*
X11092857Y-84907142D02*
X11278571Y-84969047D01*
X11340476Y-85030952D01*
X11402380Y-85154761D01*
X11402380Y-85340476D01*
X11340476Y-85464285D01*
X11278571Y-85526190D01*
X11154761Y-85588095D01*
X10659523Y-85588095D01*
X10659523Y-84288095D01*
X11092857Y-84288095D01*
X11216666Y-84350000D01*
X11278571Y-84411904D01*
X11340476Y-84535714D01*
X11340476Y-84659523D01*
X11278571Y-84783333D01*
X11216666Y-84845238D01*
X11092857Y-84907142D01*
X10659523Y-84907142D01*
D10*
D11*
X11402380Y-135464285D02*
X11340476Y-135526190D01*
X11154761Y-135588095D01*
X11030952Y-135588095D01*
X10845238Y-135526190D01*
X10721428Y-135402380D01*
X10659523Y-135278571D01*
X10597619Y-135030952D01*
X10597619Y-134845238D01*
X10659523Y-134597619D01*
X10721428Y-134473809D01*
X10845238Y-134350000D01*
X11030952Y-134288095D01*
X11154761Y-134288095D01*
X11340476Y-134350000D01*
X11402380Y-134411904D01*
D10*
D11*
X10659523Y-185588095D02*
X10659523Y-184288095D01*
X10969047Y-184288095D01*
X11154761Y-184350000D01*
X11278571Y-184473809D01*
X11340476Y-184597619D01*
X11402380Y-184845238D01*
X11402380Y-185030952D01*
X11340476Y-185278571D01*
X11278571Y-185402380D01*
X11154761Y-185526190D01*
X10969047Y-185588095D01*
X10659523Y-185588095D01*
D10*
D11*
X287002200Y-60000000D02*
X285002200Y-60000000D01*
D10*
D11*
X287002200Y-110000000D02*
X285002200Y-110000000D01*
D10*
D11*
X287002200Y-160000000D02*
X285002200Y-160000000D01*
D10*
D11*
X285692676Y-35216666D02*
X286311723Y-35216666D01*
X285568866Y-35588095D02*
X286002200Y-34288095D01*
X286435533Y-35588095D01*
D10*
D11*
X286095057Y-84907142D02*
X286280771Y-84969047D01*
X286342676Y-85030952D01*
X286404580Y-85154761D01*
X286404580Y-85340476D01*
X286342676Y-85464285D01*
X286280771Y-85526190D01*
X286156961Y-85588095D01*
X285661723Y-85588095D01*
X285661723Y-84288095D01*
X286095057Y-84288095D01*
X286218866Y-84350000D01*
X286280771Y-84411904D01*
X286342676Y-84535714D01*
X286342676Y-84659523D01*
X286280771Y-84783333D01*
X286218866Y-84845238D01*
X286095057Y-84907142D01*
X285661723Y-84907142D01*
D10*
D11*
X286404580Y-135464285D02*
X286342676Y-135526190D01*
X286156961Y-135588095D01*
X286033152Y-135588095D01*
X285847438Y-135526190D01*
X285723628Y-135402380D01*
X285661723Y-135278571D01*
X285599819Y-135030952D01*
X285599819Y-134845238D01*
X285661723Y-134597619D01*
X285723628Y-134473809D01*
X285847438Y-134350000D01*
X286033152Y-134288095D01*
X286156961Y-134288095D01*
X286342676Y-134350000D01*
X286404580Y-134411904D01*
D10*
D11*
X285661723Y-185588095D02*
X285661723Y-184288095D01*
X285971247Y-184288095D01*
X286156961Y-184350000D01*
X286280771Y-184473809D01*
X286342676Y-184597619D01*
X286404580Y-184845238D01*
X286404580Y-185030952D01*
X286342676Y-185278571D01*
X286280771Y-185402380D01*
X286156961Y-185526190D01*
X285971247Y-185588095D01*
X285661723Y-185588095D01*
D10*
D11*
X200434342Y-193785771D02*
X200434342Y-192285771D01*
X200791485Y-192285771D01*
X201005771Y-192357200D01*
X201148628Y-192500057D01*
X201220057Y-192642914D01*
X201291485Y-192928628D01*
X201291485Y-193142914D01*
X201220057Y-193428628D01*
X201148628Y-193571485D01*
X201005771Y-193714342D01*
X200791485Y-193785771D01*
X200434342Y-193785771D01*
X202577200Y-193785771D02*
X202577200Y-193000057D01*
X202505771Y-192857200D01*
X202362914Y-192785771D01*
X202077200Y-192785771D01*
X201934342Y-192857200D01*
X202577200Y-193714342D02*
X202434342Y-193785771D01*
X202077200Y-193785771D01*
X201934342Y-193714342D01*
X201862914Y-193571485D01*
X201862914Y-193428628D01*
X201934342Y-193285771D01*
X202077200Y-193214342D01*
X202434342Y-193214342D01*
X202577200Y-193142914D01*
X203077200Y-192785771D02*
X203648628Y-192785771D01*
X203291485Y-192285771D02*
X203291485Y-193571485D01*
X203362914Y-193714342D01*
X203505771Y-193785771D01*
X203648628Y-193785771D01*
X204720057Y-193714342D02*
X204577200Y-193785771D01*
X204291485Y-193785771D01*
X204148628Y-193714342D01*
X204077200Y-193571485D01*
X204077200Y-193000057D01*
X204148628Y-192857200D01*
X204291485Y-192785771D01*
X204577200Y-192785771D01*
X204720057Y-192857200D01*
X204791485Y-193000057D01*
X204791485Y-193142914D01*
X204077200Y-193285771D01*
X205434342Y-193642914D02*
X205505771Y-193714342D01*
X205434342Y-193785771D01*
X205362914Y-193714342D01*
X205434342Y-193642914D01*
X205434342Y-193785771D01*
X205434342Y-192857200D02*
X205505771Y-192928628D01*
X205434342Y-193000057D01*
X205362914Y-192928628D01*
X205434342Y-192857200D01*
X205434342Y-193000057D01*
D10*
D11*
X177002200Y-194507200D02*
X285002200Y-194507200D01*
D10*
D11*
X178434342Y-196585771D02*
X178434342Y-195085771D01*
X179291485Y-196585771D02*
X178648628Y-195728628D01*
X179291485Y-195085771D02*
X178434342Y-195942914D01*
X179934342Y-196585771D02*
X179934342Y-195585771D01*
X179934342Y-195085771D02*
X179862914Y-195157200D01*
X179934342Y-195228628D01*
X180005771Y-195157200D01*
X179934342Y-195085771D01*
X179934342Y-195228628D01*
X181505771Y-196442914D02*
X181434342Y-196514342D01*
X181220057Y-196585771D01*
X181077200Y-196585771D01*
X180862914Y-196514342D01*
X180720057Y-196371485D01*
X180648628Y-196228628D01*
X180577200Y-195942914D01*
X180577200Y-195728628D01*
X180648628Y-195442914D01*
X180720057Y-195300057D01*
X180862914Y-195157200D01*
X181077200Y-195085771D01*
X181220057Y-195085771D01*
X181434342Y-195157200D01*
X181505771Y-195228628D01*
X182791485Y-196585771D02*
X182791485Y-195800057D01*
X182720057Y-195657200D01*
X182577200Y-195585771D01*
X182291485Y-195585771D01*
X182148628Y-195657200D01*
X182791485Y-196514342D02*
X182648628Y-196585771D01*
X182291485Y-196585771D01*
X182148628Y-196514342D01*
X182077200Y-196371485D01*
X182077200Y-196228628D01*
X182148628Y-196085771D01*
X182291485Y-196014342D01*
X182648628Y-196014342D01*
X182791485Y-195942914D01*
X184148628Y-196585771D02*
X184148628Y-195085771D01*
X184148628Y-196514342D02*
X184005771Y-196585771D01*
X183720057Y-196585771D01*
X183577200Y-196514342D01*
X183505771Y-196442914D01*
X183434342Y-196300057D01*
X183434342Y-195871485D01*
X183505771Y-195728628D01*
X183577200Y-195657200D01*
X183720057Y-195585771D01*
X184005771Y-195585771D01*
X184148628Y-195657200D01*
X186005771Y-195800057D02*
X186505771Y-195800057D01*
X186720057Y-196585771D02*
X186005771Y-196585771D01*
X186005771Y-195085771D01*
X186720057Y-195085771D01*
X187362914Y-196442914D02*
X187434342Y-196514342D01*
X187362914Y-196585771D01*
X187291485Y-196514342D01*
X187362914Y-196442914D01*
X187362914Y-196585771D01*
X188077200Y-196585771D02*
X188077200Y-195085771D01*
X188434342Y-195085771D01*
X188648628Y-195157200D01*
X188791485Y-195300057D01*
X188862914Y-195442914D01*
X188934342Y-195728628D01*
X188934342Y-195942914D01*
X188862914Y-196228628D01*
X188791485Y-196371485D01*
X188648628Y-196514342D01*
X188434342Y-196585771D01*
X188077200Y-196585771D01*
X189577200Y-196442914D02*
X189648628Y-196514342D01*
X189577200Y-196585771D01*
X189505771Y-196514342D01*
X189577200Y-196442914D01*
X189577200Y-196585771D01*
X190220057Y-196157200D02*
X190934342Y-196157200D01*
X190077200Y-196585771D02*
X190577200Y-195085771D01*
X191077200Y-196585771D01*
X191577200Y-196442914D02*
X191648628Y-196514342D01*
X191577200Y-196585771D01*
X191505771Y-196514342D01*
X191577200Y-196442914D01*
X191577200Y-196585771D01*
X194577200Y-196585771D02*
X194577200Y-195085771D01*
X194720057Y-196014342D02*
X195148628Y-196585771D01*
X195148628Y-195585771D02*
X194577200Y-196157200D01*
X195791485Y-196585771D02*
X195791485Y-195585771D01*
X195791485Y-195085771D02*
X195720057Y-195157200D01*
X195791485Y-195228628D01*
X195862914Y-195157200D01*
X195791485Y-195085771D01*
X195791485Y-195228628D01*
X197148628Y-196514342D02*
X197005771Y-196585771D01*
X196720057Y-196585771D01*
X196577200Y-196514342D01*
X196505771Y-196442914D01*
X196434342Y-196300057D01*
X196434342Y-195871485D01*
X196505771Y-195728628D01*
X196577200Y-195657200D01*
X196720057Y-195585771D01*
X197005771Y-195585771D01*
X197148628Y-195657200D01*
X198434342Y-196585771D02*
X198434342Y-195800057D01*
X198362914Y-195657200D01*
X198220057Y-195585771D01*
X197934342Y-195585771D01*
X197791485Y-195657200D01*
X198434342Y-196514342D02*
X198291485Y-196585771D01*
X197934342Y-196585771D01*
X197791485Y-196514342D01*
X197720057Y-196371485D01*
X197720057Y-196228628D01*
X197791485Y-196085771D01*
X197934342Y-196014342D01*
X198291485Y-196014342D01*
X198434342Y-195942914D01*
X199791485Y-196585771D02*
X199791485Y-195085771D01*
X199791485Y-196514342D02*
X199648628Y-196585771D01*
X199362914Y-196585771D01*
X199220057Y-196514342D01*
X199148628Y-196442914D01*
X199077200Y-196300057D01*
X199077200Y-195871485D01*
X199148628Y-195728628D01*
X199220057Y-195657200D01*
X199362914Y-195585771D01*
X199648628Y-195585771D01*
X199791485Y-195657200D01*
X202291485Y-195085771D02*
X202005771Y-195085771D01*
X201862914Y-195157200D01*
X201791485Y-195228628D01*
X201648628Y-195442914D01*
X201577200Y-195728628D01*
X201577200Y-196300057D01*
X201648628Y-196442914D01*
X201720057Y-196514342D01*
X201862914Y-196585771D01*
X202148628Y-196585771D01*
X202291485Y-196514342D01*
X202362914Y-196442914D01*
X202434342Y-196300057D01*
X202434342Y-195942914D01*
X202362914Y-195800057D01*
X202291485Y-195728628D01*
X202148628Y-195657200D01*
X201862914Y-195657200D01*
X201720057Y-195728628D01*
X201648628Y-195800057D01*
X201577200Y-195942914D01*
X203077200Y-196442914D02*
X203148628Y-196514342D01*
X203077200Y-196585771D01*
X203005771Y-196514342D01*
X203077200Y-196442914D01*
X203077200Y-196585771D01*
X204077200Y-195085771D02*
X204220057Y-195085771D01*
X204362914Y-195157200D01*
X204434342Y-195228628D01*
X204505771Y-195371485D01*
X204577200Y-195657200D01*
X204577200Y-196014342D01*
X204505771Y-196300057D01*
X204434342Y-196442914D01*
X204362914Y-196514342D01*
X204220057Y-196585771D01*
X204077200Y-196585771D01*
X203934342Y-196514342D01*
X203862914Y-196442914D01*
X203791485Y-196300057D01*
X203720057Y-196014342D01*
X203720057Y-195657200D01*
X203791485Y-195371485D01*
X203862914Y-195228628D01*
X203934342Y-195157200D01*
X204077200Y-195085771D01*
X205220057Y-196442914D02*
X205291485Y-196514342D01*
X205220057Y-196585771D01*
X205148628Y-196514342D01*
X205220057Y-196442914D01*
X205220057Y-196585771D01*
X205791485Y-195085771D02*
X206791485Y-195085771D01*
X206148628Y-196585771D01*
X207362914Y-196014342D02*
X208505771Y-196014342D01*
X209005771Y-195585771D02*
X209577200Y-195585771D01*
X209220057Y-196585771D02*
X209220057Y-195300057D01*
X209291485Y-195157200D01*
X209434342Y-195085771D01*
X209577200Y-195085771D01*
X210148628Y-196585771D02*
X210434342Y-196585771D01*
X210577200Y-196514342D01*
X210648628Y-196442914D01*
X210791485Y-196228628D01*
X210862914Y-195942914D01*
X210862914Y-195371485D01*
X210791485Y-195228628D01*
X210720057Y-195157200D01*
X210577200Y-195085771D01*
X210291485Y-195085771D01*
X210148628Y-195157200D01*
X210077200Y-195228628D01*
X210005771Y-195371485D01*
X210005771Y-195728628D01*
X210077200Y-195871485D01*
X210148628Y-195942914D01*
X210291485Y-196014342D01*
X210577200Y-196014342D01*
X210720057Y-195942914D01*
X210791485Y-195871485D01*
X210862914Y-195728628D01*
X212148628Y-196585771D02*
X212148628Y-195800057D01*
X212077200Y-195657200D01*
X211934342Y-195585771D01*
X211648628Y-195585771D01*
X211505771Y-195657200D01*
X212148628Y-196514342D02*
X212005771Y-196585771D01*
X211648628Y-196585771D01*
X211505771Y-196514342D01*
X211434342Y-196371485D01*
X211434342Y-196228628D01*
X211505771Y-196085771D01*
X211648628Y-196014342D01*
X212005771Y-196014342D01*
X212148628Y-195942914D01*
X212791485Y-195228628D02*
X212862914Y-195157200D01*
X213005771Y-195085771D01*
X213362914Y-195085771D01*
X213505771Y-195157200D01*
X213577200Y-195228628D01*
X213648628Y-195371485D01*
X213648628Y-195514342D01*
X213577200Y-195728628D01*
X212720057Y-196585771D01*
X213648628Y-196585771D01*
X214934342Y-196585771D02*
X214934342Y-195085771D01*
X214934342Y-196514342D02*
X214791485Y-196585771D01*
X214505771Y-196585771D01*
X214362914Y-196514342D01*
X214291485Y-196442914D01*
X214220057Y-196300057D01*
X214220057Y-195871485D01*
X214291485Y-195728628D01*
X214362914Y-195657200D01*
X214505771Y-195585771D01*
X214791485Y-195585771D01*
X214934342Y-195657200D01*
X216291485Y-196514342D02*
X216148628Y-196585771D01*
X215862914Y-196585771D01*
X215720057Y-196514342D01*
X215648628Y-196442914D01*
X215577200Y-196300057D01*
X215577200Y-195871485D01*
X215648628Y-195728628D01*
X215720057Y-195657200D01*
X215862914Y-195585771D01*
X216148628Y-195585771D01*
X216291485Y-195657200D01*
X217505771Y-196514342D02*
X217362914Y-196585771D01*
X217077200Y-196585771D01*
X216934342Y-196514342D01*
X216862914Y-196371485D01*
X216862914Y-195800057D01*
X216934342Y-195657200D01*
X217077200Y-195585771D01*
X217362914Y-195585771D01*
X217505771Y-195657200D01*
X217577200Y-195800057D01*
X217577200Y-195942914D01*
X216862914Y-196085771D01*
X218862914Y-196585771D02*
X218862914Y-195085771D01*
X218862914Y-196514342D02*
X218720057Y-196585771D01*
X218434342Y-196585771D01*
X218291485Y-196514342D01*
X218220057Y-196442914D01*
X218148628Y-196300057D01*
X218148628Y-195871485D01*
X218220057Y-195728628D01*
X218291485Y-195657200D01*
X218434342Y-195585771D01*
X218720057Y-195585771D01*
X218862914Y-195657200D01*
X219862914Y-195085771D02*
X220005771Y-195085771D01*
X220148628Y-195157200D01*
X220220057Y-195228628D01*
X220291485Y-195371485D01*
X220362914Y-195657200D01*
X220362914Y-196014342D01*
X220291485Y-196300057D01*
X220220057Y-196442914D01*
X220148628Y-196514342D01*
X220005771Y-196585771D01*
X219862914Y-196585771D01*
X219720057Y-196514342D01*
X219648628Y-196442914D01*
X219577200Y-196300057D01*
X219505771Y-196014342D01*
X219505771Y-195657200D01*
X219577200Y-195371485D01*
X219648628Y-195228628D01*
X219720057Y-195157200D01*
X219862914Y-195085771D01*
X220862914Y-195085771D02*
X221862914Y-195085771D01*
X221220057Y-196585771D01*
X222220057Y-196014342D02*
X222291485Y-195942914D01*
X222434342Y-195871485D01*
X222720057Y-196014342D01*
X222862914Y-195942914D01*
X222934342Y-195871485D01*
X224291485Y-196585771D02*
X223434342Y-196585771D01*
X223862914Y-196585771D02*
X223862914Y-195085771D01*
X223720057Y-195300057D01*
X223577200Y-195442914D01*
X223434342Y-195514342D01*
X225720057Y-196585771D02*
X224862914Y-196585771D01*
X225291485Y-196585771D02*
X225291485Y-195085771D01*
X225148628Y-195300057D01*
X225005771Y-195442914D01*
X224862914Y-195514342D01*
X227005771Y-195085771D02*
X226720057Y-195085771D01*
X226577200Y-195157200D01*
X226505771Y-195228628D01*
X226362914Y-195442914D01*
X226291485Y-195728628D01*
X226291485Y-196300057D01*
X226362914Y-196442914D01*
X226434342Y-196514342D01*
X226577200Y-196585771D01*
X226862914Y-196585771D01*
X227005771Y-196514342D01*
X227077200Y-196442914D01*
X227148628Y-196300057D01*
X227148628Y-195942914D01*
X227077200Y-195800057D01*
X227005771Y-195728628D01*
X226862914Y-195657200D01*
X226577200Y-195657200D01*
X226434342Y-195728628D01*
X226362914Y-195800057D01*
X226291485Y-195942914D01*
X227577199Y-196014342D02*
X227648628Y-195942914D01*
X227791485Y-195871485D01*
X228077199Y-196014342D01*
X228220057Y-195942914D01*
X228291485Y-195871485D01*
X229505771Y-195585771D02*
X229505771Y-196585771D01*
X228862914Y-195585771D02*
X228862914Y-196371485D01*
X228934342Y-196514342D01*
X229077200Y-196585771D01*
X229291485Y-196585771D01*
X229434342Y-196514342D01*
X229505771Y-196442914D01*
X230220057Y-196585771D02*
X230220057Y-195085771D01*
X230220057Y-195657200D02*
X230362914Y-195585771D01*
X230648628Y-195585771D01*
X230791485Y-195657200D01*
X230862914Y-195728628D01*
X230934342Y-195871485D01*
X230934342Y-196300057D01*
X230862914Y-196442914D01*
X230791485Y-196514342D01*
X230648628Y-196585771D01*
X230362914Y-196585771D01*
X230220057Y-196514342D01*
X232220057Y-195585771D02*
X232220057Y-196585771D01*
X231577200Y-195585771D02*
X231577200Y-196371485D01*
X231648628Y-196514342D01*
X231791485Y-196585771D01*
X232005771Y-196585771D01*
X232148628Y-196514342D01*
X232220057Y-196442914D01*
X232934342Y-195585771D02*
X232934342Y-196585771D01*
X232934342Y-195728628D02*
X233005771Y-195657200D01*
X233148628Y-195585771D01*
X233362914Y-195585771D01*
X233505771Y-195657200D01*
X233577200Y-195800057D01*
X233577200Y-196585771D01*
X234077200Y-195585771D02*
X234648628Y-195585771D01*
X234291485Y-195085771D02*
X234291485Y-196371485D01*
X234362914Y-196514342D01*
X234505771Y-196585771D01*
X234648628Y-196585771D01*
X235791485Y-195585771D02*
X235791485Y-196585771D01*
X235148628Y-195585771D02*
X235148628Y-196371485D01*
X235220057Y-196514342D01*
X235362914Y-196585771D01*
X235577200Y-196585771D01*
X235720057Y-196514342D01*
X235791485Y-196442914D01*
X236434342Y-195228628D02*
X236505771Y-195157200D01*
X236648628Y-195085771D01*
X237005771Y-195085771D01*
X237148628Y-195157200D01*
X237220057Y-195228628D01*
X237291485Y-195371485D01*
X237291485Y-195514342D01*
X237220057Y-195728628D01*
X236362914Y-196585771D01*
X237291485Y-196585771D01*
X237862914Y-195228628D02*
X237934342Y-195157200D01*
X238077200Y-195085771D01*
X238434342Y-195085771D01*
X238577200Y-195157200D01*
X238648628Y-195228628D01*
X238720057Y-195371485D01*
X238720057Y-195514342D01*
X238648628Y-195728628D01*
X237791485Y-196585771D01*
X238720057Y-196585771D01*
X239362914Y-196442914D02*
X239434342Y-196514342D01*
X239362914Y-196585771D01*
X239291485Y-196514342D01*
X239362914Y-196442914D01*
X239362914Y-196585771D01*
X240362914Y-195085771D02*
X240505771Y-195085771D01*
X240648628Y-195157200D01*
X240720057Y-195228628D01*
X240791485Y-195371485D01*
X240862914Y-195657200D01*
X240862914Y-196014342D01*
X240791485Y-196300057D01*
X240720057Y-196442914D01*
X240648628Y-196514342D01*
X240505771Y-196585771D01*
X240362914Y-196585771D01*
X240220057Y-196514342D01*
X240148628Y-196442914D01*
X240077200Y-196300057D01*
X240005771Y-196014342D01*
X240005771Y-195657200D01*
X240077200Y-195371485D01*
X240148628Y-195228628D01*
X240220057Y-195157200D01*
X240362914Y-195085771D01*
X242148628Y-195585771D02*
X242148628Y-196585771D01*
X241791485Y-195014342D02*
X241434342Y-196085771D01*
X242362914Y-196085771D01*
X242934342Y-196442914D02*
X243005771Y-196514342D01*
X242934342Y-196585771D01*
X242862914Y-196514342D01*
X242934342Y-196442914D01*
X242934342Y-196585771D01*
X244434342Y-196585771D02*
X243577199Y-196585771D01*
X244005771Y-196585771D02*
X244005771Y-195085771D01*
X243862914Y-195300057D01*
X243720057Y-195442914D01*
X243577199Y-195514342D01*
D10*
D11*
X177002200Y-191507200D02*
X285002200Y-191507200D01*
D10*
D12*
X264411485Y-193785771D02*
X263911485Y-193071485D01*
X263554342Y-193785771D02*
X263554342Y-192285771D01*
X264125771Y-192285771D01*
X264268628Y-192357200D01*
X264340057Y-192428628D01*
X264411485Y-192571485D01*
X264411485Y-192785771D01*
X264340057Y-192928628D01*
X264268628Y-193000057D01*
X264125771Y-193071485D01*
X263554342Y-193071485D01*
X265625771Y-193714342D02*
X265482914Y-193785771D01*
X265197200Y-193785771D01*
X265054342Y-193714342D01*
X264982914Y-193571485D01*
X264982914Y-193000057D01*
X265054342Y-192857200D01*
X265197200Y-192785771D01*
X265482914Y-192785771D01*
X265625771Y-192857200D01*
X265697200Y-193000057D01*
X265697200Y-193142914D01*
X264982914Y-193285771D01*
X266197200Y-192785771D02*
X266554342Y-193785771D01*
X266911485Y-192785771D01*
X267482914Y-193642914D02*
X267554342Y-193714342D01*
X267482914Y-193785771D01*
X267411485Y-193714342D01*
X267482914Y-193642914D01*
X267482914Y-193785771D01*
X267482914Y-192857200D02*
X267554342Y-192928628D01*
X267482914Y-193000057D01*
X267411485Y-192928628D01*
X267482914Y-192857200D01*
X267482914Y-193000057D01*
D10*
D11*
X178362914Y-193714342D02*
X178577200Y-193785771D01*
X178934342Y-193785771D01*
X179077200Y-193714342D01*
X179148628Y-193642914D01*
X179220057Y-193500057D01*
X179220057Y-193357200D01*
X179148628Y-193214342D01*
X179077200Y-193142914D01*
X178934342Y-193071485D01*
X178648628Y-193000057D01*
X178505771Y-192928628D01*
X178434342Y-192857200D01*
X178362914Y-192714342D01*
X178362914Y-192571485D01*
X178434342Y-192428628D01*
X178505771Y-192357200D01*
X178648628Y-192285771D01*
X179005771Y-192285771D01*
X179220057Y-192357200D01*
X179862914Y-193785771D02*
X179862914Y-192785771D01*
X179862914Y-192285771D02*
X179791485Y-192357200D01*
X179862914Y-192428628D01*
X179934342Y-192357200D01*
X179862914Y-192285771D01*
X179862914Y-192428628D01*
X180434342Y-192785771D02*
X181220057Y-192785771D01*
X180434342Y-193785771D01*
X181220057Y-193785771D01*
X182362914Y-193714342D02*
X182220057Y-193785771D01*
X181934342Y-193785771D01*
X181791485Y-193714342D01*
X181720057Y-193571485D01*
X181720057Y-193000057D01*
X181791485Y-192857200D01*
X181934342Y-192785771D01*
X182220057Y-192785771D01*
X182362914Y-192857200D01*
X182434342Y-193000057D01*
X182434342Y-193142914D01*
X181720057Y-193285771D01*
X183077200Y-193642914D02*
X183148628Y-193714342D01*
X183077200Y-193785771D01*
X183005771Y-193714342D01*
X183077200Y-193642914D01*
X183077200Y-193785771D01*
X183077200Y-192857200D02*
X183148628Y-192928628D01*
X183077200Y-193000057D01*
X183005771Y-192928628D01*
X183077200Y-192857200D01*
X183077200Y-193000057D01*
X184862914Y-193357200D02*
X185577200Y-193357200D01*
X184720057Y-193785771D02*
X185220057Y-192285771D01*
X185720057Y-193785771D01*
X186862914Y-192785771D02*
X186862914Y-193785771D01*
X186505771Y-192214342D02*
X186148628Y-193285771D01*
X187077200Y-193285771D01*
D10*
D11*
X263434342Y-196585771D02*
X263434342Y-195085771D01*
X264791485Y-196585771D02*
X264791485Y-195085771D01*
X264791485Y-196514342D02*
X264648628Y-196585771D01*
X264362914Y-196585771D01*
X264220057Y-196514342D01*
X264148628Y-196442914D01*
X264077200Y-196300057D01*
X264077200Y-195871485D01*
X264148628Y-195728628D01*
X264220057Y-195657200D01*
X264362914Y-195585771D01*
X264648628Y-195585771D01*
X264791485Y-195657200D01*
X265505771Y-196442914D02*
X265577200Y-196514342D01*
X265505771Y-196585771D01*
X265434342Y-196514342D01*
X265505771Y-196442914D01*
X265505771Y-196585771D01*
X265505771Y-195657200D02*
X265577200Y-195728628D01*
X265505771Y-195800057D01*
X265434342Y-195728628D01*
X265505771Y-195657200D01*
X265505771Y-195800057D01*
X268148628Y-196585771D02*
X267291485Y-196585771D01*
X267720057Y-196585771D02*
X267720057Y-195085771D01*
X267577200Y-195300057D01*
X267434342Y-195442914D01*
X267291485Y-195514342D01*
X269862914Y-195014342D02*
X268577200Y-196942914D01*
X271148628Y-196585771D02*
X270291485Y-196585771D01*
X270720057Y-196585771D02*
X270720057Y-195085771D01*
X270577200Y-195300057D01*
X270434342Y-195442914D01*
X270291485Y-195514342D01*
D10*
D11*
X177002200Y-187507200D02*
X285002200Y-187507200D01*
D10*
D13*
X178714580Y-188211961D02*
X179857438Y-188211961D01*
X179036009Y-190211961D02*
X179286009Y-188211961D01*
X180274104Y-190211961D02*
X180440771Y-188878628D01*
X180524104Y-188211961D02*
X180416961Y-188307200D01*
X180500295Y-188402438D01*
X180607438Y-188307200D01*
X180524104Y-188211961D01*
X180500295Y-188402438D01*
X181107438Y-188878628D02*
X181869342Y-188878628D01*
X181476485Y-188211961D02*
X181262200Y-189926247D01*
X181333628Y-190116723D01*
X181512200Y-190211961D01*
X181702676Y-190211961D01*
X182655057Y-190211961D02*
X182476485Y-190116723D01*
X182405057Y-189926247D01*
X182619342Y-188211961D01*
X184190771Y-190116723D02*
X183988390Y-190211961D01*
X183607438Y-190211961D01*
X183428866Y-190116723D01*
X183357438Y-189926247D01*
X183452676Y-189164342D01*
X183571723Y-188973866D01*
X183774104Y-188878628D01*
X184155057Y-188878628D01*
X184333628Y-188973866D01*
X184405057Y-189164342D01*
X184381247Y-189354819D01*
X183405057Y-189545295D01*
X185155057Y-190021485D02*
X185238390Y-190116723D01*
X185131247Y-190211961D01*
X185047914Y-190116723D01*
X185155057Y-190021485D01*
X185131247Y-190211961D01*
X185286009Y-188973866D02*
X185369342Y-189069104D01*
X185262200Y-189164342D01*
X185178866Y-189069104D01*
X185286009Y-188973866D01*
X185262200Y-189164342D01*
D10*
D11*
X178934342Y-185600057D02*
X178434342Y-185600057D01*
X178434342Y-186385771D02*
X178434342Y-184885771D01*
X179148628Y-184885771D01*
X179720057Y-186385771D02*
X179720057Y-185385771D01*
X179720057Y-184885771D02*
X179648628Y-184957200D01*
X179720057Y-185028628D01*
X179791485Y-184957200D01*
X179720057Y-184885771D01*
X179720057Y-185028628D01*
X180648628Y-186385771D02*
X180505771Y-186314342D01*
X180434342Y-186171485D01*
X180434342Y-184885771D01*
X181791485Y-186314342D02*
X181648628Y-186385771D01*
X181362914Y-186385771D01*
X181220057Y-186314342D01*
X181148628Y-186171485D01*
X181148628Y-185600057D01*
X181220057Y-185457200D01*
X181362914Y-185385771D01*
X181648628Y-185385771D01*
X181791485Y-185457200D01*
X181862914Y-185600057D01*
X181862914Y-185742914D01*
X181148628Y-185885771D01*
X182505771Y-186242914D02*
X182577200Y-186314342D01*
X182505771Y-186385771D01*
X182434342Y-186314342D01*
X182505771Y-186242914D01*
X182505771Y-186385771D01*
X182505771Y-185457200D02*
X182577200Y-185528628D01*
X182505771Y-185600057D01*
X182434342Y-185528628D01*
X182505771Y-185457200D01*
X182505771Y-185600057D01*
X184148628Y-185385771D02*
X184720057Y-185385771D01*
X184362914Y-184885771D02*
X184362914Y-186171485D01*
X184434342Y-186314342D01*
X184577200Y-186385771D01*
X184720057Y-186385771D01*
X185220057Y-185385771D02*
X185220057Y-186885771D01*
X185220057Y-185457200D02*
X185362914Y-185385771D01*
X185648628Y-185385771D01*
X185791485Y-185457200D01*
X185862914Y-185528628D01*
X185934342Y-185671485D01*
X185934342Y-186100057D01*
X185862914Y-186242914D01*
X185791485Y-186314342D01*
X185648628Y-186385771D01*
X185362914Y-186385771D01*
X185220057Y-186314342D01*
X187220057Y-185385771D02*
X187220057Y-186385771D01*
X186862914Y-184814342D02*
X186505771Y-185885771D01*
X187434342Y-185885771D01*
X188291485Y-184885771D02*
X188434342Y-184885771D01*
X188577200Y-184957200D01*
X188648628Y-185028628D01*
X188720057Y-185171485D01*
X188791485Y-185457200D01*
X188791485Y-185814342D01*
X188720057Y-186100057D01*
X188648628Y-186242914D01*
X188577200Y-186314342D01*
X188434342Y-186385771D01*
X188291485Y-186385771D01*
X188148628Y-186314342D01*
X188077200Y-186242914D01*
X188005771Y-186100057D01*
X187934342Y-185814342D01*
X187934342Y-185457200D01*
X188005771Y-185171485D01*
X188077200Y-185028628D01*
X188148628Y-184957200D01*
X188291485Y-184885771D01*
X190148628Y-184885771D02*
X189434342Y-184885771D01*
X189362914Y-185600057D01*
X189434342Y-185528628D01*
X189577200Y-185457200D01*
X189934342Y-185457200D01*
X190077200Y-185528628D01*
X190148628Y-185600057D01*
X190220057Y-185742914D01*
X190220057Y-186100057D01*
X190148628Y-186242914D01*
X190077200Y-186314342D01*
X189934342Y-186385771D01*
X189577200Y-186385771D01*
X189434342Y-186314342D01*
X189362914Y-186242914D01*
X191505771Y-184885771D02*
X191220057Y-184885771D01*
X191077200Y-184957200D01*
X191005771Y-185028628D01*
X190862914Y-185242914D01*
X190791485Y-185528628D01*
X190791485Y-186100057D01*
X190862914Y-186242914D01*
X190934342Y-186314342D01*
X191077200Y-186385771D01*
X191362914Y-186385771D01*
X191505771Y-186314342D01*
X191577200Y-186242914D01*
X191648628Y-186100057D01*
X191648628Y-185742914D01*
X191577200Y-185600057D01*
X191505771Y-185528628D01*
X191362914Y-185457200D01*
X191077200Y-185457200D01*
X190934342Y-185528628D01*
X190862914Y-185600057D01*
X190791485Y-185742914D01*
X192291485Y-186242914D02*
X192362914Y-186314342D01*
X192291485Y-186385771D01*
X192220057Y-186314342D01*
X192291485Y-186242914D01*
X192291485Y-186385771D01*
X193005771Y-186385771D02*
X193005771Y-184885771D01*
X193148628Y-185814342D02*
X193577200Y-186385771D01*
X193577200Y-185385771D02*
X193005771Y-185957200D01*
X194220057Y-186385771D02*
X194220057Y-185385771D01*
X194220057Y-184885771D02*
X194148628Y-184957200D01*
X194220057Y-185028628D01*
X194291485Y-184957200D01*
X194220057Y-184885771D01*
X194220057Y-185028628D01*
X195577200Y-186314342D02*
X195434342Y-186385771D01*
X195148628Y-186385771D01*
X195005771Y-186314342D01*
X194934342Y-186242914D01*
X194862914Y-186100057D01*
X194862914Y-185671485D01*
X194934342Y-185528628D01*
X195005771Y-185457200D01*
X195148628Y-185385771D01*
X195434342Y-185385771D01*
X195577200Y-185457200D01*
X196862914Y-186385771D02*
X196862914Y-185600057D01*
X196791485Y-185457200D01*
X196648628Y-185385771D01*
X196362914Y-185385771D01*
X196220057Y-185457200D01*
X196862914Y-186314342D02*
X196720057Y-186385771D01*
X196362914Y-186385771D01*
X196220057Y-186314342D01*
X196148628Y-186171485D01*
X196148628Y-186028628D01*
X196220057Y-185885771D01*
X196362914Y-185814342D01*
X196720057Y-185814342D01*
X196862914Y-185742914D01*
X198220057Y-186385771D02*
X198220057Y-184885771D01*
X198220057Y-186314342D02*
X198077200Y-186385771D01*
X197791485Y-186385771D01*
X197648628Y-186314342D01*
X197577200Y-186242914D01*
X197505771Y-186100057D01*
X197505771Y-185671485D01*
X197577200Y-185528628D01*
X197648628Y-185457200D01*
X197791485Y-185385771D01*
X198077200Y-185385771D01*
X198220057Y-185457200D01*
X198577200Y-186528628D02*
X199720057Y-186528628D01*
X200077200Y-185385771D02*
X200077200Y-186885771D01*
X200077200Y-185457200D02*
X200220057Y-185385771D01*
X200505771Y-185385771D01*
X200648628Y-185457200D01*
X200720057Y-185528628D01*
X200791485Y-185671485D01*
X200791485Y-186100057D01*
X200720057Y-186242914D01*
X200648628Y-186314342D01*
X200505771Y-186385771D01*
X200220057Y-186385771D01*
X200077200Y-186314342D01*
X202077200Y-186314342D02*
X201934342Y-186385771D01*
X201648628Y-186385771D01*
X201505771Y-186314342D01*
X201434342Y-186242914D01*
X201362914Y-186100057D01*
X201362914Y-185671485D01*
X201434342Y-185528628D01*
X201505771Y-185457200D01*
X201648628Y-185385771D01*
X201934342Y-185385771D01*
X202077200Y-185457200D01*
X202720057Y-186385771D02*
X202720057Y-184885771D01*
X202720057Y-185457200D02*
X202862914Y-185385771D01*
X203148628Y-185385771D01*
X203291485Y-185457200D01*
X203362914Y-185528628D01*
X203434342Y-185671485D01*
X203434342Y-186100057D01*
X203362914Y-186242914D01*
X203291485Y-186314342D01*
X203148628Y-186385771D01*
X202862914Y-186385771D01*
X202720057Y-186314342D01*
D10*
D11*
X177002200Y-181507200D02*
X285002200Y-181507200D01*
D10*
D11*
X178362914Y-183614342D02*
X178577200Y-183685771D01*
X178934342Y-183685771D01*
X179077200Y-183614342D01*
X179148628Y-183542914D01*
X179220057Y-183400057D01*
X179220057Y-183257200D01*
X179148628Y-183114342D01*
X179077200Y-183042914D01*
X178934342Y-182971485D01*
X178648628Y-182900057D01*
X178505771Y-182828628D01*
X178434342Y-182757200D01*
X178362914Y-182614342D01*
X178362914Y-182471485D01*
X178434342Y-182328628D01*
X178505771Y-182257200D01*
X178648628Y-182185771D01*
X179005771Y-182185771D01*
X179220057Y-182257200D01*
X179862914Y-183685771D02*
X179862914Y-182185771D01*
X180505771Y-183685771D02*
X180505771Y-182900057D01*
X180434342Y-182757200D01*
X180291485Y-182685771D01*
X180077200Y-182685771D01*
X179934342Y-182757200D01*
X179862914Y-182828628D01*
X181791485Y-183614342D02*
X181648628Y-183685771D01*
X181362914Y-183685771D01*
X181220057Y-183614342D01*
X181148628Y-183471485D01*
X181148628Y-182900057D01*
X181220057Y-182757200D01*
X181362914Y-182685771D01*
X181648628Y-182685771D01*
X181791485Y-182757200D01*
X181862914Y-182900057D01*
X181862914Y-183042914D01*
X181148628Y-183185771D01*
X183077200Y-183614342D02*
X182934342Y-183685771D01*
X182648628Y-183685771D01*
X182505771Y-183614342D01*
X182434342Y-183471485D01*
X182434342Y-182900057D01*
X182505771Y-182757200D01*
X182648628Y-182685771D01*
X182934342Y-182685771D01*
X183077200Y-182757200D01*
X183148628Y-182900057D01*
X183148628Y-183042914D01*
X182434342Y-183185771D01*
X183577200Y-182685771D02*
X184148628Y-182685771D01*
X183791485Y-182185771D02*
X183791485Y-183471485D01*
X183862914Y-183614342D01*
X184005771Y-183685771D01*
X184148628Y-183685771D01*
X184648628Y-183542914D02*
X184720057Y-183614342D01*
X184648628Y-183685771D01*
X184577200Y-183614342D01*
X184648628Y-183542914D01*
X184648628Y-183685771D01*
X184648628Y-182757200D02*
X184720057Y-182828628D01*
X184648628Y-182900057D01*
X184577200Y-182828628D01*
X184648628Y-182757200D01*
X184648628Y-182900057D01*
D10*
D12*
D10*
D11*
D10*
D11*
D10*
D11*
D10*
D11*
D10*
D11*
X197002200Y-191507200D02*
X197002200Y-194507200D01*
D10*
D11*
X261002200Y-191507200D02*
X261002200Y-198007200D01*
D14*
X182452380Y-97071428D02*
X181452380Y-97071428D01*
X181785714Y-96595238D02*
X182452380Y-96595238D01*
X181880952Y-96595238D02*
X181833333Y-96547619D01*
X181785714Y-96452380D01*
X181785714Y-96309523D01*
X181833333Y-96214285D01*
X181928571Y-96166666D01*
X182452380Y-96166666D01*
X182071428Y-95690476D02*
X182071428Y-94928571D01*
X182452380Y-95309523D02*
X181690476Y-95309523D01*
X193619047Y-111071428D02*
X194380952Y-111071428D01*
X194000000Y-111452380D02*
X194000000Y-110690476D01*
X203219047Y-111271428D02*
X203980952Y-111271428D01*
X182642857Y-110652380D02*
X182309523Y-110176190D01*
X182071428Y-110652380D02*
X182071428Y-109652380D01*
X182452380Y-109652380D01*
X182547619Y-109700000D01*
X182595238Y-109747619D01*
X182642857Y-109842857D01*
X182642857Y-109985714D01*
X182595238Y-110080952D01*
X182547619Y-110128571D01*
X182452380Y-110176190D01*
X182071428Y-110176190D01*
X183071428Y-109985714D02*
X183071428Y-110985714D01*
X183071428Y-110033333D02*
X183166666Y-109985714D01*
X183357142Y-109985714D01*
X183452380Y-110033333D01*
X183500000Y-110080952D01*
X183547619Y-110176190D01*
X183547619Y-110461904D01*
X183500000Y-110557142D01*
X183452380Y-110604761D01*
X183357142Y-110652380D01*
X183166666Y-110652380D01*
X183071428Y-110604761D01*
X183976190Y-110652380D02*
X183976190Y-109985714D01*
X183976190Y-110176190D02*
X184023809Y-110080952D01*
X184071428Y-110033333D01*
X184166666Y-109985714D01*
X184261904Y-109985714D01*
X184738095Y-110652380D02*
X184642857Y-110604761D01*
X184595238Y-110557142D01*
X184547619Y-110461904D01*
X184547619Y-110176190D01*
X184595238Y-110080952D01*
X184642857Y-110033333D01*
X184738095Y-109985714D01*
X184880952Y-109985714D01*
X184976190Y-110033333D01*
X185023809Y-110080952D01*
X185071428Y-110176190D01*
X185071428Y-110461904D01*
X185023809Y-110557142D01*
X184976190Y-110604761D01*
X184880952Y-110652380D01*
X184738095Y-110652380D01*
X185928571Y-109985714D02*
X185928571Y-110795238D01*
X185880952Y-110890476D01*
X185833333Y-110938095D01*
X185738095Y-110985714D01*
X185595238Y-110985714D01*
X185500000Y-110938095D01*
X185928571Y-110604761D02*
X185833333Y-110652380D01*
X185642857Y-110652380D01*
X185547619Y-110604761D01*
X185500000Y-110557142D01*
X185452380Y-110461904D01*
X185452380Y-110176190D01*
X185500000Y-110080952D01*
X185547619Y-110033333D01*
X185642857Y-109985714D01*
X185833333Y-109985714D01*
X185928571Y-110033333D01*
X203892857Y-109492857D02*
X204107142Y-109564285D01*
X204178571Y-109635714D01*
X204250000Y-109778571D01*
X204250000Y-109992857D01*
X204178571Y-110135714D01*
X204107142Y-110207142D01*
X203964285Y-110278571D01*
X203392857Y-110278571D01*
X203392857Y-108778571D01*
X203892857Y-108778571D01*
X204035714Y-108850000D01*
X204107142Y-108921428D01*
X204178571Y-109064285D01*
X204178571Y-109207142D01*
X204107142Y-109350000D01*
X204035714Y-109421428D01*
X203892857Y-109492857D01*
X203392857Y-109492857D01*
X204821428Y-109850000D02*
X205535714Y-109850000D01*
X204678571Y-110278571D02*
X205178571Y-108778571D01*
X205678571Y-110278571D01*
X205964285Y-108778571D02*
X206821428Y-108778571D01*
X206392857Y-110278571D02*
X206392857Y-108778571D01*
X182452380Y-106071428D02*
X181452380Y-106071428D01*
X181785714Y-105595238D02*
X182452380Y-105595238D01*
X181880952Y-105595238D02*
X181833333Y-105547619D01*
X181785714Y-105452380D01*
X181785714Y-105309523D01*
X181833333Y-105214285D01*
X181928571Y-105166666D01*
X182452380Y-105166666D01*
X182071428Y-104690476D02*
X182071428Y-103928571D01*
D10*
X187050000Y-108116666D02*
X187083333Y-108150000D01*
X187116666Y-108250000D01*
X187116666Y-108316666D01*
X187083333Y-108416666D01*
X187016666Y-108483333D01*
X186950000Y-108516666D01*
X186816666Y-108550000D01*
X186716666Y-108550000D01*
X186583333Y-108516666D01*
X186516666Y-108483333D01*
X186450000Y-108416666D01*
X186416666Y-108316666D01*
X186416666Y-108250000D01*
X186450000Y-108150000D01*
X186483333Y-108116666D01*
X186650000Y-107516666D02*
X187116666Y-107516666D01*
X186383333Y-107683333D02*
X186883333Y-107850000D01*
X186883333Y-107416666D01*
X211833333Y-98316666D02*
X211600000Y-97983333D01*
X211433333Y-98316666D02*
X211433333Y-97616666D01*
X211700000Y-97616666D01*
X211766666Y-97650000D01*
X211800000Y-97683333D01*
X211833333Y-97750000D01*
X211833333Y-97850000D01*
X211800000Y-97916666D01*
X211766666Y-97950000D01*
X211700000Y-97983333D01*
X211433333Y-97983333D01*
X212066666Y-97616666D02*
X212533333Y-97616666D01*
X212233333Y-98316666D01*
X212383333Y-101383333D02*
X212316666Y-101350000D01*
X212250000Y-101283333D01*
X212150000Y-101183333D01*
X212083333Y-101150000D01*
X212016666Y-101150000D01*
X212050000Y-101316666D02*
X211983333Y-101283333D01*
X211916666Y-101216666D01*
X211883333Y-101083333D01*
X211883333Y-100850000D01*
X211916666Y-100716666D01*
X211983333Y-100650000D01*
X212050000Y-100616666D01*
X212183333Y-100616666D01*
X212250000Y-100650000D01*
X212316666Y-100716666D01*
X212350000Y-100850000D01*
X212350000Y-101083333D01*
X212316666Y-101216666D01*
X212250000Y-101283333D01*
X212183333Y-101316666D01*
X212050000Y-101316666D01*
X212583333Y-100616666D02*
X213016666Y-100616666D01*
X212783333Y-100883333D01*
X212883333Y-100883333D01*
X212950000Y-100916666D01*
X212983333Y-100950000D01*
X213016666Y-101016666D01*
X213016666Y-101183333D01*
X212983333Y-101250000D01*
X212950000Y-101283333D01*
X212883333Y-101316666D01*
X212683333Y-101316666D01*
X212616666Y-101283333D01*
X212583333Y-101250000D01*
X193933333Y-100583333D02*
X193866666Y-100550000D01*
X193800000Y-100483333D01*
X193700000Y-100383333D01*
X193633333Y-100350000D01*
X193566666Y-100350000D01*
X193600000Y-100516666D02*
X193533333Y-100483333D01*
X193466666Y-100416666D01*
X193433333Y-100283333D01*
X193433333Y-100050000D01*
X193466666Y-99916666D01*
X193533333Y-99850000D01*
X193600000Y-99816666D01*
X193733333Y-99816666D01*
X193800000Y-99850000D01*
X193866666Y-99916666D01*
X193900000Y-100050000D01*
X193900000Y-100283333D01*
X193866666Y-100416666D01*
X193800000Y-100483333D01*
X193733333Y-100516666D01*
X193600000Y-100516666D01*
X194566666Y-100516666D02*
X194166666Y-100516666D01*
X194366666Y-100516666D02*
X194366666Y-99816666D01*
X194300000Y-99916666D01*
X194233333Y-99983333D01*
X194166666Y-100016666D01*
X188566666Y-96116666D02*
X188233333Y-96350000D01*
X188566666Y-96516666D02*
X187866666Y-96516666D01*
X187866666Y-96250000D01*
X187900000Y-96183333D01*
X187933333Y-96150000D01*
X188000000Y-96116666D01*
X188100000Y-96116666D01*
X188166666Y-96150000D01*
X188200000Y-96183333D01*
X188233333Y-96250000D01*
X188233333Y-96516666D01*
X187933333Y-95850000D02*
X187900000Y-95816666D01*
X187866666Y-95750000D01*
X187866666Y-95583333D01*
X187900000Y-95516666D01*
X187933333Y-95483333D01*
X188000000Y-95450000D01*
X188066666Y-95450000D01*
X188166666Y-95483333D01*
X188566666Y-95883333D01*
X188566666Y-95450000D01*
X211833333Y-97316666D02*
X211600000Y-96983333D01*
X211433333Y-97316666D02*
X211433333Y-96616666D01*
X211700000Y-96616666D01*
X211766666Y-96650000D01*
X211800000Y-96683333D01*
X211833333Y-96750000D01*
X211833333Y-96850000D01*
X211800000Y-96916666D01*
X211766666Y-96950000D01*
X211700000Y-96983333D01*
X211433333Y-96983333D01*
X212233333Y-96916666D02*
X212166666Y-96883333D01*
X212133333Y-96850000D01*
X212100000Y-96783333D01*
X212100000Y-96750000D01*
X212133333Y-96683333D01*
X212166666Y-96650000D01*
X212233333Y-96616666D01*
X212366666Y-96616666D01*
X212433333Y-96650000D01*
X212466666Y-96683333D01*
X212500000Y-96750000D01*
X212500000Y-96783333D01*
X212466666Y-96850000D01*
X212433333Y-96883333D01*
X212366666Y-96916666D01*
X212233333Y-96916666D01*
X212166666Y-96950000D01*
X212133333Y-96983333D01*
X212100000Y-97050000D01*
X212100000Y-97183333D01*
X212133333Y-97250000D01*
X212166666Y-97283333D01*
X212233333Y-97316666D01*
X212366666Y-97316666D01*
X212433333Y-97283333D01*
X212466666Y-97250000D01*
X212500000Y-97183333D01*
X212500000Y-97050000D01*
X212466666Y-96983333D01*
X212433333Y-96950000D01*
X212366666Y-96916666D01*
X196083333Y-94916666D02*
X195850000Y-94583333D01*
X195683333Y-94916666D02*
X195683333Y-94216666D01*
X195950000Y-94216666D01*
X196016666Y-94250000D01*
X196050000Y-94283333D01*
X196083333Y-94350000D01*
X196083333Y-94450000D01*
X196050000Y-94516666D01*
X196016666Y-94550000D01*
X195950000Y-94583333D01*
X195683333Y-94583333D01*
X196683333Y-94216666D02*
X196550000Y-94216666D01*
X196483333Y-94250000D01*
X196450000Y-94283333D01*
X196383333Y-94383333D01*
X196350000Y-94516666D01*
X196350000Y-94783333D01*
X196383333Y-94850000D01*
X196416666Y-94883333D01*
X196483333Y-94916666D01*
X196616666Y-94916666D01*
X196683333Y-94883333D01*
X196716666Y-94850000D01*
X196750000Y-94783333D01*
X196750000Y-94616666D01*
X196716666Y-94550000D01*
X196683333Y-94516666D01*
X196616666Y-94483333D01*
X196483333Y-94483333D01*
X196416666Y-94516666D01*
X196383333Y-94550000D01*
X196350000Y-94616666D01*
X196883333Y-96050000D02*
X196850000Y-96083333D01*
X196750000Y-96116666D01*
X196683333Y-96116666D01*
X196583333Y-96083333D01*
X196516666Y-96016666D01*
X196483333Y-95950000D01*
X196450000Y-95816666D01*
X196450000Y-95716666D01*
X196483333Y-95583333D01*
X196516666Y-95516666D01*
X196583333Y-95450000D01*
X196683333Y-95416666D01*
X196750000Y-95416666D01*
X196850000Y-95450000D01*
X196883333Y-95483333D01*
X197516666Y-95416666D02*
X197183333Y-95416666D01*
X197150000Y-95750000D01*
X197183333Y-95716666D01*
X197250000Y-95683333D01*
X197416666Y-95683333D01*
X197483333Y-95716666D01*
X197516666Y-95750000D01*
X197550000Y-95816666D01*
X197550000Y-95983333D01*
X197516666Y-96050000D01*
X197483333Y-96083333D01*
X197416666Y-96116666D01*
X197250000Y-96116666D01*
X197183333Y-96083333D01*
X197150000Y-96050000D01*
X182416666Y-103533333D02*
X182983333Y-103533333D01*
X183050000Y-103500000D01*
X183083333Y-103466666D01*
X183116666Y-103400000D01*
X183116666Y-103266666D01*
X183083333Y-103200000D01*
X183050000Y-103166666D01*
X182983333Y-103133333D01*
X182416666Y-103133333D01*
X183116666Y-102433333D02*
X183116666Y-102833333D01*
X183116666Y-102633333D02*
X182416666Y-102633333D01*
X182516666Y-102700000D01*
X182583333Y-102766666D01*
X182616666Y-102833333D01*
X177266666Y-95616666D02*
X177266666Y-96116666D01*
X177233333Y-96216666D01*
X177166666Y-96283333D01*
X177066666Y-96316666D01*
X177000000Y-96316666D01*
X177533333Y-95616666D02*
X177966666Y-95616666D01*
X177733333Y-95883333D01*
X177833333Y-95883333D01*
X177900000Y-95916666D01*
X177933333Y-95950000D01*
X177966666Y-96016666D01*
X177966666Y-96183333D01*
X177933333Y-96250000D01*
X177900000Y-96283333D01*
X177833333Y-96316666D01*
X177633333Y-96316666D01*
X177566666Y-96283333D01*
X177533333Y-96250000D01*
X207216666Y-90933333D02*
X207716666Y-90933333D01*
X207816666Y-90966666D01*
X207883333Y-91033333D01*
X207916666Y-91133333D01*
X207916666Y-91200000D01*
X207216666Y-90300000D02*
X207216666Y-90433333D01*
X207250000Y-90500000D01*
X207283333Y-90533333D01*
X207383333Y-90600000D01*
X207516666Y-90633333D01*
X207783333Y-90633333D01*
X207850000Y-90600000D01*
X207883333Y-90566666D01*
X207916666Y-90500000D01*
X207916666Y-90366666D01*
X207883333Y-90300000D01*
X207850000Y-90266666D01*
X207783333Y-90233333D01*
X207616666Y-90233333D01*
X207550000Y-90266666D01*
X207516666Y-90300000D01*
X207483333Y-90366666D01*
X207483333Y-90500000D01*
X207516666Y-90566666D01*
X207550000Y-90600000D01*
X207616666Y-90633333D01*
X206750000Y-94616666D02*
X206783333Y-94650000D01*
X206816666Y-94750000D01*
X206816666Y-94816666D01*
X206783333Y-94916666D01*
X206716666Y-94983333D01*
X206650000Y-95016666D01*
X206516666Y-95050000D01*
X206416666Y-95050000D01*
X206283333Y-95016666D01*
X206216666Y-94983333D01*
X206150000Y-94916666D01*
X206116666Y-94816666D01*
X206116666Y-94750000D01*
X206150000Y-94650000D01*
X206183333Y-94616666D01*
X206116666Y-94383333D02*
X206116666Y-93916666D01*
X206816666Y-94216666D01*
X184483333Y-90066666D02*
X184483333Y-89366666D01*
X184650000Y-89366666D01*
X184750000Y-89400000D01*
X184816666Y-89466666D01*
X184850000Y-89533333D01*
X184883333Y-89666666D01*
X184883333Y-89766666D01*
X184850000Y-89900000D01*
X184816666Y-89966666D01*
X184750000Y-90033333D01*
X184650000Y-90066666D01*
X184483333Y-90066666D01*
X185550000Y-90066666D02*
X185150000Y-90066666D01*
X185350000Y-90066666D02*
X185350000Y-89366666D01*
X185283333Y-89466666D01*
X185216666Y-89533333D01*
X185150000Y-89566666D01*
X203366666Y-107616666D02*
X203366666Y-108116666D01*
X203333333Y-108216666D01*
X203266666Y-108283333D01*
X203166666Y-108316666D01*
X203100000Y-108316666D01*
X204000000Y-107850000D02*
X204000000Y-108316666D01*
X203833333Y-107583333D02*
X203666666Y-108083333D01*
X204100000Y-108083333D01*
X181000000Y-100616666D02*
X181033333Y-100650000D01*
X181066666Y-100750000D01*
X181066666Y-100816666D01*
X181033333Y-100916666D01*
X180966666Y-100983333D01*
X180900000Y-101016666D01*
X180766666Y-101050000D01*
X180666666Y-101050000D01*
X180533333Y-101016666D01*
X180466666Y-100983333D01*
X180400000Y-100916666D01*
X180366666Y-100816666D01*
X180366666Y-100750000D01*
X180400000Y-100650000D01*
X180433333Y-100616666D01*
X181066666Y-99950000D02*
X181066666Y-100350000D01*
X181066666Y-100150000D02*
X180366666Y-100150000D01*
X180466666Y-100216666D01*
X180533333Y-100283333D01*
X180566666Y-100350000D01*
X205616666Y-101116666D02*
X205283333Y-101350000D01*
X205616666Y-101516666D02*
X204916666Y-101516666D01*
X204916666Y-101250000D01*
X204950000Y-101183333D01*
X204983333Y-101150000D01*
X205050000Y-101116666D01*
X205150000Y-101116666D01*
X205216666Y-101150000D01*
X205250000Y-101183333D01*
X205283333Y-101250000D01*
X205283333Y-101516666D01*
X205616666Y-100783333D02*
X205616666Y-100650000D01*
X205583333Y-100583333D01*
X205550000Y-100550000D01*
X205450000Y-100483333D01*
X205316666Y-100450000D01*
X205050000Y-100450000D01*
X204983333Y-100483333D01*
X204950000Y-100516666D01*
X204916666Y-100583333D01*
X204916666Y-100716666D01*
X204950000Y-100783333D01*
X204983333Y-100816666D01*
X205050000Y-100850000D01*
X205216666Y-100850000D01*
X205283333Y-100816666D01*
X205316666Y-100783333D01*
X205350000Y-100716666D01*
X205350000Y-100583333D01*
X205316666Y-100516666D01*
X205283333Y-100483333D01*
X205216666Y-100450000D01*
X191050000Y-106116666D02*
X191083333Y-106150000D01*
X191116666Y-106250000D01*
X191116666Y-106316666D01*
X191083333Y-106416666D01*
X191016666Y-106483333D01*
X190950000Y-106516666D01*
X190816666Y-106550000D01*
X190716666Y-106550000D01*
X190583333Y-106516666D01*
X190516666Y-106483333D01*
X190450000Y-106416666D01*
X190416666Y-106316666D01*
X190416666Y-106250000D01*
X190450000Y-106150000D01*
X190483333Y-106116666D01*
X190483333Y-105850000D02*
X190450000Y-105816666D01*
X190416666Y-105750000D01*
X190416666Y-105583333D01*
X190450000Y-105516666D01*
X190483333Y-105483333D01*
X190550000Y-105450000D01*
X190616666Y-105450000D01*
X190716666Y-105483333D01*
X191116666Y-105883333D01*
X191116666Y-105450000D01*
X205216666Y-105983333D02*
X205716666Y-105983333D01*
X205816666Y-106016666D01*
X205883333Y-106083333D01*
X205916666Y-106183333D01*
X205916666Y-106250000D01*
X205916666Y-105650000D02*
X205216666Y-105650000D01*
X205216666Y-105383333D01*
X205250000Y-105316666D01*
X205283333Y-105283333D01*
X205350000Y-105250000D01*
X205450000Y-105250000D01*
X205516666Y-105283333D01*
X205550000Y-105316666D01*
X205583333Y-105383333D01*
X205583333Y-105650000D01*
X205283333Y-104983333D02*
X205250000Y-104950000D01*
X205216666Y-104883333D01*
X205216666Y-104716666D01*
X205250000Y-104650000D01*
X205283333Y-104616666D01*
X205350000Y-104583333D01*
X205416666Y-104583333D01*
X205516666Y-104616666D01*
X205916666Y-105016666D01*
X205916666Y-104583333D01*
X198883333Y-101516666D02*
X198650000Y-101183333D01*
X198483333Y-101516666D02*
X198483333Y-100816666D01*
X198750000Y-100816666D01*
X198816666Y-100850000D01*
X198850000Y-100883333D01*
X198883333Y-100950000D01*
X198883333Y-101050000D01*
X198850000Y-101116666D01*
X198816666Y-101150000D01*
X198750000Y-101183333D01*
X198483333Y-101183333D01*
X199483333Y-101050000D02*
X199483333Y-101516666D01*
X199316666Y-100783333D02*
X199150000Y-101283333D01*
X199583333Y-101283333D01*
X202966666Y-93216666D02*
X202966666Y-93783333D01*
X203000000Y-93850000D01*
X203033333Y-93883333D01*
X203100000Y-93916666D01*
X203233333Y-93916666D01*
X203300000Y-93883333D01*
X203333333Y-93850000D01*
X203366666Y-93783333D01*
X203366666Y-93216666D01*
X204000000Y-93450000D02*
X204000000Y-93916666D01*
X203833333Y-93183333D02*
X203666666Y-93683333D01*
X204100000Y-93683333D01*
X192883333Y-102116666D02*
X192650000Y-101783333D01*
X192483333Y-102116666D02*
X192483333Y-101416666D01*
X192750000Y-101416666D01*
X192816666Y-101450000D01*
X192850000Y-101483333D01*
X192883333Y-101550000D01*
X192883333Y-101650000D01*
X192850000Y-101716666D01*
X192816666Y-101750000D01*
X192750000Y-101783333D01*
X192483333Y-101783333D01*
X193516666Y-101416666D02*
X193183333Y-101416666D01*
X193150000Y-101750000D01*
X193183333Y-101716666D01*
X193250000Y-101683333D01*
X193416666Y-101683333D01*
X193483333Y-101716666D01*
X193516666Y-101750000D01*
X193550000Y-101816666D01*
X193550000Y-101983333D01*
X193516666Y-102050000D01*
X193483333Y-102083333D01*
X193416666Y-102116666D01*
X193250000Y-102116666D01*
X193183333Y-102083333D01*
X193150000Y-102050000D01*
X201933333Y-103583333D02*
X201866666Y-103550000D01*
X201800000Y-103483333D01*
X201700000Y-103383333D01*
X201633333Y-103350000D01*
X201566666Y-103350000D01*
X201600000Y-103516666D02*
X201533333Y-103483333D01*
X201466666Y-103416666D01*
X201433333Y-103283333D01*
X201433333Y-103050000D01*
X201466666Y-102916666D01*
X201533333Y-102850000D01*
X201600000Y-102816666D01*
X201733333Y-102816666D01*
X201800000Y-102850000D01*
X201866666Y-102916666D01*
X201900000Y-103050000D01*
X201900000Y-103283333D01*
X201866666Y-103416666D01*
X201800000Y-103483333D01*
X201733333Y-103516666D01*
X201600000Y-103516666D01*
X202166666Y-102883333D02*
X202200000Y-102850000D01*
X202266666Y-102816666D01*
X202433333Y-102816666D01*
X202500000Y-102850000D01*
X202533333Y-102883333D01*
X202566666Y-102950000D01*
X202566666Y-103016666D01*
X202533333Y-103116666D01*
X202133333Y-103516666D01*
X202566666Y-103516666D01*
X194250000Y-108616666D02*
X194283333Y-108650000D01*
X194316666Y-108750000D01*
X194316666Y-108816666D01*
X194283333Y-108916666D01*
X194216666Y-108983333D01*
X194150000Y-109016666D01*
X194016666Y-109050000D01*
X193916666Y-109050000D01*
X193783333Y-109016666D01*
X193716666Y-108983333D01*
X193650000Y-108916666D01*
X193616666Y-108816666D01*
X193616666Y-108750000D01*
X193650000Y-108650000D01*
X193683333Y-108616666D01*
X193616666Y-108383333D02*
X193616666Y-107950000D01*
X193883333Y-108183333D01*
X193883333Y-108083333D01*
X193916666Y-108016666D01*
X193950000Y-107983333D01*
X194016666Y-107950000D01*
X194183333Y-107950000D01*
X194250000Y-107983333D01*
X194283333Y-108016666D01*
X194316666Y-108083333D01*
X194316666Y-108283333D01*
X194283333Y-108350000D01*
X194250000Y-108383333D01*
X183116666Y-108116666D02*
X182783333Y-108350000D01*
X183116666Y-108516666D02*
X182416666Y-108516666D01*
X182416666Y-108250000D01*
X182450000Y-108183333D01*
X182483333Y-108150000D01*
X182550000Y-108116666D01*
X182650000Y-108116666D01*
X182716666Y-108150000D01*
X182750000Y-108183333D01*
X182783333Y-108250000D01*
X182783333Y-108516666D01*
X182416666Y-107883333D02*
X182416666Y-107450000D01*
X182683333Y-107683333D01*
X182683333Y-107583333D01*
X182716666Y-107516666D01*
X182750000Y-107483333D01*
X182816666Y-107450000D01*
X182983333Y-107450000D01*
X183050000Y-107483333D01*
X183083333Y-107516666D01*
X183116666Y-107583333D01*
X183116666Y-107783333D01*
X183083333Y-107850000D01*
X183050000Y-107883333D01*
X184066666Y-96116666D02*
X183733333Y-96350000D01*
X184066666Y-96516666D02*
X183366666Y-96516666D01*
X183366666Y-96250000D01*
X183400000Y-96183333D01*
X183433333Y-96150000D01*
X183500000Y-96116666D01*
X183600000Y-96116666D01*
X183666666Y-96150000D01*
X183700000Y-96183333D01*
X183733333Y-96250000D01*
X183733333Y-96516666D01*
X184066666Y-95450000D02*
X184066666Y-95850000D01*
X184066666Y-95650000D02*
X183366666Y-95650000D01*
X183466666Y-95716666D01*
X183533333Y-95783333D01*
X183566666Y-95850000D01*
X190483333Y-95516666D02*
X190483333Y-94816666D01*
X190650000Y-94816666D01*
X190750000Y-94850000D01*
X190816666Y-94916666D01*
X190850000Y-94983333D01*
X190883333Y-95116666D01*
X190883333Y-95216666D01*
X190850000Y-95350000D01*
X190816666Y-95416666D01*
X190750000Y-95483333D01*
X190650000Y-95516666D01*
X190483333Y-95516666D01*
X191116666Y-94816666D02*
X191550000Y-94816666D01*
X191316666Y-95083333D01*
X191416666Y-95083333D01*
X191483333Y-95116666D01*
X191516666Y-95150000D01*
X191550000Y-95216666D01*
X191550000Y-95383333D01*
X191516666Y-95450000D01*
X191483333Y-95483333D01*
X191416666Y-95516666D01*
X191216666Y-95516666D01*
X191150000Y-95483333D01*
X191116666Y-95450000D01*
X186483333Y-90066666D02*
X186483333Y-89366666D01*
X186650000Y-89366666D01*
X186750000Y-89400000D01*
X186816666Y-89466666D01*
X186850000Y-89533333D01*
X186883333Y-89666666D01*
X186883333Y-89766666D01*
X186850000Y-89900000D01*
X186816666Y-89966666D01*
X186750000Y-90033333D01*
X186650000Y-90066666D01*
X186483333Y-90066666D01*
X187150000Y-89433333D02*
X187183333Y-89400000D01*
X187250000Y-89366666D01*
X187416666Y-89366666D01*
X187483333Y-89400000D01*
X187516666Y-89433333D01*
X187550000Y-89500000D01*
X187550000Y-89566666D01*
X187516666Y-89666666D01*
X187116666Y-90066666D01*
X187550000Y-90066666D01*
X199883333Y-100450000D02*
X199850000Y-100483333D01*
X199750000Y-100516666D01*
X199683333Y-100516666D01*
X199583333Y-100483333D01*
X199516666Y-100416666D01*
X199483333Y-100350000D01*
X199450000Y-100216666D01*
X199450000Y-100116666D01*
X199483333Y-99983333D01*
X199516666Y-99916666D01*
X199583333Y-99850000D01*
X199683333Y-99816666D01*
X199750000Y-99816666D01*
X199850000Y-99850000D01*
X199883333Y-99883333D01*
X200483333Y-99816666D02*
X200350000Y-99816666D01*
X200283333Y-99850000D01*
X200250000Y-99883333D01*
X200183333Y-99983333D01*
X200150000Y-100116666D01*
X200150000Y-100383333D01*
X200183333Y-100450000D01*
X200216666Y-100483333D01*
X200283333Y-100516666D01*
X200416666Y-100516666D01*
X200483333Y-100483333D01*
X200516666Y-100450000D01*
X200550000Y-100383333D01*
X200550000Y-100216666D01*
X200516666Y-100150000D01*
X200483333Y-100116666D01*
X200416666Y-100083333D01*
X200283333Y-100083333D01*
X200216666Y-100116666D01*
X200183333Y-100150000D01*
X200150000Y-100216666D01*
X195466666Y-102816666D02*
X195466666Y-103383333D01*
X195500000Y-103450000D01*
X195533333Y-103483333D01*
X195600000Y-103516666D01*
X195733333Y-103516666D01*
X195800000Y-103483333D01*
X195833333Y-103450000D01*
X195866666Y-103383333D01*
X195866666Y-102816666D01*
X196166666Y-102883333D02*
X196200000Y-102850000D01*
X196266666Y-102816666D01*
X196433333Y-102816666D01*
X196500000Y-102850000D01*
X196533333Y-102883333D01*
X196566666Y-102950000D01*
X196566666Y-103016666D01*
X196533333Y-103116666D01*
X196133333Y-103516666D01*
X196566666Y-103516666D01*
X199666666Y-93216666D02*
X199666666Y-93783333D01*
X199700000Y-93850000D01*
X199733333Y-93883333D01*
X199800000Y-93916666D01*
X199933333Y-93916666D01*
X200000000Y-93883333D01*
X200033333Y-93850000D01*
X200066666Y-93783333D01*
X200066666Y-93216666D01*
X200333333Y-93216666D02*
X200766666Y-93216666D01*
X200533333Y-93483333D01*
X200633333Y-93483333D01*
X200700000Y-93516666D01*
X200733333Y-93550000D01*
X200766666Y-93616666D01*
X200766666Y-93783333D01*
X200733333Y-93850000D01*
X200700000Y-93883333D01*
X200633333Y-93916666D01*
X200433333Y-93916666D01*
X200366666Y-93883333D01*
X200333333Y-93850000D01*
X211866666Y-104066666D02*
X211866666Y-104566666D01*
X211833333Y-104666666D01*
X211766666Y-104733333D01*
X211666666Y-104766666D01*
X211600000Y-104766666D01*
X212200000Y-104766666D02*
X212200000Y-104066666D01*
X212466666Y-104066666D01*
X212533333Y-104100000D01*
X212566666Y-104133333D01*
X212600000Y-104200000D01*
X212600000Y-104300000D01*
X212566666Y-104366666D01*
X212533333Y-104400000D01*
X212466666Y-104433333D01*
X212200000Y-104433333D01*
X213266666Y-104766666D02*
X212866666Y-104766666D01*
X213066666Y-104766666D02*
X213066666Y-104066666D01*
X213000000Y-104166666D01*
X212933333Y-104233333D01*
X212866666Y-104266666D01*
D15*
X188735000Y-107738748D02*
X188735000Y-108261252D01*
X187265000Y-107738748D02*
X187265000Y-108261252D01*
X209727064Y-97265000D02*
X209272936Y-97265000D01*
X209727064Y-98735000D02*
X209272936Y-98735000D01*
X211714500Y-102714500D02*
X211714500Y-99285500D01*
X208285500Y-102714500D02*
X211714500Y-102714500D01*
X211714500Y-99285500D02*
X208285500Y-99285500D01*
X208285500Y-99285500D02*
X208285500Y-102714500D01*
X192285500Y-99714500D02*
X195714500Y-99714500D01*
X192285500Y-96285500D02*
X192285500Y-99714500D01*
X195714500Y-99714500D02*
X195714500Y-96285500D01*
X195714500Y-96285500D02*
X192285500Y-96285500D01*
X187735000Y-95772936D02*
X187735000Y-96227064D01*
X186265000Y-95772936D02*
X186265000Y-96227064D01*
X209272936Y-96735000D02*
X209727064Y-96735000D01*
X209272936Y-95265000D02*
X209727064Y-95265000D01*
X193772936Y-95735000D02*
X194227064Y-95735000D01*
X193772936Y-94265000D02*
X194227064Y-94265000D01*
X196265000Y-97738748D02*
X196265000Y-98261252D01*
X197735000Y-97738748D02*
X197735000Y-98261252D01*
X188730500Y-105746500D02*
X188730500Y-98253500D01*
X183777500Y-105746500D02*
X188730500Y-105746500D01*
X183269500Y-98253500D02*
X183269500Y-105238500D01*
X188730500Y-98253500D02*
X183269500Y-98253500D01*
D16*
X183523500Y-105556000D02*
G75*
G03*
X183523500Y-105556000I-63500J0D01*
G01*
D15*
X174362500Y-96600000D02*
X174612500Y-96600000D01*
X178762500Y-104400000D02*
X178762500Y-103950000D01*
X176912500Y-104400000D02*
X178762500Y-104400000D01*
X178762500Y-96600000D02*
X178762500Y-97050000D01*
X179312500Y-98800000D02*
X179312500Y-99250000D01*
X174362500Y-104400000D02*
X174612500Y-104400000D01*
X179312500Y-98800000D02*
X178862500Y-98800000D01*
X176912500Y-96600000D02*
X178762500Y-96600000D01*
X205610000Y-91510000D02*
X205610000Y-93010000D01*
X206610000Y-93010000D02*
X206610000Y-88990000D01*
X191390000Y-90700000D02*
X191890000Y-90700000D01*
X206110000Y-89490000D02*
X206110000Y-90700000D01*
X192390000Y-91510000D02*
X192390000Y-93010000D01*
X191090000Y-90810000D02*
X191090000Y-93310000D01*
X206610000Y-88990000D02*
X191390000Y-88990000D01*
X206610000Y-91510000D02*
X205610000Y-91510000D01*
X191390000Y-88990000D02*
X191390000Y-93010000D01*
X191890000Y-89490000D02*
X206110000Y-89490000D01*
X191390000Y-91510000D02*
X192390000Y-91510000D01*
X191890000Y-90700000D02*
X191890000Y-89490000D01*
X206110000Y-90700000D02*
X206610000Y-90700000D01*
X191390000Y-93010000D02*
X206610000Y-93010000D01*
X191090000Y-93310000D02*
X193590000Y-93310000D01*
X205765000Y-97261252D02*
X205765000Y-96738748D01*
X207235000Y-97261252D02*
X207235000Y-96738748D01*
X184040000Y-91000000D02*
X184040000Y-93860000D01*
X184040000Y-93860000D02*
X185960000Y-93860000D01*
X185960000Y-93860000D02*
X185960000Y-91000000D01*
X181330000Y-94670000D02*
X181330000Y-96000000D01*
X178670000Y-97210000D02*
X178670000Y-97330000D01*
X181330000Y-97210000D02*
X181330000Y-97330000D01*
X178670000Y-97330000D02*
X181330000Y-97330000D01*
X180000000Y-94670000D02*
X181330000Y-94670000D01*
X202910000Y-107390000D02*
X200410000Y-107390000D01*
X202610000Y-111710000D02*
X202610000Y-107690000D01*
X202910000Y-109890000D02*
X202910000Y-107390000D01*
X194890000Y-111710000D02*
X202610000Y-111710000D01*
X202610000Y-109190000D02*
X201610000Y-109190000D01*
X201610000Y-109190000D02*
X201610000Y-107690000D01*
X195390000Y-110000000D02*
X194890000Y-110000000D01*
X202110000Y-111210000D02*
X195390000Y-111210000D01*
X202610000Y-107690000D02*
X194890000Y-107690000D01*
X195390000Y-111210000D02*
X195390000Y-110000000D01*
X202610000Y-110000000D02*
X202110000Y-110000000D01*
X195890000Y-109190000D02*
X195890000Y-107690000D01*
X194890000Y-107690000D02*
X194890000Y-111710000D01*
X194890000Y-109190000D02*
X195890000Y-109190000D01*
X202110000Y-110000000D02*
X202110000Y-111210000D01*
X182735000Y-100238748D02*
X182735000Y-100761252D01*
X181265000Y-100238748D02*
X181265000Y-100761252D01*
X205765000Y-101227064D02*
X205765000Y-100772936D01*
X207235000Y-101227064D02*
X207235000Y-100772936D01*
X192735000Y-105738748D02*
X192735000Y-106261252D01*
X191265000Y-105738748D02*
X191265000Y-106261252D01*
X203000000Y-106900000D02*
X203000000Y-104100000D01*
X203000000Y-104100000D02*
X205000000Y-104100000D01*
X205000000Y-104100000D02*
X205000000Y-106900000D01*
X205000000Y-106900000D02*
X203000000Y-106900000D01*
X199227064Y-103235000D02*
X198772936Y-103235000D01*
X199227064Y-101765000D02*
X198772936Y-101765000D01*
X205214500Y-94285500D02*
X201785500Y-94285500D01*
X201785500Y-94285500D02*
X201785500Y-97714500D01*
X201785500Y-97714500D02*
X205214500Y-97714500D01*
X205214500Y-97714500D02*
X205214500Y-94285500D01*
X192772936Y-102265000D02*
X193227064Y-102265000D01*
X192772936Y-103735000D02*
X193227064Y-103735000D01*
X199095000Y-107278000D02*
X202460500Y-107278000D01*
X202905000Y-103722000D02*
X199095000Y-103722000D01*
X199095000Y-103722000D02*
X199095000Y-107278000D01*
X202905000Y-106833500D02*
X202905000Y-103722000D01*
D16*
X202841500Y-107151000D02*
G75*
G03*
X202841500Y-107151000I-63500J0D01*
G01*
D15*
X181330000Y-106210000D02*
X181330000Y-106330000D01*
X178670000Y-106210000D02*
X178670000Y-106330000D01*
X181330000Y-103670000D02*
X181330000Y-105000000D01*
X178670000Y-106330000D02*
X181330000Y-106330000D01*
X180000000Y-103670000D02*
X181330000Y-103670000D01*
X193265000Y-105738748D02*
X193265000Y-106261252D01*
X194735000Y-105738748D02*
X194735000Y-106261252D01*
X184735000Y-107772936D02*
X184735000Y-108227064D01*
X183265000Y-107772936D02*
X183265000Y-108227064D01*
X184265000Y-95772936D02*
X184265000Y-96227064D01*
X185735000Y-95772936D02*
X185735000Y-96227064D01*
X192143000Y-95714000D02*
X192143000Y-100286000D01*
X189857000Y-100286000D02*
X189857000Y-95714000D01*
X189857000Y-95714000D02*
X192143000Y-95714000D01*
X192143000Y-100286000D02*
X189857000Y-100286000D01*
G36*
X192397000Y-99524000D02*
G01*
X192143000Y-99524000D01*
X192143000Y-98762000D01*
X192397000Y-98762000D01*
X192397000Y-99524000D01*
G37*
D10*
X192397000Y-99524000D02*
X192143000Y-99524000D01*
X192143000Y-98762000D01*
X192397000Y-98762000D01*
X192397000Y-99524000D01*
G36*
X189857000Y-99524000D02*
G01*
X189603000Y-99524000D01*
X189603000Y-98762000D01*
X189857000Y-98762000D01*
X189857000Y-99524000D01*
G37*
X189857000Y-99524000D02*
X189603000Y-99524000D01*
X189603000Y-98762000D01*
X189857000Y-98762000D01*
X189857000Y-99524000D01*
D15*
X186040000Y-91000000D02*
X186040000Y-93860000D01*
X187960000Y-93860000D02*
X187960000Y-91000000D01*
X186040000Y-93860000D02*
X187960000Y-93860000D01*
X200261252Y-99735000D02*
X199738748Y-99735000D01*
X200261252Y-98265000D02*
X199738748Y-98265000D01*
X198905000Y-106833500D02*
X198905000Y-103722000D01*
X195095000Y-103722000D02*
X195095000Y-107278000D01*
X198905000Y-103722000D02*
X195095000Y-103722000D01*
X195095000Y-107278000D02*
X198460500Y-107278000D01*
D16*
X198841500Y-107151000D02*
G75*
G03*
X198841500Y-107151000I-63500J0D01*
G01*
D15*
X198285500Y-94285500D02*
X198285500Y-97714500D01*
X201714500Y-94285500D02*
X198285500Y-94285500D01*
X198285500Y-97714500D02*
X201714500Y-97714500D01*
X201714500Y-97714500D02*
X201714500Y-94285500D01*
D17*
X210000000Y-88000000D02*
X178000000Y-88000000D01*
X214000000Y-109000000D02*
X214000000Y-92000000D01*
X178000000Y-113000000D02*
X210000000Y-113000000D01*
X174000000Y-92000000D02*
X174000000Y-109000000D01*
X214000000Y-92000000D02*
G75*
G03*
X210000000Y-88000000I-4000000J0D01*
G01*
X178000000Y-88000000D02*
G75*
G03*
X174000000Y-92000000I0J-4000000D01*
G01*
X174000000Y-109000000D02*
G75*
G03*
X178000000Y-113000000I4000000J0D01*
G01*
X210000000Y-113000000D02*
G75*
G03*
X214000000Y-109000000I0J4000000D01*
G01*
D15*
X208600000Y-103450000D02*
X211400000Y-103450000D01*
X211400000Y-103450000D02*
X211400000Y-105450000D01*
X208600000Y-105450000D02*
X208600000Y-103450000D01*
X211400000Y-105450000D02*
X208600000Y-105450000D01*
M02*
